<svg width="592px" height="159px" xmlns="http://www.w3.org/2000/svg" viewBox="0 0 592 159"><g opacity=".2"><path d="M130 1H1v27.7h49.6V158h29.7V28.7H130V1zm120 27.7V1H147v157h103v-27.7h-73.2V93.2h60V65.5h-60V28.7H250zM410 158h-30.5l-7.6-24.6h-64l-7.4 24.6H270L317.9 1h44.2L410 158zm-94-52l23.3-77 23.7 77h-47zm275 52V1h-30.1L510 105.2 459.1 1H429v157h30.1V64.5l45.6 93.5h10.5l45.6-93.8V158H591z" fill="#071d5b" fill-opacity=".01"/><path d="M1 1V.5H.5V1H1zm129 0h.5V.5h-.5V1zM1 28.7H.5v.5H1v-.5zm49.6 0h.5v-.5h-.5v.5zm0 129.3h-.5v.5h.5v-.5zm29.8 0v.5h.5v-.5h-.5zm0-129.3v-.5h-.5v.5h.5zm49.6 0v.5h.5v-.5h-.5zM250 1h.5V.5h-.5V1zm0 27.7v.5h.5v-.5h-.5zM147 1V.5h-.5V1h.5zm0 157h-.5v.5h.5v-.5zm103 0v.5h.5v-.5h-.5zm0-27.7h.5v-.5h-.5v.5zm-73.2 0h-.5v.5h.5v-.5zm0-37.1v-.5h-.5v.5h.5zm60.1 0v.5h.5v-.5h-.5zm0-27.7h.5V65h-.5v.5zm-60.1 0h-.5v.5h.5v-.5zm0-36.8v-.5h-.5v.5h.5zM379.5 158l-.5.1.1.4h.4v-.5zm30.5 0v.5h.7l-.2-.6-.5.1zm-38.1-24.6l.5-.1-.1-.4h-.4v.5zm-64 0v-.5h-.4l-.1.4.5.1zm-7.4 24.6v.5h.4l.1-.4-.5-.1zm-30.5 0l-.5-.1-.2.6h.7v-.5zM317.9 1V.5h-.4l-.1.4.5.1zm44.2 0l.5-.1-.1-.4h-.4V1zm-22.8 28l.5-.1-.5-1.6-.5 1.6.5.1zM316 106l-.5-.1-.2.6h.7v-.5zm47 0v.5h.7l-.2-.6-.5.1zM591 1h.5V.5h-.5V1zm0 157v.5h.5v-.5h-.5zM560.9 1V.5h-.3l-.1.3.4.2zM510 105.2l-.4.2.4.9.4-.9-.4-.2zM459.1 1l.5-.2-.1-.3h-.3V1zM429 1V.5h-.5V1h.5zm0 157h-.5v.5h.5v-.5zm30.1 0v.5h.5v-.5h-.5zm0-93.5l.5-.2-1 .2h.5zm45.7 93.5l-.4.2.1.3h.3v-.5zm10.4 0v.5h.3l.1-.3-.4-.2zm45.7-93.8h.5l-.9-.2.4.2zm0 93.8h-.5v.5h.5v-.5zM1 1.5h129v-1H1v1zm.5 27.2V1h-1v27.7h1zm49.1-.5H1v1h49.6v-1zm.5 129.8V28.7h-1V158h1zm29.3-.5H50.6v1h29.7v-1zm-.5-128.8V158h1V28.7h-1zm50.1-.5H80.4v1H130v-1zM129.5 1v27.7h1V1h-1zm120 0v27.7h1V1h-1zM147 1.5h103v-1H147v1zm.5 156.5V1h-1v157h1zm102.5-.5H147v1h103v-1zm-.5-27.2V158h1v-27.7h-1zm-72.7.5H250v-1h-73.2v1zm-.5-37.6v37.1h1V93.2h-1zm60.6-.5h-60v1h60v-1zm-.5-27.2v27.7h1V65.5h-1zm-59.6.5h60v-1h-60v1zm-.5-37.3v36.9h1V28.7h-1zm73.7-.5h-73.2v1H250v-1zm129.5 130.3H410v-1h-30.5v1zm-8.1-25l7.6 24.6 1-.3-7.6-24.6-1 .3zm-63.5.4h64v-1h-64v1zm-6.9 24.2l7.4-24.6-1-.3-7.4 24.6 1 .3zm-31 .4h30.5v-1H270v1zM317.4.9l-47.9 157 1 .3 47.9-157-1-.3zm44.7-.4h-44.2v1h44.2v-1zm48.4 157.4L362.6.9l-1 .3 47.9 157 1-.3zm-71.7-129l-23.3 77 1 .3 23.3-77-1-.3zm24.7 77l-23.7-77-1 .3 23.7 77 1-.3zm-47.5.6h47v-1h-47v1zM590.5 1v157h1V1h-1zm-29.6.5H591v-1h-30.1v1zm-50.5 103.9L561.3 1.2l-.9-.4L509.6 105l.8.4zM458.7 1.2l50.9 104.2.9-.4L459.6.8l-.9.4zm-29.7.3h30.1v-1H429v1zm.5 156.5V1h-1v157h1zm29.6-.5H429v1h30.1v-1zm-.5-93V158h1V64.5h-1zm46.6 93.3l-45.6-93.5-.9.4 45.6 93.5.9-.4zm10-.3h-10.5v1h10.5v-1zM560.4 64l-45.6 93.8.9.4 45.6-93.8-.9-.4zm1 94V64.2h-1V158h1zm29.6-.5h-30.1v1H591v-1z" fill="#7a7a7a"/></g></svg>
