<svg width="72" height="72" viewBox="0 0 72 72" fill="none" xmlns="http://www.w3.org/2000/svg">
<g clip-path="url(#clip0)">
<path d="M11.2056 38.7156H12.8213V69.0913H11.2056V38.7156Z" fill="#E7E7E8"/>
<path d="M36.5479 67.9932C36.5851 68.0159 36.6236 68.0373 36.6615 68.0601C37.1443 68.3586 37.6498 68.6193 38.1731 68.8395C37.6429 68.5334 37.1014 68.2513 36.5479 67.9932Z" fill="#071D5B"/>
<path d="M25.9081 44.3708H28.1278C31.2337 44.3809 34.1571 42.9053 35.9925 40.3996C38.8345 36.4506 40.7027 31.8855 41.4462 27.0768L41.9631 23.6093C42.0988 23.632 42.2326 23.661 42.3645 23.6945C41.6646 23.057 40.7961 22.6348 39.8627 22.4783L39.3458 25.9458C38.6023 30.7545 36.7341 35.3196 33.8921 39.2686C32.0567 41.7743 29.1332 43.2499 26.0274 43.2398H23.8076V64.8906H25.7818C25.8241 64.8906 25.8658 64.8931 25.9081 64.8931V44.3708Z" fill="#E7E7E8"/>
<path d="M45.2524 43.8311C45.9587 44.591 46.9509 45.0214 47.9885 45.017H60.6291C60.2087 44.3177 59.4539 43.8891 58.6384 43.886H45.888C45.6753 43.8853 45.462 43.867 45.2524 43.8311Z" fill="#E7E7E8"/>
<path d="M44.043 40.429L44.0429 40.4289C43.8254 38.4725 44.0703 36.492 44.758 34.647L44.7581 34.6469C45.4816 32.7162 45.8493 30.67 45.843 28.6081L45.843 28.6078L45.843 27.3986V27.3985C45.8455 23.6384 42.8014 20.5869 39.0408 20.5812C38.6139 20.5818 38.2514 20.8957 38.1892 21.3182L38.1891 21.3186L37.5239 25.6868L37.5239 25.687C36.826 30.2008 35.0704 34.4853 32.4009 38.1909L32.4003 38.1916C30.9115 40.2199 28.5425 41.4128 26.0271 41.4008C26.027 41.4008 26.0269 41.4008 26.0267 41.4008L23.8075 41.4008H23.7075V41.3008V37.7159V37.7139L23.7075 37.7139C23.712 37.4905 23.6253 37.2745 23.4667 37.1164L23.4666 37.1163C23.3086 36.9583 23.0926 36.8717 22.8693 36.8767L22.8671 36.8768L10.2353 36.8767H10.2326L10.2326 36.8767C10.0052 36.8705 9.78575 36.9562 9.62263 37.1143L9.55305 37.0425L9.62263 37.1143C9.45962 37.2722 9.36707 37.4894 9.36588 37.7161L44.043 40.429ZM44.043 40.429C44.1478 41.3642 44.9472 42.0652 45.8877 42.0471H58.6369L44.043 40.429ZM23.4704 70.6605L23.4705 70.6604C23.6288 70.4936 23.7137 70.2707 23.7075 70.0402L23.7074 70.0375L23.7075 66.8294V66.7294H23.8075H25.7817H25.7824C29.2904 66.7535 32.7218 67.7553 35.6912 69.6232C38.9736 71.6594 42.6731 71.8997 46.5173 71.8997L23.4704 70.6605ZM23.4704 70.6605C23.3128 70.8271 23.095 70.9243 22.8658 70.9303H10.2364L23.4704 70.6605ZM36.6087 68.1457L36.6082 68.1454C33.3628 66.1066 29.6131 65.0144 25.7811 64.9905H23.8075H23.7075V64.8905V43.2397V43.1397H23.8075H26.0272H26.0275C29.1013 43.1497 31.9946 41.6893 33.811 39.2097C36.6436 35.2736 38.5056 30.7236 39.2467 25.9308C39.2468 25.9306 39.2468 25.9305 39.2468 25.9304L39.7636 22.4634L39.7787 22.3623L39.8794 22.3796C42.3233 22.7987 44.1086 24.9194 44.1041 27.3987M36.6087 68.1457L44.0041 27.3986M36.6087 68.1457C39.5087 69.9451 42.9627 70.1608 46.5173 70.1608H56.7993C58.2829 70.1608 59.4845 68.9585 59.4845 67.4757C59.4845 65.9928 58.2829 64.7905 56.7993 64.7905H51.244C50.764 64.7905 50.3745 64.4016 50.3745 63.9211C50.3745 63.4411 50.764 63.0516 51.244 63.0516H58.4094C59.8929 63.0516 61.0945 61.8493 61.0945 60.3664C61.0945 58.8838 59.8932 57.6816 58.41 57.6813M36.6087 68.1457L58.41 57.6813M44.1041 27.3987L44.0041 27.3986M44.1041 27.3987V27.3986H44.0041M44.1041 27.3987V28.6075M44.0041 27.3986V28.6078L44.1041 28.6075M44.1041 28.6075C44.1105 30.4663 43.7808 32.3111 43.1303 34.053L43.1302 34.0531C42.3449 36.1465 42.0628 38.3953 42.3067 40.6177C42.5106 42.4355 44.057 43.8044 45.8858 43.786L45.8868 43.786L58.6372 43.786C59.9863 43.786 61.08 44.8797 61.08 46.2288C61.08 47.5779 59.9863 48.6716 58.6372 48.6716H53.4397C52.9598 48.6716 52.5703 49.0611 52.5703 49.541C52.5703 50.0216 52.9597 50.4105 53.4397 50.4105H58.3002C59.8279 50.4105 61.0661 51.6487 61.0661 53.1764C61.0661 54.7041 59.8279 55.9424 58.3002 55.9424H53.4397C52.9598 55.9424 52.5703 56.3318 52.5703 56.8118C52.5703 57.2924 52.9597 57.6813 53.4397 57.6813H58.4094C58.4096 57.6813 58.4098 57.6813 58.41 57.6813M44.1041 28.6075L58.41 57.6813M21.8686 69.1914H21.9686V69.0914V38.7156V38.6156H21.8686H11.2048H11.1048V38.7156V69.0914V69.1914H11.2048H21.8686Z" fill="#071D5B" stroke="white" stroke-width="0.2"/>
<path d="M41.2843 6.53329L41.2932 6.48147L42.2134 1.11737L42.312 1.13427L42.2134 1.11736C42.2695 0.790777 42.1354 0.461386 41.8677 0.266618C41.5999 0.0724054 41.2449 0.0464245 40.9518 0.200916L40.9517 0.20097L36.1335 2.73312L36.087 2.75758L36.0405 2.73312L31.2217 0.199701L31.2217 0.199687C30.9292 0.0457944 30.5736 0.0717543 30.3057 0.265987L30.247 0.185032M41.2843 6.53329L26.9529 10.3707L30.8514 6.56998L30.8891 6.53328L30.8802 6.48147L29.96 1.11674L29.96 1.11673C29.9039 0.790101 30.0381 0.460663 30.3059 0.265906L30.247 0.185032M41.2843 6.53329L41.322 6.56999M41.2843 6.53329L41.322 6.56999M30.247 0.185032C29.9485 0.402146 29.7989 0.769473 29.8614 1.13364L41.9264 0.185663C41.6278 -0.0308194 41.2321 -0.0598521 40.9052 0.11245L36.087 2.6446L31.2682 0.111188C30.9419 -0.0604832 30.5456 -0.0314505 30.247 0.185032ZM41.322 6.56999L45.2206 10.3701L45.2206 10.3701C45.4577 10.601 45.5427 10.9468 45.4408 11.2616C45.3384 11.5763 45.0661 11.8056 44.7389 11.8531L44.7533 11.9521L44.7389 11.8531L39.3508 12.6364L39.2988 12.644L39.2755 12.6911L36.8664 17.573L36.8664 17.5732C36.7204 17.8702 36.4182 18.0582 36.087 18.0582C35.7559 18.0582 35.4536 17.8702 35.307 17.573L35.2173 17.6173L35.307 17.573L32.8979 12.6911L32.8746 12.644L32.8226 12.6364L27.4351 11.8538L27.4351 11.8538M41.322 6.56999L27.4351 11.8538M27.4351 11.8538C27.1075 11.8062 26.8357 11.5765 26.7332 11.2616C26.6308 10.947 26.7162 10.6017 26.9528 10.3707L27.4351 11.8538ZM45.2904 10.2985L41.3918 6.49838L45.2904 10.2985ZM35.9974 15.0416L36.087 15.2234L36.1767 15.0416L37.942 11.4637C37.942 11.4637 37.942 11.4637 37.942 11.4637C38.0688 11.2073 38.3133 11.0296 38.5969 10.9882C38.597 10.9882 38.597 10.9882 38.597 10.9882L42.5448 10.4151L42.7453 10.386L42.6002 10.2446L39.7436 7.46058L39.7435 7.4605C39.5381 7.26073 39.4447 6.97267 39.4934 6.69085L39.4934 6.69073L40.1675 2.7587L40.2017 2.55903L40.0224 2.65328L36.4911 4.50948L36.491 4.50957C36.2381 4.64309 35.9354 4.64309 35.6824 4.50957L35.6823 4.50948L32.151 2.65328L31.9717 2.55903L32.0059 2.75869L32.68 6.69136L32.68 6.69148C32.7287 6.9731 32.6348 7.26064 32.4304 7.46059C32.4304 7.46062 32.4303 7.46066 32.4303 7.46069L29.5732 10.2446L29.4281 10.386L29.6287 10.4151L33.577 10.9882C33.8602 11.0295 34.1052 11.2074 34.2314 11.4636L34.2314 11.4637L35.9974 15.0416Z" fill="#071D5B" stroke="white" stroke-width="0.2"/>
<path d="M18.8338 15.1608L18.8427 15.109L19.7628 9.74378L18.8338 15.1608ZM18.8338 15.1608L18.8714 15.1975M18.8338 15.1608L18.8714 15.1975M18.8714 15.1975L22.7694 18.997L22.7694 18.9971C23.0066 19.228 23.0921 19.5739 22.9902 19.8887C22.8877 20.2039 22.6155 20.4331 22.2877 20.4807L22.2877 20.4807L16.9002 21.2639L16.8482 21.2715L16.8249 21.3186L14.4159 26.1999C14.2693 26.4965 13.967 26.6844 13.6358 26.6844C13.3046 26.6844 13.0024 26.4965 12.8564 26.2L12.8564 26.1999L10.4467 21.3186L10.4234 21.2715L10.3714 21.2639L4.98395 20.4801L4.98394 20.4801C4.65678 20.4325 4.38448 20.2032 4.28202 19.8885C4.18018 19.5737 4.26512 19.2285 4.5023 18.997L8.40083 15.1975L8.43848 15.1608L8.4296 15.109L7.50939 9.74302L7.50938 9.74298C7.45336 9.41704 7.58745 9.0876 7.85527 8.89282C8.12298 8.69812 8.47784 8.67265 8.77046 8.8266L8.77047 8.82661L13.5893 11.3607L13.6358 11.3851L13.6823 11.3607L18.5011 8.82724L18.5012 8.82723C18.7938 8.67328 19.1493 8.69876 19.417 8.89345L19.4171 8.89353M18.8714 15.1975L19.4171 8.89353M19.4171 8.89353C19.6846 9.08751 19.8183 9.41742 19.7629 9.74365L19.4171 8.89353ZM16.1456 19.6164L16.1457 19.6164L20.0936 19.0427L20.2941 19.0135L20.149 18.8721L17.2924 16.0875C17.2924 16.0875 17.2924 16.0875 17.2924 16.0875C17.0875 15.8877 16.9941 15.5995 17.0422 15.3176L17.7169 11.3856L17.7512 11.1859L17.5718 11.2802L14.0406 13.1364L14.0404 13.1365C13.7875 13.27 13.4848 13.27 13.2312 13.1364L13.2311 13.1364L9.70045 11.2802L9.52112 11.1859L9.55535 11.3856L10.2294 15.3176L10.2294 15.3178C10.2781 15.5995 10.1842 15.8876 9.97978 16.0876C9.97976 16.0876 9.97975 16.0876 9.97973 16.0876L7.12265 18.8721L6.97754 19.0135L7.17807 19.0427L11.1259 19.6164L11.126 19.6164C11.4095 19.6572 11.654 19.8348 11.7808 20.0918L11.8705 20.0476L11.7808 20.0918L13.5461 23.6692L13.6358 23.8509L13.7255 23.6692L15.4914 20.0919L15.4915 20.0918C15.6177 19.8354 15.8628 19.6571 16.1456 19.6164Z" fill="#071D5B" stroke="white" stroke-width="0.2"/>
<path d="M61.7516 21.2715L61.8037 21.2639L67.1917 20.4801L67.1918 20.48C67.5196 20.4325 67.7918 20.2032 67.8936 19.8887L67.8937 19.8885C67.9961 19.574 67.9107 19.2287 67.6741 18.997L61.7516 21.2715ZM61.7516 21.2715L61.7284 21.3186M61.7516 21.2715L61.7284 21.3186M61.7284 21.3186L59.3193 26.1999M61.7284 21.3186L59.3193 26.1999M59.3193 26.1999C59.1727 26.4965 58.8704 26.6844 58.5393 26.6844M59.3193 26.1999L58.5393 26.6844M58.5393 26.6844C58.2088 26.6844 57.9065 26.4965 57.7598 26.1999L58.5393 26.6844ZM63.7749 15.1975L67.6739 18.9969L57.7598 26.1999L55.3508 21.318L55.3275 21.2709L55.2755 21.2633L49.888 20.4801L49.888 20.48C49.5603 20.4325 49.2886 20.2033 49.1861 19.8885C49.0837 19.5739 49.1691 19.228 49.4063 18.9971L49.4063 18.997L53.3043 15.1975L53.3419 15.1608L53.333 15.109L52.4128 9.74302L52.4128 9.74298C52.3568 9.41704 52.4909 9.0876 52.7587 8.89282C53.0264 8.69815 53.3813 8.67262 53.6746 8.82664L58.4933 11.3607L58.5399 11.3851L58.5864 11.3607L63.4052 8.82727C63.4052 8.82726 63.4052 8.82725 63.4052 8.82724C63.6985 8.67325 64.0534 8.69879 64.321 8.89345L64.3212 8.89353C64.5888 9.08761 64.723 9.41759 64.6669 9.74362L64.6669 9.74364L63.7461 15.109L63.7372 15.1608L63.7749 15.1975ZM52.0261 18.8715L51.881 19.0129L52.0815 19.042L56.0299 19.6157C56.3129 19.6571 56.5574 19.8348 56.6843 20.0918L56.7739 20.0476L56.6843 20.0918L58.4496 23.6692L58.5393 23.8509L58.6289 23.6692L60.3942 20.0912L60.3943 20.0911C60.5204 19.8349 60.7655 19.6571 61.0486 19.6157L64.9976 19.042L65.1982 19.0129L65.053 18.8715L62.1959 16.0869C62.1959 16.0869 62.1959 16.0869 62.1958 16.0869C61.991 15.8871 61.8975 15.5989 61.9457 15.3169L62.6203 11.385L62.6546 11.1853L62.4752 11.2796L58.944 13.1358L58.9438 13.1358C58.691 13.2694 58.3882 13.2694 58.1346 13.1358L58.1345 13.1358L54.6039 11.2796L54.4246 11.1853L54.4588 11.385L55.1329 15.317L55.1329 15.3171C55.1815 15.5988 55.0876 15.887 54.8832 16.0869C54.8832 16.0869 54.8832 16.087 54.8832 16.087L52.0261 18.8715Z" fill="#071D5B" stroke="white" stroke-width="0.2"/>
</g>
<defs>
<clipPath id="clip0">
<rect width="72" height="72" fill="white"/>
</clipPath>
</defs>
</svg>
