<svg width="72" height="72" viewBox="0 0 72 72" fill="none" xmlns="http://www.w3.org/2000/svg">
<g clip-path="url(#clip0)">
<path d="M43.6507 58.4236H43.6511C46.2638 58.4236 48.3811 60.5409 48.3811 63.1536C48.3811 65.7657 46.2637 67.883 43.6511 67.883C41.039 67.883 38.9217 65.7656 38.9217 63.153V63.1526C38.9246 60.5422 41.0403 58.4265 43.6507 58.4236ZM43.6514 69.7178C47.277 69.7176 50.2159 66.7786 50.2159 63.153C50.2159 59.5279 47.2768 56.5888 43.6511 56.5888C40.0261 56.5888 37.0871 59.5277 37.0869 63.1526C37.0908 66.7766 40.0274 69.7139 43.6514 69.7178Z" fill="#071D5B" stroke="white" stroke-width="0.6"/>
<path d="M18.231 58.4236H18.2314C20.8441 58.4236 22.9614 60.5409 22.9614 63.1536C22.9614 65.7657 20.844 67.883 18.2314 67.883C15.6193 67.883 13.502 65.7656 13.502 63.153V63.1526C13.5049 60.5421 15.6207 58.4272 18.231 58.4236ZM18.2317 69.7178C21.8573 69.7176 24.7962 66.7786 24.7962 63.1536C24.7962 59.5279 21.8571 56.5888 18.2321 56.5888C14.6064 56.5888 11.6674 59.5277 11.6672 63.1526C11.6711 66.7766 14.6078 69.7139 18.2317 69.7178Z" fill="#071D5B" stroke="white" stroke-width="0.6"/>
<path d="M52.2824 45.6199L52.2826 45.6187L58.1608 8.48766C58.1608 8.48744 58.1608 8.48722 58.1609 8.487C58.556 5.92497 60.7657 4.0381 63.3573 4.04791H70.7826C71.2895 4.04791 71.7 3.63739 71.7 3.13053C71.7 2.62423 71.2894 2.21314 70.7826 2.21314L63.3567 2.21315L63.3555 2.21314C59.8607 2.19946 56.8813 4.74421 56.3489 8.19794L56.3487 8.19912L55.668 12.5014L55.628 12.7545H55.3717H1.21778C0.921242 12.7545 0.642685 12.8981 0.469833 13.1398C0.29763 13.3822 0.253265 13.6924 0.350937 13.9726L0.35112 13.9731L7.25525 33.8995C7.25526 33.8996 7.25528 33.8996 7.25529 33.8997C8.24603 36.7551 10.9366 38.67 13.9596 38.6714C13.9596 38.6714 13.9596 38.6714 13.9597 38.6714H51.1733H51.5246L51.4697 39.0183L50.4705 45.3302C50.4705 45.3304 50.4705 45.3307 50.4704 45.3309C50.0753 47.8924 47.8653 49.78 45.2734 49.7699H8.93921C8.43291 49.7699 8.02182 50.1806 8.02182 50.6873C8.02182 51.1935 8.43302 51.6047 8.93921 51.6047L45.2746 51.6047L45.2758 51.6047C48.7707 51.6184 51.75 49.0737 52.2824 45.6199ZM2.6449 14.9882L2.50694 14.59L2.92836 14.59L54.9865 14.5893L55.3377 14.5893L55.2828 14.9362L51.8555 36.5835L51.8155 36.8366H51.5592H13.9596H13.9595C11.7183 36.8359 9.72347 35.4159 8.98867 33.2987L8.98861 33.2985L2.6449 14.9882Z" fill="#071D5B" stroke="white" stroke-width="0.6"/>
<path d="M8.74152 31.3193H46.3412L48.9424 14.8894H54.9858L51.5585 36.5367H13.9589C11.8454 36.536 9.96434 35.197 9.27141 33.2004L8.61788 31.3146C8.65932 31.3153 8.70008 31.3193 8.74152 31.3193Z" fill="#E7E7E8"/>
</g>
<defs>
<clipPath id="clip0">
<rect width="72" height="72" transform="matrix(-1 0 0 1 72 0)" fill="white"/>
</clipPath>
</defs>
</svg>
