<svg width="672" height="158" viewBox="0 0 672 158" fill="none" xmlns="http://www.w3.org/2000/svg">
<g opacity="0.1">
<path d="M140.75 110.25C137.833 118.722 133.736 126.153 128.458 132.542C121.792 140.597 113.597 146.708 103.875 150.875C94.2917 155.042 84.0833 157.125 73.25 157.125C62.1389 157.125 51.7222 154.972 42 150.667C32.2778 146.361 24.2917 140.319 18.0417 132.542C6.23611 118.236 0.333334 100.389 0.333334 79C0.333334 57.3333 6.23611 39.4167 18.0417 25.25C24.4306 17.1944 32.4167 11.1528 42 7.12499C51.7222 2.95832 62.1389 0.874988 73.25 0.874988C84.3611 0.874988 94.7083 2.95832 104.292 7.12499C113.875 11.2917 121.931 17.3333 128.458 25.25C134.569 32.8889 139.153 41.7778 142.208 51.9167L113.042 56.9167C111.097 50.8056 108.736 46.0139 105.958 42.5417C102.347 37.6805 97.625 33.9305 91.7917 31.2917C85.9583 28.6528 79.7778 27.3333 73.25 27.3333C66.5833 27.3333 60.3333 28.6528 54.5 31.2917C48.8056 33.9305 44.1528 37.6805 40.5417 42.5417C34.0139 50.875 30.6111 63.0278 30.3333 79C30.6111 94.8333 34.0139 106.986 40.5417 115.458C44.0139 120.319 48.5972 124.069 54.2917 126.708C59.9861 129.208 66.0278 130.458 72.4167 130.458C79.2222 130.458 85.5417 129.208 91.375 126.708C97.3472 124.208 102.208 120.458 105.958 115.458C108.875 111.431 111.097 106.986 112.625 102.125L140.75 110.25ZM245.034 130.667H183.784L176.701 154H147.534L193.367 3.99999H235.659L281.492 154H252.326L245.034 130.667ZM236.909 104L214.201 30.6667L191.909 104H236.909ZM377.898 49.8333C375.815 45.5278 373.801 42.125 371.857 39.625C369.912 37.125 367.273 34.9028 363.94 32.9583C358.107 29.3472 351.787 27.5417 344.982 27.5417C338.315 27.5417 332.69 28.9306 328.107 31.7083C325.607 33.2361 323.662 35.1111 322.273 37.3333C321.023 39.5555 320.398 41.8472 320.398 44.2083C320.398 46.9861 321.371 49.3472 323.315 51.2917C325.676 53.7917 331.371 56.4306 340.398 59.2083L366.44 66.7083C373.107 68.6528 378.523 70.7361 382.69 72.9583C386.996 75.0417 390.815 77.6806 394.148 80.875C398.732 85.1806 402.204 90.0417 404.565 95.4583C406.926 100.875 408.107 106.639 408.107 112.75C408.107 119.278 406.371 125.736 402.898 132.125C399.426 138.514 394.704 143.653 388.732 147.542C383.315 151.153 377.273 153.653 370.607 155.042C364.079 156.431 356.44 157.125 347.69 157.125C337.135 157.125 327.69 155.597 319.357 152.542C311.162 149.347 304.148 144.139 298.315 136.917C292.065 129.139 287.551 119.417 284.773 107.75L313.523 100.042C314.912 107.958 317.412 114.139 321.023 118.583C323.94 122.472 327.898 125.458 332.898 127.542C338.037 129.625 343.315 130.667 348.732 130.667C352.898 130.667 357.135 130.111 361.44 129C365.885 127.75 369.426 126.153 372.065 124.208C376.093 121.292 378.107 117.194 378.107 111.917C378.107 107.611 376.579 104.139 373.523 101.5C370.329 98.7222 365.885 96.5 360.19 94.8333L332.273 86.7083C319.635 83.2361 310.051 78.5833 303.523 72.75C299.218 69.1389 295.954 64.7639 293.732 59.625C291.648 54.4861 290.607 49.1389 290.607 43.5833C290.607 35.5278 292.898 28.1667 297.482 21.5C302.065 14.8333 307.898 9.90277 314.982 6.70833C319.982 4.48611 324.982 2.95833 329.982 2.12499C335.121 1.29166 340.676 0.874988 346.648 0.874988C359.148 1.15277 369.635 3.58333 378.107 8.16666C384.496 11.6389 390.121 16.2917 394.982 22.125C399.843 27.8194 403.732 34.4861 406.648 42.125L377.898 49.8333ZM459.266 32.3333V64.8333H516.349V93.1667H459.266V125.667H528.849V154H430.932V3.99999H528.849V32.3333H459.266ZM640.789 49.8333C638.706 45.5278 636.692 42.125 634.747 39.625C632.803 37.125 630.164 34.9028 626.831 32.9583C620.997 29.3472 614.678 27.5417 607.872 27.5417C601.206 27.5417 595.581 28.9306 590.997 31.7083C588.497 33.2361 586.553 35.1111 585.164 37.3333C583.914 39.5555 583.289 41.8472 583.289 44.2083C583.289 46.9861 584.261 49.3472 586.206 51.2917C588.567 53.7917 594.261 56.4306 603.289 59.2083L629.331 66.7083C635.997 68.6528 641.414 70.7361 645.581 72.9583C649.886 75.0417 653.706 77.6806 657.039 80.875C661.622 85.1806 665.095 90.0417 667.456 95.4583C669.817 100.875 670.997 106.639 670.997 112.75C670.997 119.278 669.261 125.736 665.789 132.125C662.317 138.514 657.595 143.653 651.622 147.542C646.206 151.153 640.164 153.653 633.497 155.042C626.97 156.431 619.331 157.125 610.581 157.125C600.025 157.125 590.581 155.597 582.247 152.542C574.053 149.347 567.039 144.139 561.206 136.917C554.956 129.139 550.442 119.417 547.664 107.75L576.414 100.042C577.803 107.958 580.303 114.139 583.914 118.583C586.831 122.472 590.789 125.458 595.789 127.542C600.928 129.625 606.206 130.667 611.622 130.667C615.789 130.667 620.025 130.111 624.331 129C628.775 127.75 632.317 126.153 634.956 124.208C638.984 121.292 640.997 117.194 640.997 111.917C640.997 107.611 639.47 104.139 636.414 101.5C633.22 98.7222 628.775 96.5 623.081 94.8333L595.164 86.7083C582.525 83.2361 572.942 78.5833 566.414 72.75C562.109 69.1389 558.845 64.7639 556.622 59.625C554.539 54.4861 553.497 49.1389 553.497 43.5833C553.497 35.5278 555.789 28.1667 560.372 21.5C564.956 14.8333 570.789 9.90277 577.872 6.70833C582.872 4.48611 587.872 2.95833 592.872 2.12499C598.011 1.29166 603.567 0.874988 609.539 0.874988C622.039 1.15277 632.525 3.58333 640.997 8.16666C647.386 11.6389 653.011 16.2917 657.872 22.125C662.734 27.8194 666.622 34.4861 669.539 42.125L640.789 49.8333Z" fill="white" fill-opacity="0.01"/>
<path d="M140.75 110.25L140.892 110.299L140.943 110.15L140.792 110.106L140.75 110.25ZM128.458 132.542L128.574 132.637L128.574 132.637L128.458 132.542ZM103.875 150.875L103.816 150.737L103.815 150.737L103.875 150.875ZM42 150.667L41.9393 150.804L41.9393 150.804L42 150.667ZM18.0417 132.542L18.1586 132.448L18.1574 132.446L18.0417 132.542ZM18.0417 25.25L18.1569 25.3461L18.1592 25.3432L18.0417 25.25ZM42 7.12499L42.0581 7.26327L42.0591 7.26286L42 7.12499ZM104.292 7.12499L104.232 7.26255L104.232 7.26255L104.292 7.12499ZM128.458 25.25L128.575 25.1563L128.574 25.1546L128.458 25.25ZM142.208 51.9167L142.234 52.0645L142.401 52.0358L142.352 51.8734L142.208 51.9167ZM113.042 56.9167L112.899 56.9621L112.938 57.0866L113.067 57.0645L113.042 56.9167ZM105.958 42.5417L105.838 42.6312L105.841 42.6354L105.958 42.5417ZM91.7917 31.2917L91.7298 31.4283L91.7917 31.2917ZM54.5 31.2917L54.4382 31.155L54.4369 31.1556L54.5 31.2917ZM40.5417 42.5417L40.6598 42.6342L40.6621 42.6311L40.5417 42.5417ZM30.3333 79L30.1833 78.9974L30.1834 79.0026L30.3333 79ZM40.5417 115.458L40.6638 115.371L40.6605 115.367L40.5417 115.458ZM54.2917 126.708L54.2286 126.844L54.2314 126.846L54.2917 126.708ZM91.375 126.708L91.3171 126.57L91.3159 126.57L91.375 126.708ZM105.958 115.458L106.078 115.548L106.08 115.546L105.958 115.458ZM112.625 102.125L112.667 101.981L112.526 101.94L112.482 102.08L112.625 102.125ZM140.608 110.201C137.697 118.658 133.608 126.072 128.343 132.446L128.574 132.637C133.864 126.233 137.97 118.787 140.892 110.299L140.608 110.201ZM128.343 132.446C121.691 140.483 113.516 146.58 103.816 150.737L103.934 151.013C113.678 146.837 121.892 140.711 128.574 132.637L128.343 132.446ZM103.815 150.737C94.2514 154.896 84.0635 156.975 73.25 156.975V157.275C84.1031 157.275 94.3319 155.188 103.935 151.013L103.815 150.737ZM73.25 156.975C62.1589 156.975 51.763 154.826 42.0607 150.53L41.9393 150.804C51.6815 155.118 62.1189 157.275 73.25 157.275V156.975ZM42.0607 150.53C32.359 146.233 24.3926 140.206 18.1586 132.448L17.9247 132.636C24.1907 140.433 32.1966 146.489 41.9393 150.804L42.0607 150.53ZM18.1574 132.446C6.37732 118.172 0.483334 100.36 0.483334 79H0.183334C0.183334 100.418 6.09491 118.301 17.926 132.637L18.1574 132.446ZM0.483334 79C0.483334 57.362 6.37761 39.4812 18.1569 25.346L17.9264 25.154C6.09461 39.3522 0.183334 57.3047 0.183334 79H0.483334ZM18.1592 25.3432C24.5322 17.3077 32.4978 11.2814 42.0581 7.26327L41.9419 6.98671C32.3355 11.0242 24.3289 17.0812 17.9241 25.1568L18.1592 25.3432ZM42.0591 7.26286C51.7617 3.1046 62.1582 1.02499 73.25 1.02499V0.724988C62.1196 0.724988 51.6827 2.81205 41.9409 6.98712L42.0591 7.26286ZM73.25 1.02499C84.3419 1.02499 94.6686 3.1046 104.232 7.26255L104.351 6.98743C94.7481 2.81204 84.3804 0.724988 73.25 0.724988V1.02499ZM104.232 7.26255C113.794 11.42 121.83 17.4474 128.343 25.3454L128.574 25.1546C122.031 17.2193 113.956 11.1633 104.351 6.98743L104.232 7.26255ZM128.341 25.3437C134.439 32.9664 139.014 41.8379 142.065 51.9599L142.352 51.8734C139.291 41.7177 134.7 32.8113 128.575 25.1563L128.341 25.3437ZM142.183 51.7688L113.016 56.7688L113.067 57.0645L142.234 52.0645L142.183 51.7688ZM113.185 56.8712C111.237 50.7496 108.869 45.9394 106.075 42.448L105.841 42.6354C108.604 46.0884 110.958 50.8615 112.899 56.9621L113.185 56.8712ZM106.079 42.4522C102.452 37.5695 97.7087 33.8038 91.8535 31.155L91.7298 31.4283C97.5413 34.0573 102.243 37.7916 105.838 42.6311L106.079 42.4522ZM91.8535 31.155C86.0003 28.5071 79.7987 27.1833 73.25 27.1833V27.4833C79.7569 27.4833 85.9163 28.7984 91.7298 31.4283L91.8535 31.155ZM73.25 27.1833C66.5629 27.1833 60.2917 28.5069 54.4382 31.155L54.5618 31.4283C60.3749 28.7986 66.6038 27.4833 73.25 27.4833V27.1833ZM54.4369 31.1556C48.7206 33.8046 44.0478 37.5703 40.4213 42.4522L40.6621 42.6311C44.2577 37.7908 48.8905 34.0565 54.5631 31.4278L54.4369 31.1556ZM40.4236 42.4492C33.8677 50.8183 30.4614 63.0083 30.1834 78.9974L30.4833 79.0026C30.7608 63.0472 34.16 50.9317 40.6598 42.6342L40.4236 42.4492ZM30.1834 79.0026C30.4614 94.8534 33.868 107.042 40.4228 115.55L40.6605 115.367C34.1598 106.93 30.7608 94.8133 30.4833 78.9974L30.1834 79.0026ZM40.4196 115.546C43.9077 120.429 48.5118 124.195 54.2286 126.844L54.3547 126.572C48.6826 123.944 44.1201 120.21 40.6637 115.371L40.4196 115.546ZM54.2314 126.846C59.9453 129.354 66.0076 130.608 72.4167 130.608V130.308C66.048 130.308 60.0269 129.062 54.352 126.571L54.2314 126.846ZM72.4167 130.608C79.2411 130.608 85.5808 129.355 91.4341 126.846L91.3159 126.57C85.5026 129.062 79.2034 130.308 72.4167 130.308V130.608ZM91.4329 126.847C97.4289 124.337 102.312 120.57 106.078 115.548L105.838 115.368C102.105 120.346 97.2656 124.08 91.3171 126.57L91.4329 126.847ZM106.08 115.546C109.006 111.505 111.236 107.046 112.768 102.17L112.482 102.08C110.959 106.926 108.744 111.356 105.837 115.37L106.08 115.546ZM112.583 102.269L140.708 110.394L140.792 110.106L112.667 101.981L112.583 102.269ZM245.034 130.667L245.177 130.622L245.144 130.517H245.034V130.667ZM183.784 130.667V130.517H183.673L183.64 130.623L183.784 130.667ZM176.701 154V154.15H176.812L176.844 154.044L176.701 154ZM147.534 154L147.39 153.956L147.331 154.15H147.534V154ZM193.367 3.99999V3.84999H193.256L193.224 3.95616L193.367 3.99999ZM235.659 3.99999L235.802 3.95616L235.77 3.84999H235.659V3.99999ZM281.492 154V154.15H281.695L281.636 153.956L281.492 154ZM252.326 154L252.182 154.045L252.215 154.15H252.326V154ZM236.909 104V104.15H237.112L237.052 103.956L236.909 104ZM214.201 30.6667L214.344 30.6223L214.199 30.1553L214.057 30.623L214.201 30.6667ZM191.909 104L191.765 103.956L191.706 104.15H191.909V104ZM245.034 130.517H183.784V130.817H245.034V130.517ZM183.64 130.623L176.557 153.956L176.844 154.044L183.927 130.71L183.64 130.623ZM176.701 153.85H147.534V154.15H176.701V153.85ZM147.677 154.044L193.511 4.04382L193.224 3.95616L147.39 153.956L147.677 154.044ZM193.367 4.14999H235.659V3.84999H193.367V4.14999ZM235.515 4.04382L281.349 154.044L281.636 153.956L235.802 3.95616L235.515 4.04382ZM281.492 153.85H252.326V154.15H281.492V153.85ZM252.469 153.955L245.177 130.622L244.891 130.711L252.182 154.045L252.469 153.955ZM237.052 103.956L214.344 30.6223L214.057 30.711L236.766 104.044L237.052 103.956ZM214.057 30.623L191.765 103.956L192.052 104.044L214.344 30.7103L214.057 30.623ZM191.909 104.15H236.909V103.85H191.909V104.15ZM377.898 49.8333L377.763 49.8987L377.817 50.0103L377.937 49.9782L377.898 49.8333ZM371.857 39.625L371.975 39.5329L371.975 39.5329L371.857 39.625ZM363.94 32.9583L363.861 33.0859L363.865 33.0879L363.94 32.9583ZM328.107 31.7083L328.029 31.58L328.029 31.5803L328.107 31.7083ZM322.273 37.3333L322.146 37.2537L322.143 37.2598L322.273 37.3333ZM323.315 51.2917L323.424 51.1886L323.421 51.1856L323.315 51.2917ZM340.398 59.2083L340.354 59.3517L340.357 59.3525L340.398 59.2083ZM366.44 66.7083L366.482 66.5643L366.482 66.5642L366.44 66.7083ZM382.69 72.9583L382.619 73.0908L382.625 73.0934L382.69 72.9583ZM394.148 80.875L394.045 80.9833L394.046 80.9843L394.148 80.875ZM404.565 95.4583L404.703 95.3984L404.703 95.3984L404.565 95.4583ZM402.898 132.125L403.03 132.197L403.03 132.197L402.898 132.125ZM388.732 147.542L388.65 147.416L388.649 147.417L388.732 147.542ZM370.607 155.042L370.576 154.895L370.576 154.895L370.607 155.042ZM319.357 152.542L319.302 152.681L319.305 152.682L319.357 152.542ZM298.315 136.917L298.198 137.011L298.198 137.011L298.315 136.917ZM284.773 107.75L284.735 107.605L284.594 107.643L284.628 107.785L284.773 107.75ZM313.523 100.042L313.671 100.016L313.643 99.8543L313.485 99.8968L313.523 100.042ZM321.023 118.583L321.144 118.493L321.14 118.489L321.023 118.583ZM332.898 127.542L332.841 127.68L332.842 127.681L332.898 127.542ZM361.44 129L361.478 129.145L361.481 129.144L361.44 129ZM372.065 124.208L371.977 124.087L371.976 124.088L372.065 124.208ZM373.523 101.5L373.425 101.613L373.425 101.614L373.523 101.5ZM360.19 94.8333L360.232 94.6894L360.232 94.6893L360.19 94.8333ZM332.273 86.7083L332.315 86.5643L332.313 86.5637L332.273 86.7083ZM303.523 72.75L303.623 72.6381L303.62 72.6351L303.523 72.75ZM293.732 59.625L293.593 59.6814L293.594 59.6845L293.732 59.625ZM297.482 21.5L297.358 21.415L297.482 21.5ZM314.982 6.70833L314.921 6.57125L314.92 6.57159L314.982 6.70833ZM329.982 2.12499L329.958 1.97693L329.957 1.97703L329.982 2.12499ZM346.648 0.874988L346.652 0.724988H346.648V0.874988ZM378.107 8.16666L378.178 8.03487L378.178 8.03473L378.107 8.16666ZM394.982 22.125L394.867 22.221L394.868 22.2224L394.982 22.125ZM406.648 42.125L406.687 42.2699L406.848 42.2268L406.789 42.0715L406.648 42.125ZM378.033 49.768C375.948 45.4572 373.928 42.0443 371.975 39.5329L371.738 39.7171C373.674 42.2057 375.683 45.5983 377.763 49.8987L378.033 49.768ZM371.975 39.5329C370.017 37.0149 367.362 34.7808 364.016 32.8288L363.865 33.0879C367.185 35.0247 369.808 37.2351 371.738 39.7171L371.975 39.5329ZM364.019 32.8308C358.162 29.2051 351.815 27.3917 344.982 27.3917V27.6917C351.759 27.6917 358.051 29.4893 363.861 33.0859L364.019 32.8308ZM344.982 27.3917C338.294 27.3917 332.641 28.785 328.029 31.58L328.185 31.8366C332.739 29.0761 338.336 27.6917 344.982 27.6917V27.3917ZM328.029 31.5803C325.511 33.1188 323.549 35.0096 322.146 37.2538L322.401 37.4128C323.776 35.2126 325.702 33.3534 328.185 31.8363L328.029 31.5803ZM322.143 37.2598C320.881 39.5026 320.248 41.8194 320.248 44.2083H320.548C320.548 41.875 321.166 39.6085 322.404 37.4069L322.143 37.2598ZM320.248 44.2083C320.248 47.0254 321.236 49.4248 323.209 51.3977L323.421 51.1856C321.505 49.2696 320.548 46.9468 320.548 44.2083H320.248ZM323.206 51.3947C324.406 52.6656 326.441 53.96 329.294 55.2819C332.149 56.6053 335.837 57.9617 340.354 59.3517L340.443 59.065C335.932 57.6772 332.259 56.3253 329.42 55.0097C326.578 53.6928 324.585 52.4177 323.424 51.1887L323.206 51.3947ZM340.357 59.3525L366.399 66.8525L366.482 66.5642L340.44 59.0642L340.357 59.3525ZM366.398 66.8523C373.059 68.7951 378.465 70.875 382.62 73.0907L382.761 72.826C378.582 70.5972 373.155 68.5104 366.482 66.5643L366.398 66.8523ZM382.625 73.0934C386.917 75.1701 390.723 77.8001 394.045 80.9833L394.252 80.7667C390.907 77.561 387.075 74.9132 382.755 72.8233L382.625 73.0934ZM394.046 80.9843C398.615 85.2769 402.075 90.1214 404.428 95.5183L404.703 95.3984C402.333 89.9619 398.848 85.0842 394.251 80.7657L394.046 80.9843ZM404.428 95.5183C406.78 100.915 407.957 106.659 407.957 112.75H408.257C408.257 106.619 407.072 100.835 404.703 95.3984L404.428 95.5183ZM407.957 112.75C407.957 119.25 406.228 125.684 402.767 132.053L403.03 132.197C406.513 125.788 408.257 119.306 408.257 112.75H407.957ZM402.767 132.053C399.306 138.421 394.601 143.541 388.65 147.416L388.814 147.667C394.807 143.765 399.546 138.607 403.03 132.197L402.767 132.053ZM388.649 147.417C383.249 151.017 377.225 153.51 370.576 154.895L370.637 155.189C377.322 153.796 383.382 151.289 388.815 147.666L388.649 147.417ZM370.576 154.895C364.061 156.281 356.433 156.975 347.69 156.975V157.275C356.448 157.275 364.097 156.58 370.638 155.188L370.576 154.895ZM347.69 156.975C337.149 156.975 327.722 155.449 319.408 152.401L319.305 152.682C327.658 155.745 337.12 157.275 347.69 157.275V156.975ZM319.411 152.402C311.243 149.217 304.25 144.025 298.432 136.822L298.198 137.011C304.047 144.252 311.082 149.477 319.302 152.681L319.411 152.402ZM298.432 136.823C292.198 129.065 287.693 119.365 284.919 107.715L284.628 107.785C287.409 119.469 291.932 129.212 298.198 137.011L298.432 136.823ZM284.812 107.895L313.562 100.187L313.485 99.8968L284.735 107.605L284.812 107.895ZM313.376 100.068C314.767 108 317.275 114.207 320.907 118.678L321.14 118.489C317.55 114.071 315.057 107.917 313.671 100.016L313.376 100.068ZM320.903 118.673C323.838 122.586 327.819 125.588 332.841 127.68L332.956 127.403C327.978 125.329 324.042 122.358 321.143 118.493L320.903 118.673ZM332.842 127.681C337.998 129.771 343.295 130.817 348.732 130.817V130.517C343.335 130.517 338.076 129.479 332.955 127.403L332.842 127.681ZM348.732 130.817C352.912 130.817 357.161 130.259 361.478 129.145L361.403 128.855C357.108 129.963 352.885 130.517 348.732 130.517V130.817ZM361.481 129.144C365.936 127.891 369.496 126.288 372.154 124.329L371.976 124.088C369.356 126.018 365.833 127.609 361.399 128.856L361.481 129.144ZM372.153 124.33C376.223 121.383 378.257 117.239 378.257 111.917H377.957C377.957 117.15 375.963 121.2 371.977 124.087L372.153 124.33ZM378.257 111.917C378.257 107.571 376.712 104.056 373.621 101.386L373.425 101.614C376.446 104.222 377.957 107.651 377.957 111.917H378.257ZM373.622 101.387C370.406 98.5903 365.94 96.3598 360.232 94.6894L360.148 94.9773C365.829 96.6402 370.252 98.8541 373.425 101.613L373.622 101.387ZM360.232 94.6893L332.315 86.5643L332.232 86.8524L360.148 94.9774L360.232 94.6893ZM332.313 86.5637C319.686 83.0948 310.127 78.4503 303.623 72.6381L303.423 72.8618C309.975 78.7164 319.583 83.3774 332.234 86.853L332.313 86.5637ZM303.62 72.6351C299.332 69.0389 296.082 64.6828 293.869 59.5655L293.594 59.6845C295.826 64.8449 299.104 69.2389 303.427 72.8649L303.62 72.6351ZM293.871 59.5686C291.795 54.4477 290.757 49.1196 290.757 43.5833H290.457C290.457 49.1582 291.502 54.5245 293.593 59.6814L293.871 59.5686ZM290.757 43.5833C290.757 35.5583 293.039 28.2268 297.605 21.585L297.358 21.415C292.758 28.1066 290.457 35.4973 290.457 43.5833H290.757ZM297.605 21.585C302.174 14.9399 307.986 10.0278 315.043 6.84507L314.92 6.57159C307.811 9.77778 301.956 14.7267 297.358 21.415L297.605 21.585ZM315.043 6.8454C320.032 4.62792 325.02 3.10405 330.006 2.27295L329.957 1.97703C324.944 2.81261 319.932 4.3443 314.921 6.57126L315.043 6.8454ZM330.006 2.27306C335.136 1.44118 340.683 1.02499 346.648 1.02499V0.724988C340.669 0.724988 335.106 1.14213 329.958 1.97693L330.006 2.27306ZM346.645 1.02495C359.128 1.30236 369.589 3.72945 378.035 8.29859L378.178 8.03473C369.68 3.43721 359.169 1.00318 346.652 0.725025L346.645 1.02495ZM378.035 8.29846C384.407 11.7612 390.017 16.4016 394.867 22.221L395.097 22.029C390.224 16.1817 384.585 11.5165 378.178 8.03487L378.035 8.29846ZM394.868 22.2224C399.717 27.9027 403.597 34.5541 406.508 42.1785L406.789 42.0715C403.866 34.4181 399.969 27.7362 395.096 22.0276L394.868 22.2224ZM406.61 41.9801L377.86 49.6884L377.937 49.9782L406.687 42.2699L406.61 41.9801ZM459.266 32.3333V32.1833H459.116V32.3333H459.266ZM459.266 64.8333H459.116V64.9833H459.266V64.8333ZM516.349 64.8333H516.499V64.6833H516.349V64.8333ZM516.349 93.1667V93.3167H516.499V93.1667H516.349ZM459.266 93.1667V93.0167H459.116V93.1667H459.266ZM459.266 125.667H459.116V125.817H459.266V125.667ZM528.849 125.667H528.999V125.517H528.849V125.667ZM528.849 154V154.15H528.999V154H528.849ZM430.932 154H430.782V154.15H430.932V154ZM430.932 3.99999V3.84999H430.782V3.99999H430.932ZM528.849 3.99999H528.999V3.84999H528.849V3.99999ZM528.849 32.3333V32.4833H528.999V32.3333H528.849ZM459.116 32.3333V64.8333H459.416V32.3333H459.116ZM459.266 64.9833H516.349V64.6833H459.266V64.9833ZM516.199 64.8333V93.1667H516.499V64.8333H516.199ZM516.349 93.0167H459.266V93.3167H516.349V93.0167ZM459.116 93.1667V125.667H459.416V93.1667H459.116ZM459.266 125.817H528.849V125.517H459.266V125.817ZM528.699 125.667V154H528.999V125.667H528.699ZM528.849 153.85H430.932V154.15H528.849V153.85ZM431.082 154V3.99999H430.782V154H431.082ZM430.932 4.14999H528.849V3.84999H430.932V4.14999ZM528.699 3.99999V32.3333H528.999V3.99999H528.699ZM528.849 32.1833H459.266V32.4833H528.849V32.1833ZM640.789 49.8333L640.654 49.8987L640.708 50.0103L640.828 49.9782L640.789 49.8333ZM634.747 39.625L634.866 39.5329L634.866 39.5329L634.747 39.625ZM626.831 32.9583L626.752 33.0859L626.755 33.0879L626.831 32.9583ZM590.997 31.7083L590.92 31.58L590.919 31.5803L590.997 31.7083ZM585.164 37.3333L585.037 37.2537L585.033 37.2598L585.164 37.3333ZM586.206 51.2917L586.315 51.1886L586.312 51.1856L586.206 51.2917ZM603.289 59.2083L603.245 59.3517L603.248 59.3525L603.289 59.2083ZM629.331 66.7083L629.373 66.5643L629.372 66.5642L629.331 66.7083ZM645.581 72.9583L645.51 73.0908L645.515 73.0934L645.581 72.9583ZM657.039 80.875L656.935 80.9833L656.936 80.9843L657.039 80.875ZM667.456 95.4583L667.593 95.3984L667.593 95.3984L667.456 95.4583ZM665.789 132.125L665.921 132.197L665.921 132.197L665.789 132.125ZM651.622 147.542L651.541 147.416L651.539 147.417L651.622 147.542ZM633.497 155.042L633.467 154.895L633.466 154.895L633.497 155.042ZM582.247 152.542L582.193 152.681L582.196 152.682L582.247 152.542ZM561.206 136.917L561.089 137.011L561.089 137.011L561.206 136.917ZM547.664 107.75L547.625 107.605L547.484 107.643L547.518 107.785L547.664 107.75ZM576.414 100.042L576.562 100.016L576.533 99.8543L576.375 99.8968L576.414 100.042ZM583.914 118.583L584.034 118.493L584.03 118.489L583.914 118.583ZM595.789 127.542L595.731 127.68L595.733 127.681L595.789 127.542ZM624.331 129L624.368 129.145L624.371 129.144L624.331 129ZM634.956 124.208L634.868 124.087L634.867 124.088L634.956 124.208ZM636.414 101.5L636.316 101.613L636.316 101.614L636.414 101.5ZM623.081 94.8333L623.123 94.6894L623.123 94.6893L623.081 94.8333ZM595.164 86.7083L595.206 86.5643L595.204 86.5637L595.164 86.7083ZM566.414 72.75L566.514 72.6381L566.51 72.6351L566.414 72.75ZM556.622 59.625L556.483 59.6814L556.485 59.6845L556.622 59.625ZM560.372 21.5L560.249 21.415L560.372 21.5ZM577.872 6.70833L577.811 6.57125L577.811 6.57159L577.872 6.70833ZM592.872 2.12499L592.848 1.97693L592.848 1.97703L592.872 2.12499ZM609.539 0.874988L609.542 0.724988H609.539V0.874988ZM640.997 8.16666L641.069 8.03487L641.069 8.03473L640.997 8.16666ZM657.872 22.125L657.757 22.221L657.758 22.2224L657.872 22.125ZM669.539 42.125L669.578 42.2699L669.739 42.2268L669.679 42.0715L669.539 42.125ZM640.924 49.768C638.838 45.4572 636.819 42.0443 634.866 39.5329L634.629 39.7171C636.565 42.2057 638.573 45.5983 640.654 49.8987L640.924 49.768ZM634.866 39.5329C632.907 37.0149 630.253 34.7808 626.906 32.8288L626.755 33.0879C630.075 35.0247 632.699 37.2351 634.629 39.7171L634.866 39.5329ZM626.91 32.8308C621.053 29.2051 614.706 27.3917 607.872 27.3917V27.6917C614.65 27.6917 620.942 29.4893 626.752 33.0859L626.91 32.8308ZM607.872 27.3917C601.185 27.3917 595.532 28.785 590.92 31.58L591.075 31.8366C595.63 29.0761 601.226 27.6917 607.872 27.6917V27.3917ZM590.919 31.5803C588.402 33.1188 586.439 35.0096 585.037 37.2538L585.291 37.4128C586.666 35.2126 588.593 33.3534 591.076 31.8363L590.919 31.5803ZM585.033 37.2598C583.772 39.5026 583.139 41.8194 583.139 44.2083H583.439C583.439 41.875 584.056 39.6085 585.295 37.4069L585.033 37.2598ZM583.139 44.2083C583.139 47.0254 584.127 49.4248 586.1 51.3977L586.312 51.1856C584.396 49.2696 583.439 46.9468 583.439 44.2083H583.139ZM586.097 51.3947C587.297 52.6656 589.332 53.96 592.184 55.2819C595.04 56.6053 598.727 57.9617 603.245 59.3517L603.333 59.065C598.823 57.6772 595.149 56.3253 592.31 55.0097C589.469 53.6928 587.476 52.4177 586.315 51.1887L586.097 51.3947ZM603.248 59.3525L629.289 66.8525L629.372 66.5642L603.331 59.0642L603.248 59.3525ZM629.289 66.8523C635.95 68.7951 641.356 70.875 645.51 73.0907L645.651 72.826C641.472 70.5972 636.045 68.5104 629.373 66.5643L629.289 66.8523ZM645.515 73.0934C649.807 75.1701 653.614 77.8001 656.935 80.9833L657.143 80.7667C653.798 77.561 649.965 74.9132 645.646 72.8233L645.515 73.0934ZM656.936 80.9843C661.506 85.2769 664.966 90.1214 667.318 95.5183L667.593 95.3984C665.223 89.9619 661.739 85.0842 657.142 80.7657L656.936 80.9843ZM667.318 95.5183C669.671 100.915 670.847 106.659 670.847 112.75H671.147C671.147 106.619 669.963 100.835 667.593 95.3984L667.318 95.5183ZM670.847 112.75C670.847 119.25 669.119 125.684 665.657 132.053L665.921 132.197C669.404 125.788 671.147 119.306 671.147 112.75H670.847ZM665.657 132.053C662.197 138.421 657.491 143.541 651.541 147.416L651.704 147.667C657.698 143.765 662.437 138.607 665.921 132.197L665.657 132.053ZM651.539 147.417C646.139 151.017 640.116 153.51 633.467 154.895L633.528 155.189C640.213 153.796 646.272 151.289 651.706 147.666L651.539 147.417ZM633.466 154.895C626.951 156.281 619.323 156.975 610.581 156.975V157.275C619.338 157.275 626.988 156.58 633.529 155.188L633.466 154.895ZM610.581 156.975C600.04 156.975 590.613 155.449 582.299 152.401L582.196 152.682C590.548 155.745 600.011 157.275 610.581 157.275V156.975ZM582.302 152.402C574.133 149.217 567.14 144.025 561.322 136.822L561.089 137.011C566.938 144.252 573.973 149.477 582.193 152.681L582.302 152.402ZM561.323 136.823C555.089 129.065 550.584 119.365 547.81 107.715L547.518 107.785C550.3 119.469 554.822 129.212 561.089 137.011L561.323 136.823ZM547.703 107.895L576.453 100.187L576.375 99.8968L547.625 107.605L547.703 107.895ZM576.266 100.068C577.658 108 580.165 114.207 583.798 118.678L584.03 118.489C580.441 114.071 577.948 107.917 576.562 100.016L576.266 100.068ZM583.794 118.673C586.729 122.586 590.71 125.588 595.731 127.68L595.847 127.403C590.869 125.329 586.933 122.358 584.034 118.493L583.794 118.673ZM595.733 127.681C600.889 129.771 606.186 130.817 611.622 130.817V130.517C606.226 130.517 600.967 129.479 595.845 127.403L595.733 127.681ZM611.622 130.817C615.803 130.817 620.051 130.259 624.368 129.145L624.293 128.855C619.999 129.963 615.776 130.517 611.622 130.517V130.817ZM624.371 129.144C628.827 127.891 632.387 126.288 635.045 124.329L634.867 124.088C632.247 126.018 628.724 127.609 624.29 128.856L624.371 129.144ZM635.044 124.33C639.113 121.383 641.147 117.239 641.147 111.917H640.847C640.847 117.15 638.854 121.2 634.868 124.087L635.044 124.33ZM641.147 111.917C641.147 107.571 639.603 104.056 636.512 101.386L636.316 101.614C639.336 104.222 640.847 107.651 640.847 111.917H641.147ZM636.512 101.387C633.297 98.5903 628.83 96.3598 623.123 94.6894L623.039 94.9773C628.72 96.6402 633.143 98.8541 636.316 101.613L636.512 101.387ZM623.123 94.6893L595.206 86.5643L595.122 86.8524L623.039 94.9774L623.123 94.6893ZM595.204 86.5637C582.577 83.0948 573.018 78.4503 566.514 72.6381L566.314 72.8618C572.866 78.7164 582.473 83.3774 595.124 86.853L595.204 86.5637ZM566.51 72.6351C562.223 69.0389 558.973 64.6828 556.76 59.5655L556.485 59.6845C558.716 64.8449 561.994 69.2389 566.318 72.8649L566.51 72.6351ZM556.761 59.5686C554.685 54.4477 553.647 49.1196 553.647 43.5833H553.347C553.347 49.1582 554.393 54.5245 556.483 59.6814L556.761 59.5686ZM553.647 43.5833C553.647 35.5583 555.93 28.2268 560.496 21.585L560.249 21.415C555.648 28.1066 553.347 35.4973 553.347 43.5833H553.647ZM560.496 21.585C565.064 14.9399 570.877 10.0278 577.934 6.84507L577.811 6.57159C570.701 9.77778 564.847 14.7267 560.249 21.415L560.496 21.585ZM577.933 6.8454C582.923 4.62792 587.911 3.10405 592.897 2.27295L592.848 1.97703C587.834 2.81261 582.822 4.3443 577.811 6.57126L577.933 6.8454ZM592.896 2.27306C598.026 1.44118 603.574 1.02499 609.539 1.02499V0.724988C603.56 0.724988 597.996 1.14213 592.848 1.97693L592.896 2.27306ZM609.536 1.02495C622.019 1.30236 632.48 3.72945 640.926 8.29859L641.069 8.03473C632.57 3.43721 622.059 1.00318 609.542 0.725025L609.536 1.02495ZM640.926 8.29846C647.297 11.7612 652.908 16.4016 657.757 22.221L657.988 22.029C653.115 16.1817 647.475 11.5165 641.069 8.03487L640.926 8.29846ZM657.758 22.2224C662.607 27.9027 666.488 34.5541 669.399 42.1785L669.679 42.0715C666.757 34.4181 662.86 27.7362 657.986 22.0276L657.758 22.2224ZM669.5 41.9801L640.75 49.6884L640.828 49.9782L669.578 42.2699L669.5 41.9801Z" fill="white"/>
</g>
</svg>
