<svg width="672px" height="158px" xmlns="http://www.w3.org/2000/svg" viewBox="0 0 672 158"><g opacity=".1" fill="#fff"><path d="M140.8 110.3c-2.9 8.5-7 15.9-12.3 22.3-6.7 8.1-14.9 14.2-24.6 18.3-9.6 4.2-19.8 6.3-30.6 6.3-11.1 0-21.5-2.2-31.3-6.5-9.7-4.3-17.7-10.3-24-18.1C6.2 118.2.3 100.4.3 79 .3 57.3 6.2 39.4 18 25.2c6.4-8.1 14.4-14.1 24-18.1C51.7 3 62.1.9 73.3.9s21.5 2.1 31 6.3c9.6 4.2 17.6 10.2 24.2 18.1 6.1 7.6 10.7 16.5 13.8 26.7l-29.2 5c-1.9-6.1-4.3-10.9-7.1-14.4-3.6-4.9-8.3-8.6-14.2-11.2-5.8-2.6-12-4-18.5-4-6.7 0-12.9 1.3-18.8 4-5.7 2.6-10.3 6.4-14 11.2C34 50.9 30.6 63 30.3 79c.3 15.8 3.7 28 10.2 36.5 3.5 4.9 8.1 8.6 13.8 11.3 5.7 2.5 11.7 3.7 18.1 3.7 6.8 0 13.1-1.3 19-3.7 6-2.5 10.8-6.3 14.6-11.3 2.9-4 5.1-8.5 6.7-13.3l28.1 8.1zM245 130.7h-61.3l-7.1 23.3h-29.2l46-150h42.3l45.8 150h-29.2l-7.3-23.3zm-8.1-26.7l-22.7-73.3-22.3 73.3h45zm141-54.2c-2.1-4.3-4.1-7.7-6-10.2-1.9-2.5-4.6-4.7-7.9-6.7-5.8-3.6-12.2-5.4-19-5.4-6.7 0-12.3 1.4-16.9 4.2-2.5 1.5-4.4 3.4-5.8 5.6-1.3 2.2-1.9 4.5-1.9 6.9 0 2.8 1 5.1 2.9 7.1 2.4 2.5 8.1 5.1 17.1 7.9l26 7.5c6.7 1.9 12.1 4 16.3 6.3 4.3 2.1 8.1 4.7 11.5 7.9 4.6 4.3 8.1 9.2 10.4 14.6 2.4 5.4 3.5 11.2 3.5 17.3 0 6.5-1.7 13-5.2 19.4-3.5 6.4-8.2 11.5-14.2 15.4-5.4 3.6-11.5 6.1-18.1 7.5-6.5 1.4-14.2 2.1-22.9 2.1-10.6 0-20-1.5-28.3-4.6-8.2-3.2-15.2-8.4-21-15.6-6.3-7.8-10.8-17.5-13.5-29.2l28.8-7.7c1.4 7.9 3.9 14.1 7.5 18.5 2.9 3.9 6.9 6.9 11.9 9 5.1 2.1 10.4 3.1 15.8 3.1 4.2 0 8.4-.6 12.7-1.7 4.4-1.3 8-2.8 10.6-4.8 4-2.9 6-7 6-12.3 0-4.3-1.5-7.8-4.6-10.4-3.2-2.8-7.6-5-13.3-6.7l-27.9-8.1c-12.6-3.5-22.2-8.1-28.8-14-4.3-3.6-7.6-8-9.8-13.1-2.1-5.1-3.1-10.5-3.1-16 0-8.1 2.3-15.4 6.9-22.1 4.6-6.7 10.4-11.6 17.5-14.8 5-2.2 10-3.8 15-4.6 5.1-.8 10.7-1.3 16.7-1.3 12.5.3 23 2.7 31.5 7.3 6.4 3.5 12 8.1 16.9 14 4.9 5.7 8.8 12.4 11.7 20l-29 7.7zm81.4-17.5v32.5h57.1v28.3h-57.1v32.5h69.6V154H431V4h97.9v28.3h-69.6zm181.5 17.5c-2.1-4.3-4.1-7.7-6-10.2-1.9-2.5-4.6-4.7-7.9-6.7-5.8-3.6-12.2-5.4-19-5.4-6.7 0-12.3 1.4-16.9 4.2-2.5 1.5-4.4 3.4-5.8 5.6-1.3 2.2-1.9 4.5-1.9 6.9 0 2.8 1 5.1 2.9 7.1 2.4 2.5 8.1 5.1 17.1 7.9l26 7.5c6.7 1.9 12.1 4 16.3 6.3 4.3 2.1 8.1 4.7 11.5 7.9 4.6 4.3 8.1 9.2 10.4 14.6 2.4 5.4 3.5 11.2 3.5 17.3 0 6.5-1.7 13-5.2 19.4-3.5 6.4-8.2 11.5-14.2 15.4-5.4 3.6-11.5 6.1-18.1 7.5-6.5 1.4-14.2 2.1-22.9 2.1-10.6 0-20-1.5-28.3-4.6-8.2-3.2-15.2-8.4-21-15.6-6.3-7.8-10.8-17.5-13.5-29.2l28.8-7.7c1.4 7.9 3.9 14.1 7.5 18.5 2.9 3.9 6.9 6.9 11.9 9 5.1 2.1 10.4 3.1 15.8 3.1 4.2 0 8.4-.6 12.7-1.7 4.4-1.3 8-2.8 10.6-4.8 4-2.9 6-7 6-12.3 0-4.3-1.5-7.8-4.6-10.4-3.2-2.8-7.6-5-13.3-6.7l-27.9-8.1c-12.6-3.5-22.2-8.1-28.8-14-4.3-3.6-7.6-8-9.8-13.1-2.1-5.1-3.1-10.5-3.1-16 0-8.1 2.3-15.4 6.9-22.1 4.6-6.7 10.4-11.6 17.5-14.8 5-2.2 10-3.8 15-4.6 5.1-.8 10.7-1.3 16.7-1.3 12.5.3 23 2.7 31.5 7.3 6.4 3.5 12 8.1 16.9 14 4.9 5.7 8.8 12.4 11.7 20l-29 7.7z" fill-opacity=".01"/><path d="M140.8 110.3h.1l.1-.1h-.2v.1zm-12.3 22.2l.1.1-.1-.1zm-24.6 18.4l-.1-.1.1.1zm-61.9-.2l-.1.1.1-.1zm-24-18.2l.1-.1-.1.1zm0-107.2l.1.1-.1-.1zM42 7.1l.1.1-.1-.1zm62.3 0l-.1.1.1-.1zm24.2 18.2l.1-.1-.1.1zm13.7 26.6v.1h.2v-.2l-.2.1zm-29.2 5h-.1v.1h.1v-.1zm-7-14.4l-.1.1.1-.1zM91.8 31.3l-.1.1.1-.1zm-37.3 0l-.1-.1.1.1zm-14 11.2l.1.1-.1-.1zM30.3 79h-.1.1zm10.2 36.5l.1-.1-.1.1zm13.8 11.2l-.1.1.1-.1zm37.1 0l-.1-.1.1.1zm14.6-11.2l.1.1-.1-.1zm6.6-13.4v-.1h-.1v.1h.1zm28 8.1c-2.9 8.5-7 15.9-12.3 22.2l.2.2c5.3-6.4 9.4-13.8 12.3-22.3l-.2-.1zm-12.3 22.2c-6.7 8-14.8 14.1-24.5 18.3l.1.3c9.7-4.2 18-10.3 24.6-18.4l-.2-.2zm-24.5 18.3c-9.6 4.2-19.8 6.2-30.6 6.2v.3c10.9 0 21.1-2.1 30.7-6.3l-.1-.2zM73.3 157c-11.1 0-21.5-2.1-31.2-6.4l-.1.3c9.7 4.3 20.2 6.5 31.3 6.5v-.4zm-31.2-6.5c-9.7-4.3-17.7-10.3-23.9-18.1l-.2.2c6.3 7.8 14.3 13.9 24 18.2l.1-.3zm-23.9-18.1C6.4 118.2.5 100.4.5 79H.2c0 21.4 5.9 39.3 17.7 53.6l.3-.2zM.5 79c0-21.6 5.9-39.5 17.7-53.7l-.2-.2C6.1 39.4.2 57.3.2 79h.3zm17.7-53.7c6.4-8 14.3-14.1 23.9-18.1l-.2-.2c-9.6 4-17.6 10.1-24 18.2l.3.1zm23.9-18C51.8 3.1 62.2 1 73.3 1V.7C62.1.7 51.7 2.8 41.9 7l.2.3zM73.3 1c11.1 0 21.4 2.1 31 6.2l.1-.3C94.8 2.7 84.4.6 73.3.6V1zm30.9 6.3c9.6 4.2 17.6 10.2 24.1 18.1l.2-.2c-6.5-8-14.5-14-24.1-18.2l-.2.3zm24.1 18C134.4 33 139 41.8 142.1 52l.3-.1c-3.1-10.2-7.7-19.1-13.8-26.7l-.3.1zm13.9 26.5l-29.2 5 .1.3 29.2-5-.1-.3zm-29 5.1c-1.9-6.1-4.3-10.9-7.1-14.4l-.2.2c2.8 3.5 5.1 8.2 7.1 14.3l.2-.1zm-7.1-14.4c-3.6-4.9-8.4-8.6-14.2-11.3l-.1.3c5.8 2.6 10.5 6.4 14.1 11.2l.2-.2zM91.9 31.2c-5.9-2.6-12.1-4-18.6-4v.3c6.5 0 12.7 1.3 18.5 3.9l.1-.2zm-18.6-4c-6.7 0-13 1.3-18.8 4l.1.3c5.8-2.6 12-3.9 18.7-3.9v-.4zm-18.9 4c-5.7 2.6-10.4 6.4-14 11.3l.2.2c3.6-4.8 8.2-8.6 13.9-11.2l-.1-.3zm-14 11.2C33.9 50.8 30.5 63 30.2 79h.3c.3-16 3.7-28.1 10.2-36.4l-.3-.2zM30.2 79c.3 15.9 3.7 28 10.2 36.5l.2-.2c-6.5-8.4-9.9-20.6-10.2-36.4l-.2.1zm10.2 36.5c3.5 4.9 8.1 8.6 13.8 11.3l.1-.3c-5.7-2.6-10.2-6.4-13.7-11.2l-.2.2zm13.8 11.3c5.7 2.5 11.8 3.8 18.2 3.8v-.3c-6.4 0-12.4-1.2-18.1-3.7l-.1.2zm18.2 3.8c6.8 0 13.2-1.3 19-3.8l-.1-.3c-5.8 2.5-12.1 3.7-18.9 3.7v.4zm19-3.8c6-2.5 10.9-6.3 14.6-11.3l-.2-.2c-3.7 5-8.6 8.7-14.5 11.2l.1.3zm14.7-11.3c2.9-4 5.2-8.5 6.7-13.4l-.3-.1c-1.5 4.8-3.7 9.3-6.6 13.3l.2.2zm6.5-13.2l28.1 8.1.1-.3-28.1-8.1-.1.3zM245 130.7h.1v-.1h-.1v.1zm-61.2 0v-.2h-.1v.1l.1.1zm-7.1 23.3v.1h.1v-.1h-.1zm-29.2 0h-.1l-.1.2h.2v-.2zM193.4 4v-.2h-.1v.1l.1.1zm42.3 0h.1v-.1h-.1V4zm45.8 150v.1h.2l-.1-.2-.1.1zm-29.2 0h-.1v.1h.1v-.1zm-15.4-50v.2h.2l-.1-.2h-.1zm-22.7-73.3h.1l-.1-.5-.1.5h.1zM191.9 104h-.1l-.1.2h.2v-.2zm53.1 26.5h-61.3v.3H245v-.3zm-61.4.1l-7.1 23.3.3.1 7.1-23.3-.3-.1zm-6.9 23.3h-29.2v.3h29.2v-.3zm-29 .1L193.5 4h-.3l-45.8 150h.3zM193.4 4.1h42.3v-.3h-42.3v.3zm42.1-.1l45.8 150 .3-.1L235.8 4h-.3zm46 149.9h-29.2v.3h29.2v-.3zm-29 .1l-7.3-23.3-.3.1 7.3 23.3.3-.1zm-15.4-50l-22.7-73.3-.3.1 22.7 73.3.3-.1zm-23-73.4L191.8 104l.3.1 22.3-73.3-.3-.2zm-22.2 73.6h45v-.3h-45v.3zm186-54.4l-.1.1.1.1h.1l-.1-.2zm-6-10.2l.1-.1-.1.1zm-8-6.6l-.1.1.1-.1zm-35.8-1.3l-.1-.1.1.1zm-5.8 5.6l-.1-.1.1.1zm1 14l.1-.1-.1.1zm17.1 7.9v.1-.1zm26 7.5v-.1.1zm16.3 6.3l-.1.1.1-.1zm11.4 7.9l-.1.1.1-.1zm10.5 14.6l.1-.1-.1.1zm-1.7 36.6l.1.1-.1-.1zm-14.2 15.4l-.1-.1.1.1zm-18.1 7.5v-.1.1zm-51.2-2.5l-.1.1.1-.1zm-21.1-15.6l-.1.1.1-.1zm-13.5-29.1v-.1h-.1v.1h.1zm28.7-7.8h.1v-.2h-.2l.1.2zm7.5 18.6l.1-.1-.1.1zm11.9 8.9l-.1.1.1-.1zm28.5 1.5v.1-.1zm10.7-4.8l-.1-.1.1.1zm1.4-22.7l-.1.1.1-.1zm-13.3-6.7v-.1.1zm-27.9-8.1v-.1.1zm-28.8-13.9l.1-.1-.1.1zm-9.8-13.2l-.1.1.1-.1zm3.8-38.1l-.1-.1.1.1zM315 6.7l-.1-.1.1.1zm15-4.6V2v.1zM346.6.9V.7v.2zm31.5 7.3l.1-.1-.1.1zM395 22.1l-.1.1.1-.1zm11.6 20v.1h.2l-.1-.2-.1.1zM378 49.8c-2.1-4.3-4.1-7.7-6.1-10.2l-.2.2c1.9 2.5 3.9 5.9 6 10.2l.3-.2zm-6-10.3c-2-2.5-4.6-4.8-8-6.7l-.2.3c3.3 1.9 5.9 4.1 7.9 6.6l.3-.2zm-8-6.7c-5.9-3.6-12.2-5.4-19-5.4v.3c6.8 0 13.1 1.8 18.9 5.4l.1-.3zm-19-5.4c-6.7 0-12.3 1.4-17 4.2l.2.3c4.6-2.8 10.2-4.1 16.8-4.1v-.4zm-17 4.2c-2.5 1.5-4.5 3.4-5.9 5.7l.3.2c1.4-2.2 3.3-4.1 5.8-5.6l-.2-.3zm-5.9 5.7c-1.3 2.2-1.9 4.6-1.9 6.9h.3c0-2.3.6-4.6 1.9-6.8l-.3-.1zm-1.9 6.9c0 2.8 1 5.2 3 7.2l.2-.2c-1.9-1.9-2.9-4.2-2.9-7h-.3zm3 7.2c1.2 1.3 3.2 2.6 6.1 3.9 2.9 1.3 6.5 2.7 11.1 4.1l.1-.3c-4.5-1.4-8.2-2.7-11-4.1-2.8-1.3-4.8-2.6-6-3.8l-.3.2zm17.2 8l26 7.5.1-.3-26-7.5-.1.3zm26 7.5c6.7 1.9 12.1 4 16.2 6.2l.1-.3c-4.2-2.2-9.6-4.3-16.3-6.3v.4zm16.2 6.2c4.3 2.1 8.1 4.7 11.4 7.9l.2-.2c-3.3-3.2-7.2-5.9-11.5-7.9l-.1.2zM394 81c4.6 4.3 8 9.1 10.4 14.5l.3-.1c-2.4-5.4-5.9-10.3-10.5-14.6l-.2.2zm10.4 14.5c2.4 5.4 3.5 11.1 3.5 17.2h.3c0-6.1-1.2-11.9-3.6-17.4l-.2.2zm3.6 17.3c0 6.5-1.7 12.9-5.2 19.3l.3.1c3.5-6.4 5.2-12.9 5.2-19.4h-.3zm-5.2 19.3c-3.5 6.4-8.2 11.5-14.1 15.4l.2.3c6-3.9 10.7-9.1 14.2-15.5l-.3-.2zm-14.2 15.3c-5.4 3.6-11.4 6.1-18.1 7.5l.1.3c6.7-1.4 12.7-3.9 18.2-7.5l-.2-.3zm-18 7.5c-6.5 1.4-14.1 2.1-22.9 2.1v.3c8.8 0 16.4-.7 22.9-2.1v-.3zm-22.9 2.1c-10.5 0-20-1.5-28.3-4.6l-.1.3c8.4 3.1 17.8 4.6 28.4 4.6v-.3zm-28.3-4.6c-8.2-3.2-15.2-8.4-21-15.6l-.2.2c5.8 7.2 12.9 12.5 21.1 15.7l.1-.3zm-21-15.6c-6.2-7.8-10.7-17.5-13.5-29.1l-.3.1c2.8 11.7 7.3 21.4 13.6 29.2l.2-.2zm-13.6-28.9l28.8-7.7-.1-.3-28.8 7.7.1.3zm28.6-7.8c1.4 7.9 3.9 14.1 7.5 18.6l.2-.2c-3.6-4.4-6.1-10.6-7.5-18.5l-.2.1zm7.5 18.6c2.9 3.9 6.9 6.9 11.9 9l.1-.3c-5-2.1-8.9-5-11.8-8.9l-.2.2zm11.9 9c5.2 2.1 10.5 3.1 15.9 3.1v-.3c-5.4 0-10.7-1-15.8-3.1l-.1.3zm15.9 3.1c4.2 0 8.4-.6 12.7-1.7l-.1-.3c-4.3 1.1-8.5 1.7-12.7 1.7v.3zm12.8-1.7c4.5-1.3 8-2.9 10.7-4.8l-.2-.2c-2.6 1.9-6.1 3.5-10.6 4.8l.1.2zm10.7-4.8c4.1-2.9 6.1-7.1 6.1-12.4h-.3c0 5.2-2 9.3-6 12.2l.2.2zm6.1-12.4c0-4.3-1.5-7.9-4.6-10.5l-.2.2c3 2.6 4.5 6 4.5 10.3h.3zm-4.7-10.5c-3.2-2.8-7.7-5-13.4-6.7l-.1.3c5.7 1.7 10.1 3.9 13.3 6.6l.2-.2zm-13.4-6.7l-27.9-8.1-.1.3 27.9 8.1.1-.3zm-27.9-8.1c-12.6-3.5-22.2-8.1-28.7-13.9l-.2.2c6.6 5.9 16.2 10.5 28.8 14l.1-.3zm-28.7-14c-4.3-3.6-7.5-8-9.8-13.1l-.3.1c2.2 5.2 5.5 9.6 9.8 13.2l.3-.2zm-9.7-13c-2.1-5.1-3.1-10.4-3.1-16h-.3c0 5.6 1 10.9 3.1 16.1l.3-.1zm-3.1-16c0-8 2.3-15.4 6.8-22l-.2-.2c-4.6 6.7-6.9 14.1-6.9 22.2h.3zm6.8-22C302.2 14.9 308 10 315 6.8l-.1-.3c-7.1 3.2-13 8.2-17.6 14.8l.3.3zM315 6.8c5-2.2 10-3.7 15-4.6v-.3c-5 .8-10 2.4-15 4.6v.3zm15-4.5c5.1-.8 10.7-1.2 16.6-1.2V.7c-6 0-11.5.4-16.7 1.3l.1.3zM346.6 1c12.5.3 22.9 2.7 31.4 7.3l.1-.3c-8.5-4.6-19-7-31.5-7.3V1zM378 8.3c6.4 3.5 12 8.1 16.8 13.9l.2-.2c-4.9-5.8-10.5-10.5-16.9-14l-.1.3zm16.9 13.9c4.8 5.7 8.7 12.3 11.6 20l.3-.1c-2.9-7.7-6.8-14.3-11.7-20l-.2.1zM406.6 42l-28.8 7.7.1.3 28.8-7.7-.1-.3zm52.7-9.7v-.2h-.1v.2h.1zm0 32.5h-.1v.2h.1v-.2zm57 0h.2v-.2h-.2v.2zm0 28.4v.2h.2v-.2h-.2zm-57 0V93h-.1v.2h.1zm0 32.5h-.1v.2h.1v-.2zm69.5 0h.2v-.2h-.2v.2zm0 28.3v.1h.2v-.1h-.2zm-97.9 0h-.1v.1h.1v-.1zm0-150v-.2h-.1V4h.1zm97.9 0h.2v-.2h-.2V4zm0 28.3v.1h.2v-.1h-.2zm-69.7 0v32.5h.3V32.3h-.3zm.2 32.7h57.1v-.3h-57.1v.3zm56.9-.2v28.3h.3V64.8h-.3zm.1 28.2h-57.1v.3h57.1V93zm-57.2.2v32.5h.3V93.2h-.3zm.2 32.6h69.6v-.3h-69.6v.3zm69.4-.1V154h.3v-28.3h-.3zm.1 28.2h-97.9v.3h97.9v-.3zm-97.7.1V4h-.3v150h.3zm-.2-149.9h97.9v-.3h-97.9v.3zm97.8-.1v28.3h.3V4h-.3zm.1 28.2h-69.6v.3h69.6v-.3zm112 17.6l-.1.1.1.1h.1l-.1-.2zm-6.1-10.2l.1-.1-.1.1zm-7.9-6.6l-.1.1.1-.1zM591 31.7l-.1-.1.1.1zm-5.8 5.6l-.1-.1.1.1zm1 14l.1-.1-.1.1zm17.1 7.9v.1-.1zm26 7.5v-.1.1zm16.3 6.3l-.1.1.1-.1zm11.4 7.9l-.1.1.1-.1zm10.5 14.6l.1-.1-.1.1zm-1.7 36.6l.1.1-.1-.1zm-14.2 15.4l-.1-.1.1.1zm-18.1 7.5v-.1.1zm-51.3-2.5l-.1.1.1-.1zm-21-15.6l-.1.1.1-.1zm-13.5-29.1v-.1h-.1v.1h.1zm28.7-7.8h.1v-.2h-.2l.1.2zm7.5 18.6l.1-.1-.1.1zm11.9 8.9l-.1.1.1-.1zm28.5 1.5v.1-.1zm10.7-4.8l-.1-.1.1.1zm1.4-22.7l-.1.1.1-.1zm-13.3-6.7v-.1.1zm-27.9-8.1v-.1.1zm-28.8-13.9l.1-.1-.1.1zm-9.8-13.2l-.1.1.1-.1zm3.8-38.1l-.1-.1.1.1zm17.5-14.8l-.1-.1.1.1zm15-4.6V2v.1zM609.5.9V.7v.2zM641 8.2l.1-.1-.1.1zm16.9 13.9l-.1.1.1-.1zm11.6 20v.1h.2l-.1-.2-.1.1zm-28.6 7.7c-2.1-4.3-4.1-7.7-6.1-10.2l-.2.2c1.9 2.5 3.9 5.9 6 10.2l.3-.2zm-6-10.3c-2-2.5-4.6-4.8-8-6.7l-.2.3c3.3 1.9 5.9 4.1 7.9 6.6l.3-.2zm-8-6.7c-5.9-3.6-12.2-5.4-19-5.4v.3c6.8 0 13.1 1.8 18.9 5.4l.1-.3zm-19-5.4c-6.7 0-12.3 1.4-17 4.2l.2.3c4.6-2.8 10.2-4.1 16.8-4.1v-.4zm-17 4.2c-2.5 1.5-4.5 3.4-5.9 5.7l.3.2c1.4-2.2 3.3-4.1 5.8-5.6l-.2-.3zm-5.9 5.7c-1.3 2.2-1.9 4.6-1.9 6.9h.3c0-2.3.6-4.6 1.9-6.8l-.3-.1zm-1.9 6.9c0 2.8 1 5.2 3 7.2l.2-.2c-1.9-1.9-2.9-4.2-2.9-7h-.3zm3 7.2c1.2 1.3 3.2 2.6 6.1 3.9 2.9 1.3 6.5 2.7 11.1 4.1l.1-.3c-4.5-1.4-8.2-2.7-11-4.1-2.8-1.3-4.8-2.6-6-3.8l-.3.2zm17.1 8l26 7.5.1-.3-26-7.5-.1.3zm26.1 7.5c6.7 1.9 12.1 4 16.2 6.2l.1-.3c-4.2-2.2-9.6-4.3-16.3-6.3v.4zm16.2 6.2c4.3 2.1 8.1 4.7 11.4 7.9l.2-.2c-3.3-3.2-7.2-5.9-11.5-7.9l-.1.2zm11.4 7.9c4.6 4.3 8 9.1 10.4 14.5l.3-.1c-2.4-5.4-5.9-10.3-10.5-14.6l-.2.2zm10.4 14.5c2.4 5.4 3.5 11.1 3.5 17.2h.3c0-6.1-1.2-11.9-3.6-17.4l-.2.2zm3.5 17.3c0 6.5-1.7 12.9-5.2 19.3l.3.1c3.5-6.4 5.2-12.9 5.2-19.4h-.3zm-5.1 19.3c-3.5 6.4-8.2 11.5-14.1 15.4l.2.3c6-3.9 10.7-9.1 14.2-15.5l-.3-.2zm-14.2 15.3c-5.4 3.6-11.4 6.1-18.1 7.5l.1.3c6.7-1.4 12.7-3.9 18.2-7.5l-.2-.3zm-18 7.5c-6.5 1.4-14.1 2.1-22.9 2.1v.3c8.8 0 16.4-.7 22.9-2.1v-.3zm-22.9 2.1c-10.5 0-20-1.5-28.3-4.6l-.1.3c8.4 3.1 17.8 4.6 28.4 4.6v-.3zm-28.3-4.6c-8.2-3.2-15.2-8.4-21-15.6l-.2.2c5.8 7.2 12.9 12.5 21.1 15.7l.1-.3zm-21-15.6c-6.2-7.8-10.7-17.5-13.5-29.1l-.3.1c2.8 11.7 7.3 21.4 13.6 29.2l.2-.2zm-13.6-28.9l28.8-7.7-.1-.3-28.8 7.7.1.3zm28.6-7.8c1.4 7.9 3.9 14.1 7.5 18.6l.2-.2c-3.6-4.4-6.1-10.6-7.5-18.5l-.2.1zm7.5 18.6c2.9 3.9 6.9 6.9 11.9 9l.1-.3c-5-2.1-8.9-5-11.8-8.9l-.2.2zm11.9 9c5.2 2.1 10.5 3.1 15.9 3.1v-.3c-5.4 0-10.7-1-15.8-3.1l-.1.3zm15.9 3.1c4.2 0 8.4-.6 12.7-1.7l-.1-.3c-4.3 1.1-8.5 1.7-12.7 1.7v.3zm12.8-1.7c4.5-1.3 8-2.9 10.7-4.8l-.2-.2c-2.6 1.9-6.1 3.5-10.6 4.8l.1.2zm10.6-4.8c4.1-2.9 6.1-7.1 6.1-12.4h-.3c0 5.2-2 9.3-6 12.2l.2.2zm6.1-12.4c0-4.3-1.5-7.9-4.6-10.5l-.2.2c3 2.6 4.5 6 4.5 10.3h.3zm-4.6-10.5c-3.2-2.8-7.7-5-13.4-6.7l-.1.3c5.7 1.7 10.1 3.9 13.3 6.6l.2-.2zm-13.4-6.7l-27.9-8.1-.1.3L623 95l.1-.3zm-27.9-8.1c-12.6-3.5-22.2-8.1-28.7-13.9l-.2.2c6.6 5.9 16.2 10.5 28.8 14l.1-.3zm-28.7-14c-4.3-3.6-7.5-8-9.8-13.1l-.3.1c2.2 5.2 5.5 9.6 9.8 13.2l.3-.2zm-9.7-13c-2.1-5.1-3.1-10.4-3.1-16h-.3c0 5.6 1 10.9 3.1 16.1l.3-.1zm-3.2-16c0-8 2.3-15.4 6.8-22l-.2-.2c-4.6 6.7-6.9 14.1-6.9 22.2h.3zm6.9-22c4.6-6.6 10.4-11.6 17.4-14.7l-.1-.3c-7.1 3.2-13 8.2-17.6 14.8l.3.2zm17.4-14.8c5-2.2 10-3.7 15-4.6v-.3c-5 .8-10 2.4-15 4.6v.3zm15-4.5C598 1.4 603.6 1 609.5 1V.7c-6 0-11.5.4-16.7 1.3l.1.3zM609.5 1c12.5.3 22.9 2.7 31.4 7.3l.1-.3c-8.5-4.6-19-7-31.5-7.3V1zm31.4 7.3c6.4 3.5 12 8.1 16.8 13.9l.3-.2c-4.9-5.8-10.5-10.5-16.9-14l-.2.3zm16.9 13.9c4.8 5.7 8.7 12.3 11.6 20l.3-.1c-2.9-7.7-6.8-14.3-11.7-20l-.2.1zM669.5 42l-28.8 7.7.1.3 28.8-7.7-.1-.3z"/></g></svg>
