<svg width="74" height="72" viewBox="0 0 74 72" fill="none" xmlns="http://www.w3.org/2000/svg">
<g clip-path="url(#clip0)">
<path fill-rule="evenodd" clip-rule="evenodd" d="M49.2251 22.6681C49.2251 21.088 53.464 18.9306 60.468 18.6571C59.9818 18.6419 59.4653 18.6267 58.9487 18.6267C51.0483 18.6267 46.1865 20.9816 46.1865 22.6681C46.1865 24.3545 51.0483 26.7094 58.9487 26.7094C59.4653 26.7094 59.9818 26.6942 60.468 26.679C53.464 26.3904 49.2251 24.233 49.2251 22.6681ZM49.2251 27.1044V32.0421C49.2251 33.6222 53.464 35.7644 60.468 36.0531C59.9818 36.0683 59.4653 36.0835 58.9487 36.0835C51.0483 36.0835 46.1865 33.7286 46.1865 32.0421V25.6155C47.1285 26.2536 48.1464 26.755 49.2251 27.1044ZM6.38104 42.6167C6.38104 39.9428 8.02189 37.5575 10.5136 36.6003C10.8782 36.4636 11.1213 36.0989 11.0909 35.7039C11.0909 35.6161 11.0867 35.5368 11.0827 35.4614C11.0791 35.3932 11.0757 35.3282 11.0757 35.2633C11.0757 30.9485 14.008 27.1958 18.1861 26.1475C13.1572 24.8864 8.05228 27.9402 6.79125 32.9691C6.60893 33.7136 6.50258 34.4885 6.50258 35.2633C6.50258 35.4 6.50258 35.552 6.51778 35.7039C6.53297 36.0989 6.30507 36.4484 5.94044 36.6003C2.61315 37.8765 0.957109 41.5988 2.23333 44.9261C3.19049 47.4178 5.591 49.0586 8.24979 49.0586H12.8077C9.26772 49.0586 6.38104 46.1871 6.38104 42.6167ZM49.2251 41.4162V36.4784C48.1464 36.129 47.1285 35.6276 46.1865 34.9895V41.4162C46.1865 43.1026 51.0483 45.4576 58.9487 45.4576C59.4653 45.4576 59.9818 45.4424 60.468 45.4272C53.464 45.1537 49.2251 42.9963 49.2251 41.4162ZM49.2251 45.8376V50.8513C49.2251 52.4314 53.464 54.5888 60.468 54.847C59.9818 54.8622 59.4653 54.8774 58.9487 54.8774C51.0483 54.8774 46.1865 52.5225 46.1865 50.8361V44.3486C47.1285 44.9867 48.1464 45.4881 49.2251 45.8376Z" fill="#E7E7E8"/>
<path d="M46.2451 34.9082L46.0869 34.7953V34.9896V41.4163C46.0869 41.8851 46.4219 42.3743 47.008 42.8376C47.5985 43.3044 48.4637 43.7614 49.5713 44.1633C51.7873 44.9676 54.9898 45.5576 58.9491 45.5576C62.9085 45.5576 66.1109 44.9676 68.327 44.1633C69.4345 43.7614 70.2998 43.3044 70.8902 42.8376C71.4763 42.3743 71.8113 41.8851 71.8113 41.4163V41.2187V34.9896V34.7944L71.6529 34.9084C70.3394 35.8542 68.3984 36.5796 66.1635 37.0683C63.9303 37.5566 61.4117 37.8067 58.9491 37.8067C56.4867 37.8067 53.9681 37.5528 51.7349 37.0626C49.4999 36.5721 47.5587 35.8465 46.2451 34.9082ZM46.2451 25.5341L46.0869 25.4211V25.6155V32.0421C46.0869 32.511 46.4219 33.0002 47.008 33.4635C47.5985 33.9303 48.4637 34.3873 49.5713 34.7892C51.7873 35.5935 54.9898 36.1835 58.9491 36.1835C62.9085 36.1835 66.1109 35.5935 68.327 34.7892C69.4345 34.3873 70.2998 33.9303 70.8902 33.4635C71.4763 33.0002 71.8113 32.511 71.8113 32.0421V25.6155V25.4202L71.6529 25.5343C70.3394 26.48 68.3984 27.2055 66.1635 27.6942C63.9303 28.1824 61.4117 28.4325 58.9491 28.4325C56.4867 28.4325 53.9681 28.1787 51.7349 27.6885C49.4999 27.1979 47.5587 26.4724 46.2451 25.5341ZM46.2451 44.2823L46.0869 44.1694V44.3637V50.8512C46.0869 51.32 46.4219 51.8092 47.008 52.2725C47.5985 52.7393 48.4637 53.1963 49.5713 53.5982C51.7873 54.4025 54.9898 54.9925 58.9491 54.9925C62.916 54.9925 66.1185 54.4025 68.3327 53.5982C69.4393 53.1963 70.3032 52.7393 70.8924 52.2725C71.4774 51.8091 71.8113 51.3199 71.8113 50.8512V44.3637V44.1685L71.6529 44.2826C70.3394 45.2283 68.3984 45.9538 66.1635 46.4424C63.9303 46.9307 61.4117 47.1808 58.9491 47.1808C56.4867 47.1808 53.9681 46.9269 51.7349 46.4367C49.4999 45.9462 47.5587 45.2207 46.2451 44.2823ZM44.4638 22.668C44.4638 21.7512 44.9147 20.9332 45.7159 20.2174C46.5181 19.5007 47.6658 18.8922 49.0409 18.3998C51.7904 17.4153 55.4246 16.9035 58.9491 16.9035C62.4812 16.9035 66.1155 17.4153 68.8631 18.3998C70.2372 18.8922 71.3834 19.5006 72.1845 20.2174C72.9844 20.9331 73.4345 21.7512 73.4345 22.668V50.8663C73.4345 51.7831 72.9835 52.6011 72.1824 53.3169C71.3801 54.0337 70.2324 54.6421 68.8574 55.1345C66.1079 56.119 62.4736 56.6309 58.9491 56.6309C55.4246 56.6309 51.7904 56.119 49.0409 55.1345C47.6658 54.6421 46.5181 54.0337 45.7159 53.3169C44.9147 52.6011 44.4638 51.7831 44.4638 50.8663V22.668ZM71.8113 22.668C71.8113 22.1991 71.4763 21.71 70.8902 21.2466C70.2998 20.7798 69.4345 20.3229 68.327 19.9209C66.1109 19.1166 62.9085 18.5266 58.9491 18.5266C54.9898 18.5266 51.7873 19.1166 49.5713 19.9209C48.4637 20.3229 47.5985 20.7798 47.008 21.2466C46.4219 21.71 46.0869 22.1991 46.0869 22.668C46.0869 23.1369 46.4219 23.626 47.008 24.0894C47.5985 24.5562 48.4637 25.0131 49.5713 25.4151C51.7873 26.2194 54.9898 26.8094 58.9491 26.8094C62.9085 26.8094 66.1109 26.2194 68.327 25.4151C69.4345 25.0131 70.2998 24.5562 70.8902 24.0894C71.4763 23.626 71.8113 23.1369 71.8113 22.668Z" fill="#071D5B" stroke="white" stroke-width="0.2"/>
<path d="M5.9196 36.5066L5.92035 36.5063C6.24475 36.3847 6.45995 36.0603 6.43309 35.7112L6.4325 35.7035H6.4328C6.4328 35.6229 6.42914 35.5492 6.42534 35.4771L6.42473 35.4655C6.42116 35.398 6.41761 35.3306 6.41761 35.2629C6.41761 30.0116 10.671 25.7736 15.9069 25.7736C18.7167 25.7736 21.3885 27.0173 23.1853 29.1825C23.3882 29.426 23.7266 29.5338 24.0365 29.4395L24.0371 29.4393C27.5086 28.4056 31.1497 30.3806 32.1834 33.8518L32.1835 33.8522C32.3376 34.376 32.4303 34.9161 32.4458 35.4572M5.9196 36.5066L31.8445 49.0583L31.8436 49.1582C31.8437 49.1582 31.8439 49.1583 31.844 49.1583C33.5726 49.1736 35.2544 48.4791 36.4735 47.2446C37.3832 46.3347 38.0009 45.1774 38.2175 43.9262C38.9264 40.3934 36.6431 36.9383 33.0951 36.2133L33.0933 36.2129C32.7295 36.1456 32.4595 35.8358 32.4458 35.4572M5.9196 36.5066C3.3893 37.4786 1.72294 39.901 1.72294 42.6164C1.72294 46.2264 4.65403 49.1735 8.28 49.1583M5.9196 36.5066L8.28 49.1583M32.4458 35.4572C32.4458 35.4574 32.4458 35.4575 32.4458 35.4576L32.3458 35.4605L32.4458 35.4569C32.4458 35.457 32.4458 35.4571 32.4458 35.4572ZM8.28 49.1583L8.28043 49.1583L8.28 49.1583ZM34.0546 34.6979L34.0627 34.7635L34.1262 34.7817C37.6229 35.7872 40.0097 38.984 40.0247 42.6168C40.0245 47.1192 36.3623 50.7814 31.8445 50.7814H8.28C5.12763 50.7814 2.24601 48.9801 0.895382 46.1288L0.8953 46.1286C-1.04097 42.0609 0.685372 37.1831 4.75234 35.2622L4.80901 35.2354L4.80962 35.1728C4.83974 32.1159 6.11966 29.2099 8.36315 27.1321L8.36329 27.1319C12.8656 22.9459 19.8975 23.2018 24.0835 27.7041L24.1237 27.7474L24.181 27.733C24.4195 27.6734 24.6735 27.6286 24.9281 27.5986L24.9287 27.5985C29.4018 27.0431 33.4993 30.2103 34.0546 34.6979Z" fill="#071D5B" stroke="white" stroke-width="0.2"/>
<path d="M35.8766 0.538409L35.8766 0.538391C42.3618 -0.837254 49.1194 1.05205 53.9726 5.57183L53.9865 5.58577L53.988 5.58726C54.3132 5.89889 54.3262 6.41294 54.0154 6.73728C53.7038 7.06246 53.1897 7.07548 52.8654 6.76465L52.865 6.76426C52.5751 6.4897 52.2845 6.22957 51.978 5.98433C44.0045 -0.583297 32.2129 0.562498 25.6449 8.53567L25.5738 8.62198L25.6675 8.68303L29.024 10.8701C29.2042 10.9951 29.3369 11.1714 29.3765 11.3828L29.3765 11.3828L29.3771 11.3858C29.4714 11.8166 29.1882 12.2504 28.7549 12.3453C28.7548 12.3454 28.7547 12.3454 28.7545 12.3454L21.7665 13.819L21.7657 13.8191C21.3348 13.9134 20.9011 13.6302 20.8062 13.1969C20.8061 13.1968 20.8061 13.1967 20.8061 13.1966L19.3325 6.2085L19.3326 6.20847L19.3313 6.20336C19.2782 6.00425 19.3181 5.77614 19.4384 5.60236L19.4385 5.6024L19.4403 5.59952C19.6838 5.22076 20.1839 5.11245 20.5629 5.35593C20.563 5.35598 20.5631 5.35603 20.5632 5.35608L24.133 7.68031L24.2088 7.72964L24.2655 7.65921C27.1985 4.01571 31.2955 1.50602 35.8766 0.538409ZM22.2058 11.9776L22.2265 12.0755L22.3244 12.0547L26.2594 11.2191L26.4956 11.169L26.2932 11.0374L23.9166 9.49347L23.9089 9.4857L23.9016 9.47838L23.8929 9.47272L21.5228 7.92302L21.3201 7.79051L21.3702 8.02742L22.2058 11.9776Z" fill="#071D5B" stroke="white" stroke-width="0.2"/>
<path d="M51.7681 58.1808L51.7688 58.1807C52.1996 58.0864 52.6333 58.3696 52.7284 58.8028C52.7284 58.8029 52.7284 58.8031 52.7284 58.8032L54.202 65.8065L54.2019 65.8065L54.2032 65.8116C54.2563 66.0107 54.2164 66.2389 54.0961 66.4126L54.0961 66.4126L54.0942 66.4155C53.8507 66.7943 53.3505 66.9026 52.9715 66.659C52.9714 66.6589 52.9714 66.6589 52.9714 66.6589L49.4015 64.3347L49.3255 64.2852L49.2688 64.356C48.967 64.7333 48.6345 65.1112 48.3012 65.4749C40.6364 73.6683 27.7563 74.0919 19.5621 66.428L19.548 66.414L19.5481 66.414L19.5465 66.4125C19.2213 66.1009 19.2083 65.5869 19.5191 65.2625C19.8308 64.9373 20.3448 64.9243 20.6692 65.2351L20.6696 65.2355C20.9594 65.5101 21.25 65.7702 21.5565 66.0154C29.53 72.5831 41.3217 71.4373 47.8896 63.4641L47.9607 63.3778L47.867 63.3168L44.5105 61.1298C44.3304 61.0047 44.1977 60.8284 44.158 60.617L44.1581 60.617L44.1574 60.614C44.0632 60.1832 44.3464 59.7495 44.7796 59.6545C44.7797 59.6544 44.7799 59.6544 44.78 59.6544L51.7681 58.1808ZM49.6257 62.5141L49.6331 62.5215L49.6419 62.5272L52.0272 64.0769L52.2294 64.2083L52.1795 63.9724L51.3439 60.0222L51.3232 59.9244L51.2254 59.9451L47.2752 60.7807L47.0391 60.8306L47.2413 60.9623L49.5506 62.4664L49.5503 62.467L49.5605 62.4721C49.5908 62.4872 49.6079 62.4963 49.6257 62.5141Z" fill="#071D5B" stroke="white" stroke-width="0.2"/>
</g>
<defs>
<clipPath id="clip0">
<rect width="73.5345" height="72" fill="white"/>
</clipPath>
</defs>
</svg>
