<svg width="63" height="75" viewBox="0 0 63 75" fill="none" xmlns="http://www.w3.org/2000/svg">
<path opacity="0.1" d="M35.6263 1.50378C34.7683 1.50821 33.9112 1.56078 33.0591 1.66123C46.6757 3.10251 57.0104 14.5816 57.0148 28.2697C57.0102 30.94 56.6013 33.5942 55.8021 36.1421L45.1236 73.7876H50.4943L61.1886 36.2051C63.6863 28.0913 62.1855 19.2742 57.1441 12.4428C52.1027 5.61141 44.1184 1.57579 35.6263 1.56676V1.50378Z" fill="#131415"/>
<path d="M9.92236 20.7596C12.571 11.4711 20.02 4.32945 29.4142 2.07221C38.8084 -0.185027 48.6905 2.79225 55.2725 9.86281C61.8545 16.9334 64.1154 27.0004 61.1886 36.2051" stroke="black" stroke-linecap="round" stroke-linejoin="round"/>
<path d="M9.93814 20.7595L1.24414 49.0999H8.06389V57.5391C8.06389 60.9651 10.8422 63.7425 14.2694 63.7425H30.9014" stroke="black" stroke-linecap="round" stroke-linejoin="round"/>
<path d="M61.1886 36.2051L50.4944 73.7876" stroke="#071D5B" stroke-linecap="round" stroke-linejoin="round"/>
<path d="M21.1521 63.7111L18.2856 73.7877" stroke="black" stroke-linecap="round" stroke-linejoin="round"/>
<path d="M47.7695 41.4323L49.0925 40.094L50.6675 38.5195L48.1003 34.5204C48.3937 33.962 48.6464 33.3832 48.8563 32.7885L53.5498 31.7336V25.2625L49.1083 24.3021C48.8994 23.6185 48.6306 22.9546 48.305 22.3183L50.7463 18.508L49.1713 16.9336L47.8483 15.611L46.2733 14.0366L42.5248 16.3038C41.8387 15.9537 41.128 15.6537 40.3985 15.4063L39.3748 11.1553H32.9173L31.988 15.4063C31.2585 15.6537 30.5479 15.9537 29.8618 16.3038L26.1763 13.9421L24.6013 15.5166L23.2783 16.8391L21.7033 18.4136L24.1445 22.2238C23.8256 22.8632 23.557 23.5265 23.3413 24.2076L18.9155 25.168V31.6391L23.5303 32.6468C23.7349 33.2412 23.9823 33.82 24.2705 34.3787L21.593 38.4723L23.168 40.0468L24.491 41.3851L26.066 42.9595L30.2713 40.3617C30.7797 40.6196 31.3061 40.8406 31.8463 41.0229L32.8858 45.7463H39.3748L40.4143 41.0229" stroke="black" stroke-linecap="round" stroke-linejoin="round"/>
</svg>
