<svg width="61" height="67" viewBox="0 0 61 67" fill="none" xmlns="http://www.w3.org/2000/svg">
<path d="M53.2348 20.255L35.8348 41.645H35.3998C35.3098 41.75 35.0398 41.855 34.9348 41.96C32.9848 43.805 29.7748 43.115 27.9148 41.165C27.5698 40.805 27.8248 39.875 27.6148 39.455C27.6148 39.455 27.3748 40.43 27.3898 40.475C28.6657 42.6614 30.0628 44.7747 31.5748 46.805C32.4672 47.7432 33.6962 48.2878 34.9906 48.3188C36.2851 48.3497 37.5386 47.8645 38.4748 46.97C38.5727 46.872 38.663 46.7667 38.7448 46.655L56.1898 25.205C55.4359 23.4276 54.4416 21.7621 53.2348 20.255Z" fill="#E1E1E1"/>
<path d="M53.235 20.255C61.6405 29.9999 62.1234 44.2839 54.3952 54.5742C46.6671 64.8645 32.8147 68.3825 21.113 63.0266C9.41126 57.6707 3.02007 44.8873 5.75725 32.3125C8.49443 19.7378 19.6208 10.7675 32.49 10.76" stroke="black" stroke-linecap="round" stroke-linejoin="bevel"/>
<path d="M23.4299 1.17505H41.5199" stroke="black" stroke-linecap="round" stroke-linejoin="bevel"/>
<path d="M32.4749 1.17505V14.915" stroke="black" stroke-linecap="round" stroke-linejoin="bevel"/>
<path d="M32.4749 61.8201V65.5101" stroke="black" stroke-linecap="round" stroke-linejoin="bevel"/>
<path d="M59.8649 38.135H56.1899" stroke="black" stroke-linecap="round" stroke-linejoin="bevel"/>
<path d="M8.80488 38.135H5.12988" stroke="black" stroke-linecap="round" stroke-linejoin="bevel"/>
<path d="M8.23494 11.99L1.06494 21.11" stroke="black" stroke-linecap="round" stroke-linejoin="bevel"/>
<path fill-rule="evenodd" clip-rule="evenodd" d="M36.1348 41.36L59.8198 12.125L29.4298 34.295V34.295C29.3248 34.385 29.2048 34.46 29.1148 34.55C27.7596 35.7253 27.1593 37.5499 27.552 39.3002C27.9447 41.0506 29.267 42.4439 30.9944 42.9275C32.7219 43.4111 34.5754 42.907 35.8198 41.615C35.9177 41.517 36.008 41.4117 36.0898 41.3L36.1348 41.36Z" stroke="black" stroke-linecap="round" stroke-linejoin="round"/>
</svg>
