<svg width="111" height="36" viewBox="0 0 111 36" fill="none" xmlns="http://www.w3.org/2000/svg">
<path fill-rule="evenodd" clip-rule="evenodd" d="M0.816198 6.3132L-0.00012207 8.65336L23.2034 35.3401L25.6344 34.8502L36.6012 1.95928L34.9045 0.000244141L0.816198 6.3132Z" fill="#071D5B"/>
<path fill-rule="evenodd" clip-rule="evenodd" d="M22.2344 23.7136L27.6488 7.89185H24.9717L20.7304 21.4576L16.429 7.89185H13.6616L19.1663 23.7136H22.2344Z" fill="white"/>
<path fill-rule="evenodd" clip-rule="evenodd" d="M36.3141 9.75892C36.6546 9.6786 37.0328 9.63636 37.4431 9.63636C38.9474 9.63636 40.1503 10.0876 41.5339 11.1106L42.6469 9.42612C41.1432 8.28308 39.5189 7.621 37.3528 7.621C37.2459 7.621 37.14 7.62292 37.0357 7.6274C37.0357 7.6274 36.3199 9.76052 36.3141 9.75892ZM47.189 23.804H49.7157V7.98196H47.189V23.804ZM68.0942 8.61396L67.3419 6.2978C65.5672 7.10996 64.1838 7.71156 60.1832 7.621C56.6939 7.621 54.1669 9.877 54.1669 13.0959C54.1669 15.1711 55.0095 16.5548 56.8143 17.5173C55.701 18.2392 55.0994 19.2322 55.0994 20.285C55.0994 21.8488 56.3627 23.2325 59.1304 23.2325H61.6271C63.6722 23.2325 64.9058 24.0149 64.9058 25.5791C64.9058 27.2332 63.6722 28.1656 60.1832 28.1656C56.6335 28.1656 55.7314 27.3237 55.7314 25.4287H53.445C53.445 28.6172 55.0994 30.1512 60.1832 30.1512C65.0261 30.1512 67.4626 28.4364 67.4626 25.3983C67.4626 22.9317 65.357 21.0972 62.1381 21.0972H59.6117C57.9269 21.0972 57.4456 20.4956 57.4456 19.7432C57.4456 19.1119 57.7765 18.54 58.3183 18.1791C58.9496 18.39 59.6117 18.4802 60.3336 18.4802C64.0635 18.4802 66.2895 16.2543 66.2895 13.1557C66.2895 11.2309 65.357 9.9074 63.5218 9.09524C65.357 9.06484 66.8306 9.005 68.0942 8.61396ZM60.1832 9.4562C62.5294 9.4562 63.7026 10.7496 63.7026 13.0959C63.7026 15.4421 62.4991 16.7954 60.243 16.7954C58.0171 16.7954 56.7538 15.3218 56.7538 13.0959C56.7538 10.9903 57.9269 9.4562 60.1832 9.4562ZM78.4415 7.621C76.3061 7.621 74.6517 8.73428 73.4786 10.3583L73.2677 7.98196H71.1019V23.8044H73.6287V12.5244C74.7115 10.7794 75.9749 9.60628 77.8402 9.60628C79.4645 9.60628 80.4568 10.3887 80.4568 12.8248V23.8044H82.9839V12.4639C82.9839 9.4562 81.3295 7.621 78.4415 7.621ZM99.1662 20.1647V12.8248C99.1662 9.54644 97.452 7.621 93.692 7.621C91.9474 7.621 90.2325 7.98196 88.3374 8.70388L88.9694 10.5688C90.5934 9.99732 92.0376 9.69684 93.2408 9.69684C95.5266 9.69684 96.6398 10.5989 96.6398 12.9452V14.1788H94.053C89.7211 14.1788 87.1944 16.0136 87.1944 19.3823C87.1944 22.2098 89.0594 24.1653 92.1877 24.1653C94.1432 24.1653 95.8277 23.4133 96.9403 21.7285C97.3615 23.3231 98.3541 23.9544 99.8882 24.1653L100.49 22.3906C99.6475 22.0895 99.1662 21.6383 99.1662 20.1647ZM92.7595 22.2402C90.8645 22.2402 89.8715 21.1874 89.8715 19.262C89.8715 17.006 91.436 15.8933 94.3839 15.8933H96.6398V19.6533C95.7371 21.3676 94.4738 22.2402 92.7595 22.2402ZM107.378 20.7362V1.3042L104.851 1.60532V20.766C104.851 23.022 105.964 24.1653 107.889 24.1653C108.671 24.1653 109.424 23.9845 110.115 23.654L109.454 21.8789C109.152 21.9992 108.822 22.0594 108.431 22.0594C107.648 22.0594 107.378 21.6082 107.378 20.7362ZM34.2946 15.6677C34.3144 15.6773 34.3346 15.6869 34.3547 15.6972C34.9554 15.9877 35.6706 16.2418 36.5106 16.4645C39.6392 17.3071 40.4514 17.9087 40.4514 19.6533C40.4514 21.1269 39.0376 22.1199 36.932 22.1199C35.2818 22.1199 32.7429 20.7045 32.7429 20.7045C32.7429 20.7045 31.9839 22.7861 31.9701 22.7765C33.2402 23.6108 34.8578 24.1653 36.9919 24.1653C40.1803 24.1653 43.0981 22.6312 43.0981 19.4124C43.0981 16.6453 41.2331 15.3816 37.8943 14.5096C36.5893 14.1647 35.7106 13.8421 35.1576 13.4373C35.141 13.4252 35.1247 13.413 35.1083 13.4005C35.1083 13.4005 34.324 15.7109 34.2946 15.6677Z" fill="#071D5B"/>
</svg>
