<svg width="596" height="521" viewBox="0 0 596 521" fill="none" xmlns="http://www.w3.org/2000/svg">
<circle cx="274" cy="255" r="254.5" stroke="#E7E7E8" stroke-dasharray="10 30"/>
<path opacity="0.1" d="M281.431 83.2993C277.574 83.3192 273.721 83.5555 269.89 84.0071C331.102 90.4862 377.56 142.089 377.58 203.623C377.559 215.627 375.721 227.558 372.129 239.012L324.125 408.243H348.268L396.343 239.295C407.571 202.821 400.825 163.184 378.162 132.475C355.498 101.765 319.606 83.623 281.431 83.5824V83.2993Z" fill="#131415"/>
<path d="M165.881 169.861C177.787 128.106 211.274 96.0013 253.504 85.8541C295.735 75.707 340.159 89.091 369.747 120.876C399.336 152.661 409.5 197.916 396.343 239.295" stroke="black" stroke-linecap="round" stroke-linejoin="round"/>
<path d="M165.949 169.861L126.866 297.262H157.524V335.199C157.524 350.601 170.013 363.086 185.42 363.086H260.187" stroke="black" stroke-linecap="round" stroke-linejoin="round"/>
<path d="M396.338 239.295L348.263 408.243" stroke="#071D5B" stroke-linecap="round" stroke-linejoin="round"/>
<path d="M216.357 362.944L203.471 408.243" stroke="black" stroke-linecap="round" stroke-linejoin="round"/>
<path d="M336.018 262.793L341.966 256.777L349.046 249.699L337.505 231.721C338.824 229.211 339.96 226.609 340.903 223.936L362.003 219.194V190.104L342.036 185.786C341.097 182.713 339.889 179.729 338.425 176.868L349.4 159.74L342.32 152.662L336.372 146.716L329.292 139.639L312.441 149.831C309.357 148.257 306.162 146.908 302.883 145.796L298.28 126.686H269.251L265.074 145.796C261.795 146.908 258.6 148.257 255.516 149.831L238.948 139.214L231.868 146.292L225.92 152.237L218.84 159.315L229.815 176.443C228.381 179.318 227.174 182.299 226.204 185.361L206.308 189.679V218.769L227.053 223.299C227.973 225.971 229.085 228.573 230.381 231.084L218.345 249.487L225.425 256.565L231.372 262.581L238.452 269.659L257.357 257.98C259.642 259.14 262.008 260.133 264.437 260.953L269.11 282.186H298.28L302.953 260.953" stroke="black" stroke-linecap="round" stroke-linejoin="round"/>
<path d="M59.9824 327.802H14.014C10.4001 327.799 7.47087 324.87 7.46695 321.255V282.241C7.46739 281.936 7.48915 281.632 7.53182 281.33C4.3014 281.787 1.89894 284.551 1.89502 287.812V326.827C1.89894 330.442 4.82812 333.371 8.44204 333.374H54.4105C57.6727 333.37 60.4356 330.968 60.8927 327.738C60.5914 327.78 60.2872 327.802 59.9824 327.802Z" fill="#E7E7E8"/>
<path d="M59.2573 326.827V326.827V296.879V296.629H59.0073H3.8452H3.5952V296.879L3.5952 326.827L3.5952 326.827C3.59795 329.503 5.76604 331.671 8.44183 331.674H8.44204H54.4105H54.4107C57.0865 331.671 59.2546 329.503 59.2573 326.827ZM59.0073 295.179H59.2573V294.929V287.812V287.812C59.2546 285.136 57.0864 282.969 54.4108 282.966H54.4105L8.44204 282.966L8.44174 282.966C5.7661 282.969 3.59795 285.136 3.5952 287.812V287.812V294.929V295.179H3.8452H59.0073ZM60.7075 287.813V326.827C60.7038 330.304 57.8863 333.121 54.4103 333.124H8.44225C4.96632 333.121 2.14886 330.304 2.14502 326.827V287.813C2.14886 284.337 4.96622 281.519 8.44218 281.515H54.4104C57.8864 281.519 60.7038 284.337 60.7075 287.813Z" fill="#071D5B" stroke="white" stroke-width="0.5"/>
<mask id="path-11-inside-1" fill="white">
<path fill-rule="evenodd" clip-rule="evenodd" d="M5.9905 289.088C5.99528 287.383 7.38174 286.006 9.08597 286.011C10.7906 286.014 12.1701 287.398 12.1675 289.103C12.1649 290.807 10.7811 292.186 9.07595 292.184H9.06638C7.36215 292.178 5.98484 290.792 5.9905 289.088ZM9.07247 290.234H9.07595C9.70367 290.234 10.2134 289.727 10.2147 289.1C10.2156 288.472 9.70802 287.963 9.08031 287.962H9.07595C8.44868 287.96 7.93937 288.468 7.9385 289.096C7.93719 289.723 8.44476 290.232 9.07247 290.234ZM15.4719 289.118C15.4693 290.821 16.8449 292.205 18.5478 292.213H18.5574C20.2568 292.211 21.6359 290.837 21.6428 289.137V289.128C21.6424 287.427 20.2673 286.048 18.5674 286.042H18.5574C16.8571 286.042 15.478 287.418 15.4719 289.118ZM17.7577 288.323C17.9693 288.11 18.257 287.991 18.5574 287.992H18.5613C19.1886 287.993 19.6961 288.502 19.6948 289.129C19.6935 289.757 19.1842 290.264 18.5574 290.263H18.5543C18.0951 290.262 17.6815 289.984 17.5074 289.559C17.3329 289.134 17.4317 288.646 17.7577 288.323ZM28.0295 292.243H28.0395C29.7394 292.242 31.1189 290.867 31.1245 289.166V289.157C31.1228 287.457 29.7476 286.079 28.0478 286.071H28.0395C26.3353 286.069 24.9514 287.448 24.9488 289.152C24.9462 290.856 26.3257 292.24 28.0295 292.243ZM28.0395 288.021H28.0421C28.669 288.022 29.177 288.532 29.1756 289.158C29.1752 289.785 28.6663 290.293 28.0395 290.292H28.0351C27.4083 290.291 26.9007 289.782 26.9016 289.155C26.9029 288.528 27.4122 288.021 28.0395 288.021ZM32.1701 303.355C32.2811 302.828 32.7978 302.491 33.3245 302.602C33.8513 302.713 34.1882 303.23 34.0781 303.757L30.1459 322.428C30.0506 322.88 29.6527 323.202 29.1922 323.203C29.1238 323.203 29.0564 323.196 28.9902 323.182C28.4635 323.07 28.1265 322.554 28.2375 322.027L32.1701 303.355ZM38.2866 306.71L44.5968 312.083C44.8145 312.268 44.9403 312.539 44.9403 312.825C44.9403 313.111 44.8145 313.382 44.5968 313.567L38.2866 318.94C38.0228 319.176 37.6523 319.249 37.318 319.133C36.9841 319.017 36.7391 318.729 36.6781 318.381C36.6168 318.032 36.7491 317.679 37.0238 317.456L42.4603 312.825L37.0238 308.195C36.6276 307.842 36.5858 307.238 36.9293 306.835C37.2732 306.431 37.8757 306.376 38.2866 306.71ZM18.2577 313.567C18.04 313.382 17.9146 313.11 17.9146 312.825C17.9146 312.539 18.04 312.268 18.2577 312.083L24.5679 306.71C24.9788 306.376 25.5813 306.431 25.9252 306.835C26.2686 307.238 26.2268 307.842 25.8307 308.195L20.3941 312.825L25.8307 317.456C26.2268 317.808 26.2686 318.412 25.9252 318.815C25.5813 319.219 24.9788 319.274 24.5679 318.94L18.2577 313.567Z"/>
</mask>
<path fill-rule="evenodd" clip-rule="evenodd" d="M5.9905 289.088C5.99528 287.383 7.38174 286.006 9.08597 286.011C10.7906 286.014 12.1701 287.398 12.1675 289.103C12.1649 290.807 10.7811 292.186 9.07595 292.184H9.06638C7.36215 292.178 5.98484 290.792 5.9905 289.088ZM9.07247 290.234H9.07595C9.70367 290.234 10.2134 289.727 10.2147 289.1C10.2156 288.472 9.70802 287.963 9.08031 287.962H9.07595C8.44868 287.96 7.93937 288.468 7.9385 289.096C7.93719 289.723 8.44476 290.232 9.07247 290.234ZM15.4719 289.118C15.4693 290.821 16.8449 292.205 18.5478 292.213H18.5574C20.2568 292.211 21.6359 290.837 21.6428 289.137V289.128C21.6424 287.427 20.2673 286.048 18.5674 286.042H18.5574C16.8571 286.042 15.478 287.418 15.4719 289.118ZM17.7577 288.323C17.9693 288.11 18.257 287.991 18.5574 287.992H18.5613C19.1886 287.993 19.6961 288.502 19.6948 289.129C19.6935 289.757 19.1842 290.264 18.5574 290.263H18.5543C18.0951 290.262 17.6815 289.984 17.5074 289.559C17.3329 289.134 17.4317 288.646 17.7577 288.323ZM28.0295 292.243H28.0395C29.7394 292.242 31.1189 290.867 31.1245 289.166V289.157C31.1228 287.457 29.7476 286.079 28.0478 286.071H28.0395C26.3353 286.069 24.9514 287.448 24.9488 289.152C24.9462 290.856 26.3257 292.24 28.0295 292.243ZM28.0395 288.021H28.0421C28.669 288.022 29.177 288.532 29.1756 289.158C29.1752 289.785 28.6663 290.293 28.0395 290.292H28.0351C27.4083 290.291 26.9007 289.782 26.9016 289.155C26.9029 288.528 27.4122 288.021 28.0395 288.021ZM32.1701 303.355C32.2811 302.828 32.7978 302.491 33.3245 302.602C33.8513 302.713 34.1882 303.23 34.0781 303.757L30.1459 322.428C30.0506 322.88 29.6527 323.202 29.1922 323.203C29.1238 323.203 29.0564 323.196 28.9902 323.182C28.4635 323.07 28.1265 322.554 28.2375 322.027L32.1701 303.355ZM38.2866 306.71L44.5968 312.083C44.8145 312.268 44.9403 312.539 44.9403 312.825C44.9403 313.111 44.8145 313.382 44.5968 313.567L38.2866 318.94C38.0228 319.176 37.6523 319.249 37.318 319.133C36.9841 319.017 36.7391 318.729 36.6781 318.381C36.6168 318.032 36.7491 317.679 37.0238 317.456L42.4603 312.825L37.0238 308.195C36.6276 307.842 36.5858 307.238 36.9293 306.835C37.2732 306.431 37.8757 306.376 38.2866 306.71ZM18.2577 313.567C18.04 313.382 17.9146 313.11 17.9146 312.825C17.9146 312.539 18.04 312.268 18.2577 312.083L24.5679 306.71C24.9788 306.376 25.5813 306.431 25.9252 306.835C26.2686 307.238 26.2268 307.842 25.8307 308.195L20.3941 312.825L25.8307 317.456C26.2268 317.808 26.2686 318.412 25.9252 318.815C25.5813 319.219 24.9788 319.274 24.5679 318.94L18.2577 313.567Z" fill="#071D5B"/>
<path d="M9.08597 286.011L9.0843 286.511L9.0852 286.511L9.08597 286.011ZM5.9905 289.088L6.49049 289.089L6.49049 289.089L5.9905 289.088ZM12.1675 289.103L12.6675 289.103L12.1675 289.103ZM9.07595 292.184L9.07672 291.684H9.07595V292.184ZM9.06638 292.184L9.06472 292.684H9.06638V292.184ZM9.07595 290.234L9.07665 289.734H9.07595V290.234ZM9.07247 290.234L9.07143 290.734H9.07247V290.234ZM10.2147 289.1L10.7147 289.101L10.7147 289.1L10.2147 289.1ZM9.08031 287.962L9.081 287.462H9.08031V287.962ZM9.07595 287.962L9.07491 288.462H9.07595V287.962ZM7.9385 289.096L8.43849 289.097L8.43849 289.096L7.9385 289.096ZM18.5478 292.213L18.5456 292.713H18.5478V292.213ZM15.4719 289.118L14.9719 289.116L14.9719 289.117L15.4719 289.118ZM18.5574 292.213V292.713L18.5579 292.713L18.5574 292.213ZM21.6428 289.137L22.1428 289.139V289.137H21.6428ZM21.6428 289.128H22.1428V289.128L21.6428 289.128ZM18.5674 286.042L18.5692 285.542H18.5674V286.042ZM18.5574 286.042V285.542L18.5573 285.542L18.5574 286.042ZM18.5574 287.992L18.5552 288.492H18.5574V287.992ZM17.7577 288.323L18.1096 288.678L18.112 288.675L17.7577 288.323ZM18.5613 287.992L18.562 287.492H18.5613V287.992ZM19.6948 289.129L19.1948 289.128V289.128L19.6948 289.129ZM18.5574 290.263L18.5584 289.763H18.5574V290.263ZM18.5543 290.263L18.5534 290.763H18.5543V290.263ZM17.5074 289.559L17.9701 289.37L17.9699 289.369L17.5074 289.559ZM28.0395 292.243V292.743H28.0398L28.0395 292.243ZM28.0295 292.243L28.0286 292.743H28.0295V292.243ZM31.1245 289.166L31.6245 289.168V289.166H31.1245ZM31.1245 289.157H31.6245V289.156L31.1245 289.157ZM28.0478 286.071L28.0499 285.571H28.0478V286.071ZM28.0395 286.071L28.0387 286.571H28.0395V286.071ZM24.9488 289.152L24.4488 289.151V289.151L24.9488 289.152ZM28.0421 288.021L28.0428 287.521H28.0421V288.021ZM28.0395 288.021L28.0388 288.521H28.0395V288.021ZM29.1756 289.158L28.6756 289.157V289.158L29.1756 289.158ZM28.0395 290.292L28.0398 289.792H28.0395V290.292ZM28.0351 290.292L28.0341 290.792H28.0351V290.292ZM26.9016 289.155L26.4016 289.154L26.4016 289.154L26.9016 289.155ZM33.3245 302.602L33.2214 303.091H33.2214L33.3245 302.602ZM32.1701 303.355L31.6808 303.252L31.6808 303.252L32.1701 303.355ZM34.0781 303.757L34.5673 303.86L34.5675 303.859L34.0781 303.757ZM30.1459 322.428L30.6351 322.531L30.6352 322.531L30.1459 322.428ZM29.1922 323.203V323.703H29.1926L29.1922 323.203ZM28.9902 323.182L28.8863 323.671L28.8903 323.672L28.9902 323.182ZM28.2375 322.027L28.7268 322.13L28.7268 322.13L28.2375 322.027ZM44.5968 312.083L44.2727 312.463L44.273 312.464L44.5968 312.083ZM38.2866 306.71L38.6108 306.329L38.6021 306.322L38.2866 306.71ZM44.5968 313.567L44.921 313.948L44.9211 313.948L44.5968 313.567ZM38.2866 318.94L37.9624 318.56L37.954 318.567L38.2866 318.94ZM37.318 319.133L37.4822 318.661L37.4819 318.66L37.318 319.133ZM36.6781 318.381L37.1707 318.295L37.1705 318.294L36.6781 318.381ZM37.0238 317.456L37.3389 317.844L37.348 317.836L37.0238 317.456ZM42.4603 312.825L42.7845 313.205L43.2314 312.825L42.7845 312.444L42.4603 312.825ZM37.0238 308.195L36.6912 308.568L36.6996 308.576L37.0238 308.195ZM36.9293 306.835L36.5489 306.51L36.5485 306.51L36.9293 306.835ZM18.2577 313.567L17.9334 313.948L17.9335 313.948L18.2577 313.567ZM18.2577 312.083L17.9335 311.702L17.9334 311.702L18.2577 312.083ZM24.5679 306.71L24.2522 306.322L24.2437 306.329L24.5679 306.71ZM25.9252 306.835L26.3059 306.51L26.3055 306.51L25.9252 306.835ZM25.8307 308.195L26.155 308.576L26.1631 308.568L25.8307 308.195ZM20.3941 312.825L20.07 312.444L19.623 312.825L20.0699 313.205L20.3941 312.825ZM25.8307 317.456L26.1632 317.082L26.1549 317.075L25.8307 317.456ZM25.9252 318.815L25.5446 318.491L25.5444 318.491L25.9252 318.815ZM24.5679 318.94L24.2436 319.321L24.2526 319.329L24.5679 318.94ZM9.08763 285.511C7.10725 285.505 5.49606 287.105 5.4905 289.086L6.49049 289.089C6.49451 287.661 7.65622 286.507 9.0843 286.511L9.08763 285.511ZM12.6675 289.103C12.6705 287.123 11.0676 285.515 9.08673 285.511L9.0852 286.511C10.5137 286.514 11.6697 287.673 11.6675 289.102L12.6675 289.103ZM9.07519 292.684C11.0563 292.687 12.6645 291.084 12.6675 289.103L11.6675 289.102C11.6653 290.53 10.5058 291.686 9.07672 291.684L9.07519 292.684ZM9.06638 292.684H9.07595V291.684H9.06638V292.684ZM5.4905 289.086C5.48392 291.067 7.08445 292.677 9.06472 292.684L9.06804 291.684C7.63985 291.679 6.48575 290.517 6.49049 289.089L5.4905 289.086ZM9.07595 289.734H9.07247V290.734H9.07595V289.734ZM9.71472 289.099C9.71399 289.449 9.42871 289.734 9.07665 289.734L9.07526 290.734C9.97862 290.735 10.7128 290.004 10.7147 289.101L9.71472 289.099ZM9.07961 288.462C9.43099 288.462 9.7152 288.747 9.71472 289.099L10.7147 289.1C10.716 288.197 9.98504 287.463 9.081 287.462L9.07961 288.462ZM9.07595 288.462H9.08031V287.462H9.07595V288.462ZM8.43849 289.096C8.43898 288.745 8.72418 288.461 9.07491 288.462L9.07699 287.462C8.17318 287.46 7.43975 288.192 7.4385 289.095L8.43849 289.096ZM9.07351 289.734C8.7216 289.733 8.43776 289.447 8.43849 289.097L7.4385 289.095C7.43661 289.998 8.16792 290.732 9.07143 290.734L9.07351 289.734ZM18.55 291.713C17.1228 291.707 15.9697 290.547 15.9719 289.119L14.9719 289.117C14.9689 291.096 16.567 292.704 18.5456 292.713L18.55 291.713ZM18.5574 291.713H18.5478V292.713H18.5574V291.713ZM21.1428 289.135C21.137 290.56 19.9813 291.711 18.5569 291.713L18.5579 292.713C20.5324 292.711 22.1347 291.114 22.1428 289.139L21.1428 289.135ZM21.1428 289.128V289.137H22.1428V289.128H21.1428ZM18.5656 286.542C19.9901 286.547 21.1425 287.703 21.1428 289.128L22.1428 289.128C22.1423 287.152 20.5444 285.549 18.5692 285.542L18.5656 286.542ZM18.5574 286.542H18.5674V285.542H18.5574V286.542ZM15.9719 289.12C15.977 287.695 17.1328 286.542 18.5575 286.542L18.5573 285.542C16.5814 285.542 14.979 287.141 14.9719 289.116L15.9719 289.12ZM18.5596 287.492C18.1251 287.49 17.7091 287.663 17.4034 287.97L18.112 288.675C18.2295 288.557 18.389 288.491 18.5552 288.492L18.5596 287.492ZM18.5613 287.492H18.5574V288.492H18.5613V287.492ZM20.1948 289.13C20.1967 288.227 19.4654 287.493 18.562 287.492L18.5606 288.492C18.9117 288.493 19.1956 288.778 19.1948 289.128L20.1948 289.13ZM18.5563 290.763C19.4595 290.765 20.193 290.034 20.1948 289.13L19.1948 289.128C19.1941 289.48 18.9089 289.763 18.5584 289.763L18.5563 290.763ZM18.5543 290.763H18.5574V289.763H18.5543V290.763ZM17.0448 289.749C17.2958 290.361 17.8918 290.761 18.5534 290.763L18.5553 289.763C18.2984 289.762 18.0673 289.607 17.9701 289.37L17.0448 289.749ZM17.4058 287.967C16.9356 288.433 16.7936 289.137 17.0449 289.749L17.9699 289.369C17.8722 289.131 17.9278 288.858 18.1096 288.678L17.4058 287.967ZM28.0395 291.743H28.0295V292.743H28.0395V291.743ZM30.6245 289.165C30.6198 290.59 29.4638 291.742 28.0392 291.743L28.0398 292.743C30.0149 292.742 31.6179 291.144 31.6245 289.168L30.6245 289.165ZM30.6245 289.157V289.166H31.6245V289.157H30.6245ZM28.0456 286.571C29.4707 286.577 30.6231 287.733 30.6245 289.157L31.6245 289.156C31.6225 287.181 30.0246 285.58 28.0499 285.571L28.0456 286.571ZM28.0395 286.571H28.0478V285.571H28.0395V286.571ZM25.4488 289.153C25.451 287.725 26.6106 286.569 28.0387 286.571L28.0403 285.571C26.06 285.568 24.4519 287.171 24.4488 289.151L25.4488 289.153ZM28.0304 291.743C26.6026 291.74 25.4466 290.581 25.4488 289.153L24.4488 289.151C24.4458 291.132 26.0488 292.739 28.0286 292.743L28.0304 291.743ZM28.0421 287.521H28.0395V288.521H28.0421V287.521ZM29.6756 289.16C29.6775 288.256 28.9457 287.523 28.0428 287.521L28.0414 288.521C28.3922 288.522 28.6764 288.807 28.6757 289.157L29.6756 289.16ZM28.0392 290.792C28.9418 290.793 29.675 290.062 29.6756 289.159L28.6756 289.158C28.6754 289.508 28.3909 289.793 28.0398 289.792L28.0392 290.792ZM28.0351 290.792H28.0395V289.792H28.0351V290.792ZM26.4016 289.154C26.4004 290.057 27.1313 290.791 28.0341 290.792L28.0362 289.792C27.6853 289.792 27.4011 289.507 27.4016 289.156L26.4016 289.154ZM28.0402 287.521C27.1371 287.52 26.4035 288.25 26.4016 289.154L27.4016 289.156C27.4023 288.805 27.6873 288.521 28.0388 288.521L28.0402 287.521ZM33.4276 302.113C32.6303 301.945 31.8487 302.456 31.6808 303.252L32.6594 303.458C32.7135 303.201 32.9653 303.037 33.2214 303.091L33.4276 302.113ZM34.5675 303.859C34.7339 303.063 34.2248 302.281 33.4276 302.113L33.2214 303.091C33.4777 303.145 33.6424 303.397 33.5886 303.655L34.5675 303.859ZM30.6352 322.531L34.5673 303.86L33.5888 303.654L29.6567 322.325L30.6352 322.531ZM29.1926 323.703C29.8893 323.702 30.491 323.214 30.6351 322.531L29.6567 322.325C29.6102 322.545 29.4161 322.702 29.1917 322.703L29.1926 323.703ZM28.8903 323.672C28.9888 323.692 29.0897 323.703 29.1922 323.703V322.703C29.1579 322.703 29.1239 322.699 29.0901 322.692L28.8903 323.672ZM27.7483 321.924C27.5802 322.721 28.0905 323.502 28.8863 323.671L29.0941 322.693C28.8364 322.638 28.6729 322.386 28.7268 322.13L27.7483 321.924ZM31.6808 303.252L27.7483 321.924L28.7268 322.13L32.6594 303.458L31.6808 303.252ZM44.9209 311.702L38.6107 306.329L37.9625 307.091L44.2727 312.463L44.9209 311.702ZM45.4403 312.825C45.4403 312.392 45.2499 311.981 44.9206 311.702L44.273 312.464C44.3791 312.554 44.4403 312.686 44.4403 312.825H45.4403ZM44.9211 313.948C45.2496 313.668 45.4403 313.259 45.4403 312.825H44.4403C44.4403 312.964 44.3793 313.096 44.2725 313.187L44.9211 313.948ZM38.6107 319.321L44.921 313.948L44.2727 313.187L37.9624 318.56L38.6107 319.321ZM37.1538 319.605C37.6591 319.781 38.2197 319.67 38.6192 319.314L37.954 318.567C37.8259 318.681 37.6456 318.717 37.4822 318.661L37.1538 319.605ZM36.1856 318.467C36.2778 318.994 36.6488 319.43 37.1542 319.605L37.4819 318.66C37.3195 318.604 37.2003 318.464 37.1707 318.295L36.1856 318.467ZM36.7087 317.067C36.2932 317.404 36.0928 317.94 36.1857 318.467L37.1705 318.294C37.1407 318.125 37.2049 317.953 37.3388 317.844L36.7087 317.067ZM42.1361 312.444L36.6995 317.075L37.348 317.836L42.7845 313.205L42.1361 312.444ZM36.6996 308.576L42.1361 313.205L42.7845 312.444L37.3479 307.814L36.6996 308.576ZM36.5485 306.51C36.0289 307.121 36.0922 308.035 36.6913 308.568L37.3562 307.821C37.1631 307.649 37.1428 307.355 37.3101 307.159L36.5485 306.51ZM38.6021 306.322C37.9799 305.816 37.0685 305.901 36.5489 306.51L37.3097 307.159C37.4779 306.962 37.7715 306.936 37.971 307.098L38.6021 306.322ZM17.4146 312.825C17.4146 313.257 17.6043 313.668 17.9334 313.948L18.5819 313.187C18.4757 313.096 18.4146 312.964 18.4146 312.825H17.4146ZM17.9334 311.702C17.6044 311.982 17.4146 312.393 17.4146 312.825H18.4146C18.4146 312.686 18.4756 312.554 18.5819 312.463L17.9334 311.702ZM24.2437 306.329L17.9335 311.702L18.5818 312.463L24.892 307.091L24.2437 306.329ZM26.3055 306.51C25.7859 305.901 24.8746 305.816 24.2523 306.322L24.8834 307.098C25.083 306.936 25.3766 306.962 25.5448 307.159L26.3055 306.51ZM26.1631 308.568C26.7622 308.035 26.8256 307.121 26.3059 306.51L25.5444 307.159C25.7116 307.355 25.6914 307.649 25.4983 307.821L26.1631 308.568ZM20.7183 313.205L26.1549 308.576L25.5065 307.814L20.07 312.444L20.7183 313.205ZM26.1549 317.075L20.7184 312.444L20.0699 313.205L25.5065 317.836L26.1549 317.075ZM26.3057 319.139C26.8258 318.529 26.7621 317.615 26.1631 317.082L25.4983 317.829C25.6915 318.001 25.7114 318.295 25.5446 318.491L26.3057 319.139ZM24.2526 319.329C24.8746 319.834 25.7861 319.75 26.3059 319.139L25.5444 318.491C25.3765 318.688 25.083 318.715 24.8832 318.552L24.2526 319.329ZM17.9335 313.948L24.2437 319.321L24.892 318.56L18.5818 313.187L17.9335 313.948Z" fill="white" mask="url(#path-11-inside-1)"/>
<g clip-path="url(#clip0)">
<path fill-rule="evenodd" clip-rule="evenodd" d="M498.135 92.178C497.632 92.5884 497.155 93.0297 496.706 93.4986C494.505 94.3662 492.52 95.7012 490.885 97.4117C490.66 97.2009 490.439 96.9833 490.225 96.7586C492.37 94.5083 495.115 92.9188 498.135 92.178ZM485.732 107.212C485.892 103.842 487.101 100.606 489.188 97.9551C489.539 98.3152 489.904 98.659 490.28 98.9868C488.647 101.432 487.71 104.275 487.571 107.212H485.732ZM485.732 108.788H487.571C487.71 111.725 488.647 114.569 490.28 117.013C489.902 117.34 489.538 117.684 489.188 118.045C487.101 115.394 485.892 112.158 485.732 108.788ZM495.695 121.345C494.088 120.527 492.626 119.45 491.37 118.156C490.973 118.498 490.59 118.859 490.225 119.242C492.37 121.492 495.114 123.081 498.133 123.822C497.234 123.087 496.416 122.256 495.695 121.345Z" fill="#E7E7E8"/>
<mask id="path-15-inside-2" fill="white">
<path fill-rule="evenodd" clip-rule="evenodd" d="M508.04 82.9716C517.432 85.2352 524.764 92.5684 527.029 101.96C530.337 101.998 533 104.691 533 108C533 111.309 530.337 114.002 527.029 114.04C524.764 123.432 517.432 130.764 508.04 133.029C508.002 136.337 505.309 139 502 139C498.691 139 495.998 136.337 495.96 133.029C486.568 130.764 479.235 123.432 476.972 114.04C473.662 114.002 471 111.309 471 108C471 104.691 473.662 101.998 476.972 101.96C479.235 92.5684 486.568 85.2352 495.96 82.9716C495.998 79.6623 498.691 77 502 77C505.309 77 508.002 79.6623 508.04 82.9716ZM506.466 83.0444C506.463 80.5791 504.465 78.5818 502 78.5787C499.535 78.5818 497.537 80.5791 497.534 83.0444C497.534 83.1994 497.542 83.3538 497.558 83.5077C497.796 85.7811 499.712 87.5081 501.998 87.5091C504.283 87.5101 506.201 85.7852 506.441 83.5123C506.458 83.3569 506.466 83.2009 506.466 83.0444ZM477.044 103.534C474.579 103.537 472.582 105.535 472.579 108C472.582 110.465 474.579 112.463 477.044 112.466C477.199 112.466 477.354 112.458 477.508 112.441C479.781 112.203 481.508 110.288 481.509 108.002C481.51 105.717 479.785 103.799 477.512 103.559C477.357 103.542 477.201 103.534 477.044 103.534ZM497.534 132.955C497.537 135.421 499.535 137.418 502 137.421C504.465 137.418 506.463 135.421 506.466 132.955C506.466 132.801 506.458 132.646 506.441 132.492C506.204 130.219 504.288 128.492 502.002 128.491C499.717 128.49 497.799 130.214 497.559 132.488C497.542 132.643 497.534 132.799 497.534 132.955ZM502 126.913C504.758 126.913 507.166 128.781 507.853 131.453C516.522 129.291 523.291 122.523 525.452 113.854C522.781 113.167 520.913 110.759 520.913 108C520.913 105.242 522.781 102.834 525.452 102.147C523.291 93.4776 516.523 86.7087 507.854 84.5477C507.167 87.2192 504.759 89.0862 502 89.0862C499.242 89.0862 496.834 87.2192 496.147 84.5477C487.478 86.7087 480.709 93.4776 478.548 102.146C481.219 102.833 483.086 105.242 483.086 108C483.086 110.758 481.219 113.166 478.548 113.853C480.709 122.522 487.478 129.291 496.146 131.453C496.833 128.781 499.242 126.913 502 126.913ZM526.488 112.441C526.643 112.458 526.799 112.466 526.955 112.466C529.422 112.466 531.421 110.466 531.421 108C531.421 105.534 529.422 103.534 526.955 103.534C526.8 103.534 526.646 103.542 526.492 103.559C524.219 103.797 522.492 105.713 522.491 107.998C522.49 110.283 524.215 112.201 526.488 112.441ZM502 125.863C492.15 125.863 484.137 117.85 484.137 108C484.137 98.1505 492.15 90.137 502 90.137C511.849 90.137 519.862 98.1505 519.862 108C519.862 117.85 511.849 125.863 502 125.863ZM491.479 107.212C491.531 104.991 491.892 102.789 492.551 100.667C491.325 99.9026 490.195 98.9919 489.188 97.955C487.101 100.606 485.892 103.842 485.732 107.212H491.479ZM518.267 107.212C518.107 103.843 516.9 100.609 514.814 97.9586C513.81 99.0017 512.681 99.917 511.453 100.684C512.109 102.8 512.468 104.997 512.52 107.212H518.267ZM512.52 108.788C512.468 111.003 512.109 113.2 511.453 115.316C512.681 116.083 513.81 116.998 514.814 118.041C516.899 115.392 518.107 112.157 518.266 108.788H512.52ZM485.732 108.788C485.892 112.158 487.101 115.394 489.188 118.045C490.195 117.008 491.325 116.097 492.552 115.333C491.892 113.212 491.532 111.009 491.479 108.788H485.732ZM501.211 108.788H493.056C493.106 110.738 493.409 112.673 493.958 114.544C496.215 113.407 498.687 112.764 501.211 112.656V108.788ZM501.211 124.003V114.233C498.862 114.344 496.565 114.963 494.478 116.048C495.849 119.55 498.16 122.323 501.211 124.003ZM502.788 114.23V124.003C505.844 122.32 508.158 119.54 509.529 116.03C507.441 114.943 505.14 114.328 502.788 114.23ZM502.788 108.788V112.652C505.313 112.749 507.789 113.387 510.046 114.525C510.592 112.659 510.894 110.731 510.943 108.788H502.788ZM502.788 107.212H510.943C510.894 105.269 510.592 103.34 510.046 101.474C507.789 102.612 505.313 103.25 502.788 103.347V107.212ZM502.788 91.9978V101.77C505.14 101.671 507.441 101.056 509.529 99.9693C508.158 96.4595 505.844 93.6792 502.788 91.9978ZM501.211 101.767V91.9984C498.16 93.6771 495.849 96.4507 494.478 99.9519C496.565 101.037 498.862 101.656 501.211 101.767ZM501.211 107.212V103.344C498.687 103.237 496.215 102.593 493.958 101.456C493.409 103.327 493.106 105.262 493.056 107.212H501.211ZM493.099 116.853C492.053 117.536 491.088 118.338 490.225 119.241C492.37 121.491 495.115 123.081 498.134 123.822C495.946 122.04 494.239 119.663 493.099 116.853ZM510.906 116.838C509.767 119.654 508.057 122.037 505.865 123.822C508.886 123.08 511.631 121.49 513.777 119.238C512.917 118.329 511.953 117.524 510.906 116.838ZM510.906 99.1618C511.953 98.4763 512.917 97.6708 513.777 96.7611C511.631 94.5093 508.885 92.9188 505.864 92.1779C508.056 93.9629 509.766 96.3456 510.906 99.1618ZM498.134 92.1782C495.946 93.9594 494.239 96.3372 493.1 99.1459C492.053 98.4635 491.088 97.6621 490.225 96.7586C492.371 94.508 495.115 92.9186 498.134 92.1782Z"/>
</mask>
<path fill-rule="evenodd" clip-rule="evenodd" d="M508.04 82.9716C517.432 85.2352 524.764 92.5684 527.029 101.96C530.337 101.998 533 104.691 533 108C533 111.309 530.337 114.002 527.029 114.04C524.764 123.432 517.432 130.764 508.04 133.029C508.002 136.337 505.309 139 502 139C498.691 139 495.998 136.337 495.96 133.029C486.568 130.764 479.235 123.432 476.972 114.04C473.662 114.002 471 111.309 471 108C471 104.691 473.662 101.998 476.972 101.96C479.235 92.5684 486.568 85.2352 495.96 82.9716C495.998 79.6623 498.691 77 502 77C505.309 77 508.002 79.6623 508.04 82.9716ZM506.466 83.0444C506.463 80.5791 504.465 78.5818 502 78.5787C499.535 78.5818 497.537 80.5791 497.534 83.0444C497.534 83.1994 497.542 83.3538 497.558 83.5077C497.796 85.7811 499.712 87.5081 501.998 87.5091C504.283 87.5101 506.201 85.7852 506.441 83.5123C506.458 83.3569 506.466 83.2009 506.466 83.0444ZM477.044 103.534C474.579 103.537 472.582 105.535 472.579 108C472.582 110.465 474.579 112.463 477.044 112.466C477.199 112.466 477.354 112.458 477.508 112.441C479.781 112.203 481.508 110.288 481.509 108.002C481.51 105.717 479.785 103.799 477.512 103.559C477.357 103.542 477.201 103.534 477.044 103.534ZM497.534 132.955C497.537 135.421 499.535 137.418 502 137.421C504.465 137.418 506.463 135.421 506.466 132.955C506.466 132.801 506.458 132.646 506.441 132.492C506.204 130.219 504.288 128.492 502.002 128.491C499.717 128.49 497.799 130.214 497.559 132.488C497.542 132.643 497.534 132.799 497.534 132.955ZM502 126.913C504.758 126.913 507.166 128.781 507.853 131.453C516.522 129.291 523.291 122.523 525.452 113.854C522.781 113.167 520.913 110.759 520.913 108C520.913 105.242 522.781 102.834 525.452 102.147C523.291 93.4776 516.523 86.7087 507.854 84.5477C507.167 87.2192 504.759 89.0862 502 89.0862C499.242 89.0862 496.834 87.2192 496.147 84.5477C487.478 86.7087 480.709 93.4776 478.548 102.146C481.219 102.833 483.086 105.242 483.086 108C483.086 110.758 481.219 113.166 478.548 113.853C480.709 122.522 487.478 129.291 496.146 131.453C496.833 128.781 499.242 126.913 502 126.913ZM526.488 112.441C526.643 112.458 526.799 112.466 526.955 112.466C529.422 112.466 531.421 110.466 531.421 108C531.421 105.534 529.422 103.534 526.955 103.534C526.8 103.534 526.646 103.542 526.492 103.559C524.219 103.797 522.492 105.713 522.491 107.998C522.49 110.283 524.215 112.201 526.488 112.441ZM502 125.863C492.15 125.863 484.137 117.85 484.137 108C484.137 98.1505 492.15 90.137 502 90.137C511.849 90.137 519.862 98.1505 519.862 108C519.862 117.85 511.849 125.863 502 125.863ZM491.479 107.212C491.531 104.991 491.892 102.789 492.551 100.667C491.325 99.9026 490.195 98.9919 489.188 97.955C487.101 100.606 485.892 103.842 485.732 107.212H491.479ZM518.267 107.212C518.107 103.843 516.9 100.609 514.814 97.9586C513.81 99.0017 512.681 99.917 511.453 100.684C512.109 102.8 512.468 104.997 512.52 107.212H518.267ZM512.52 108.788C512.468 111.003 512.109 113.2 511.453 115.316C512.681 116.083 513.81 116.998 514.814 118.041C516.899 115.392 518.107 112.157 518.266 108.788H512.52ZM485.732 108.788C485.892 112.158 487.101 115.394 489.188 118.045C490.195 117.008 491.325 116.097 492.552 115.333C491.892 113.212 491.532 111.009 491.479 108.788H485.732ZM501.211 108.788H493.056C493.106 110.738 493.409 112.673 493.958 114.544C496.215 113.407 498.687 112.764 501.211 112.656V108.788ZM501.211 124.003V114.233C498.862 114.344 496.565 114.963 494.478 116.048C495.849 119.55 498.16 122.323 501.211 124.003ZM502.788 114.23V124.003C505.844 122.32 508.158 119.54 509.529 116.03C507.441 114.943 505.14 114.328 502.788 114.23ZM502.788 108.788V112.652C505.313 112.749 507.789 113.387 510.046 114.525C510.592 112.659 510.894 110.731 510.943 108.788H502.788ZM502.788 107.212H510.943C510.894 105.269 510.592 103.34 510.046 101.474C507.789 102.612 505.313 103.25 502.788 103.347V107.212ZM502.788 91.9978V101.77C505.14 101.671 507.441 101.056 509.529 99.9693C508.158 96.4595 505.844 93.6792 502.788 91.9978ZM501.211 101.767V91.9984C498.16 93.6771 495.849 96.4507 494.478 99.9519C496.565 101.037 498.862 101.656 501.211 101.767ZM501.211 107.212V103.344C498.687 103.237 496.215 102.593 493.958 101.456C493.409 103.327 493.106 105.262 493.056 107.212H501.211ZM493.099 116.853C492.053 117.536 491.088 118.338 490.225 119.241C492.37 121.491 495.115 123.081 498.134 123.822C495.946 122.04 494.239 119.663 493.099 116.853ZM510.906 116.838C509.767 119.654 508.057 122.037 505.865 123.822C508.886 123.08 511.631 121.49 513.777 119.238C512.917 118.329 511.953 117.524 510.906 116.838ZM510.906 99.1618C511.953 98.4763 512.917 97.6708 513.777 96.7611C511.631 94.5093 508.885 92.9188 505.864 92.1779C508.056 93.9629 509.766 96.3456 510.906 99.1618ZM498.134 92.1782C495.946 93.9594 494.239 96.3372 493.1 99.1459C492.053 98.4635 491.088 97.6621 490.225 96.7586C492.371 94.508 495.115 92.9186 498.134 92.1782Z" fill="#071D5B"/>
<path d="M527.029 101.96L526.834 102.007L526.871 102.158L527.026 102.16L527.029 101.96ZM508.04 82.9716L507.84 82.9738L507.842 83.1295L507.993 83.166L508.04 82.9716ZM527.029 114.04L527.026 113.84L526.871 113.842L526.834 113.993L527.029 114.04ZM508.04 133.029L507.993 132.834L507.842 132.871L507.84 133.026L508.04 133.029ZM495.96 133.029L496.16 133.026L496.158 132.871L496.007 132.834L495.96 133.029ZM476.972 114.04L477.166 113.993L477.13 113.842L476.974 113.84L476.972 114.04ZM476.972 101.96L476.974 102.16L477.13 102.158L477.166 102.007L476.972 101.96ZM495.96 82.9716L496.007 83.166L496.158 83.1295L496.16 82.9738L495.96 82.9716ZM502 78.5787L502 78.3787L502 78.3787L502 78.5787ZM506.466 83.0444L506.266 83.0446V83.0451L506.466 83.0444ZM497.534 83.0444L497.334 83.0442V83.0444H497.534ZM497.558 83.5077L497.757 83.4869L497.757 83.4865L497.558 83.5077ZM506.441 83.5123L506.242 83.4907L506.242 83.4914L506.441 83.5123ZM472.579 108L472.379 108L472.379 108L472.579 108ZM477.044 103.534V103.334H477.044L477.044 103.534ZM477.044 112.466L477.045 112.266H477.045L477.044 112.466ZM477.508 112.441L477.487 112.243L477.487 112.243L477.508 112.441ZM481.509 108.002L481.309 108.002L481.509 108.002ZM477.512 103.559L477.533 103.36L477.533 103.36L477.512 103.559ZM502 137.421L502 137.621H502L502 137.421ZM497.534 132.955H497.334V132.956L497.534 132.955ZM506.466 132.955L506.266 132.955V132.955L506.466 132.955ZM506.441 132.492L506.243 132.513L506.243 132.513L506.441 132.492ZM502.002 128.491L502.003 128.291H502.002L502.002 128.491ZM497.559 132.488L497.36 132.467L497.559 132.488ZM507.853 131.453L507.66 131.502L507.709 131.695L507.902 131.647L507.853 131.453ZM525.452 113.854L525.646 113.902L525.694 113.71L525.502 113.66L525.452 113.854ZM525.452 102.147L525.502 102.341L525.694 102.291L525.646 102.098L525.452 102.147ZM507.854 84.5477L507.902 84.3536L507.71 84.3056L507.66 84.4979L507.854 84.5477ZM496.147 84.5477L496.341 84.4979L496.291 84.3056L496.098 84.3536L496.147 84.5477ZM478.548 102.146L478.354 102.098L478.306 102.291L478.498 102.34L478.548 102.146ZM478.548 113.853L478.498 113.66L478.306 113.709L478.354 113.902L478.548 113.853ZM496.146 131.453L496.098 131.647L496.291 131.695L496.34 131.502L496.146 131.453ZM526.955 112.466V112.266H526.955L526.955 112.466ZM526.488 112.441L526.51 112.242L526.509 112.242L526.488 112.441ZM526.492 103.559L526.513 103.758L526.513 103.758L526.492 103.559ZM522.491 107.998L522.291 107.998L522.491 107.998ZM492.551 100.667L492.742 100.726L492.788 100.579L492.657 100.497L492.551 100.667ZM491.479 107.212V107.412H491.675L491.679 107.216L491.479 107.212ZM489.188 97.955L489.331 97.8157L489.172 97.6518L489.031 97.8313L489.188 97.955ZM485.732 107.212L485.533 107.202L485.523 107.412H485.732V107.212ZM514.814 97.9586L514.972 97.8349L514.83 97.6545L514.67 97.8199L514.814 97.9586ZM518.267 107.212V107.412H518.476L518.467 107.202L518.267 107.212ZM511.453 100.684L511.347 100.514L511.216 100.596L511.262 100.743L511.453 100.684ZM512.52 107.212L512.321 107.216L512.325 107.412H512.52V107.212ZM511.453 115.316L511.262 115.257L511.217 115.404L511.347 115.486L511.453 115.316ZM512.52 108.788V108.588H512.325L512.321 108.783L512.52 108.788ZM514.814 118.041L514.67 118.18L514.829 118.346L514.971 118.165L514.814 118.041ZM518.266 108.788L518.466 108.797L518.476 108.588H518.266V108.788ZM489.188 118.045L489.031 118.168L489.172 118.348L489.331 118.184L489.188 118.045ZM485.732 108.788V108.588H485.523L485.533 108.797L485.732 108.788ZM492.552 115.333L492.658 115.503L492.789 115.421L492.743 115.274L492.552 115.333ZM491.479 108.788L491.679 108.783L491.675 108.588H491.479V108.788ZM493.056 108.788V108.588H492.851L492.856 108.793L493.056 108.788ZM501.211 108.788H501.411V108.588H501.211V108.788ZM493.958 114.544L493.766 114.6L493.834 114.83L494.048 114.723L493.958 114.544ZM501.211 112.656L501.22 112.856L501.411 112.847V112.656H501.211ZM501.211 114.233H501.411V114.023L501.202 114.033L501.211 114.233ZM501.211 124.003L501.115 124.178L501.411 124.341V124.003H501.211ZM494.478 116.048L494.385 115.87L494.226 115.953L494.291 116.121L494.478 116.048ZM502.788 124.003H502.588V124.341L502.884 124.178L502.788 124.003ZM502.788 114.23L502.796 114.03L502.588 114.021V114.23H502.788ZM509.529 116.03L509.716 116.103L509.781 115.936L509.622 115.853L509.529 116.03ZM502.788 112.652H502.588V112.845L502.78 112.852L502.788 112.652ZM502.788 108.788V108.588H502.588V108.788H502.788ZM510.046 114.525L509.956 114.704L510.171 114.812L510.238 114.581L510.046 114.525ZM510.943 108.788L511.143 108.793L511.148 108.588H510.943V108.788ZM510.943 107.212V107.412H511.148L511.143 107.207L510.943 107.212ZM502.788 107.212H502.588V107.412H502.788V107.212ZM510.046 101.474L510.238 101.418L510.17 101.187L509.956 101.296L510.046 101.474ZM502.788 103.347L502.78 103.147L502.588 103.155V103.347H502.788ZM502.788 101.77H502.588V101.978L502.796 101.969L502.788 101.77ZM502.788 91.9978L502.884 91.8226L502.588 91.6596V91.9978H502.788ZM509.529 99.9693L509.621 100.147L509.78 100.064L509.715 99.8966L509.529 99.9693ZM501.211 91.9984H501.411V91.6601L501.115 91.8231L501.211 91.9984ZM501.211 101.767L501.202 101.966L501.411 101.976V101.767H501.211ZM494.478 99.9519L494.291 99.8789L494.226 100.046L494.385 100.129L494.478 99.9519ZM501.211 103.344H501.411V103.153L501.22 103.144L501.211 103.344ZM501.211 107.212V107.412H501.411V107.212H501.211ZM493.958 101.456L494.048 101.278L493.834 101.17L493.766 101.4L493.958 101.456ZM493.056 107.212L492.856 107.207L492.851 107.412H493.056V107.212ZM490.225 119.241L490.081 119.103L489.949 119.241L490.08 119.379L490.225 119.241ZM493.099 116.853L493.285 116.778L493.194 116.553L492.99 116.686L493.099 116.853ZM498.134 123.822L498.086 124.016L498.26 123.667L498.134 123.822ZM505.865 123.822L505.739 123.667L505.913 124.016L505.865 123.822ZM510.906 116.838L511.015 116.671L510.812 116.537L510.72 116.763L510.906 116.838ZM513.777 119.238L513.922 119.376L514.053 119.239L513.922 119.101L513.777 119.238ZM513.777 96.7611L513.922 96.8986L514.053 96.7606L513.922 96.6231L513.777 96.7611ZM510.906 99.1618L510.72 99.2368L510.812 99.4624L511.015 99.3291L510.906 99.1618ZM505.864 92.1779L505.912 91.9837L505.738 92.333L505.864 92.1779ZM498.134 92.1782L498.261 92.3332L498.087 91.9839L498.134 92.1782ZM493.1 99.1459L492.991 99.3134L493.194 99.4459L493.285 99.221L493.1 99.1459ZM490.225 96.7586L490.08 96.6206L489.949 96.7587L490.081 96.8967L490.225 96.7586ZM527.223 101.913C524.941 92.4486 517.552 85.0584 508.087 82.7771L507.993 83.166C517.312 85.412 524.588 92.6883 526.834 102.007L527.223 101.913ZM533.2 108C533.2 104.582 530.449 101.799 527.031 101.76L527.026 102.16C530.226 102.197 532.8 104.801 532.8 108H533.2ZM527.031 114.24C530.449 114.201 533.2 111.419 533.2 108H532.8C532.8 111.2 530.226 113.803 527.026 113.84L527.031 114.24ZM508.087 133.223C517.552 130.941 524.941 123.552 527.223 114.087L526.834 113.993C524.588 123.312 517.312 130.588 507.993 132.834L508.087 133.223ZM502 139.2C505.419 139.2 508.201 136.449 508.24 133.031L507.84 133.026C507.803 136.226 505.2 138.8 502 138.8V139.2ZM495.76 133.031C495.799 136.449 498.582 139.2 502 139.2V138.8C498.801 138.8 496.197 136.226 496.16 133.026L495.76 133.031ZM476.777 114.087C479.058 123.552 486.449 130.941 495.913 133.223L496.007 132.834C486.688 130.588 479.412 123.312 477.166 113.993L476.777 114.087ZM470.8 108C470.8 111.419 473.55 114.201 476.969 114.24L476.974 113.84C473.774 113.803 471.2 111.2 471.2 108H470.8ZM476.969 101.76C473.55 101.799 470.8 104.582 470.8 108H471.2C471.2 104.801 473.774 102.197 476.974 102.16L476.969 101.76ZM495.913 82.7771C486.449 85.0584 479.058 92.4486 476.777 101.913L477.166 102.007C479.412 92.6883 486.688 85.412 496.007 83.166L495.913 82.7771ZM502 76.8C498.582 76.8 495.799 79.5505 495.76 82.9693L496.16 82.9738C496.197 79.7741 498.801 77.2 502 77.2V76.8ZM508.24 82.9693C508.201 79.5504 505.419 76.8 502 76.8V77.2C505.2 77.2 507.803 79.7741 507.84 82.9738L508.24 82.9693ZM502 78.7787C504.355 78.7816 506.263 80.6897 506.266 83.0446L506.666 83.0442C506.663 80.4686 504.576 78.3819 502 78.3787L502 78.7787ZM497.734 83.0447C497.737 80.6896 499.645 78.7816 502 78.7787L502 78.3787C499.424 78.3819 497.337 80.4686 497.334 83.0442L497.734 83.0447ZM497.757 83.4865C497.741 83.3401 497.734 83.1927 497.734 83.0444H497.334C497.334 83.206 497.342 83.3675 497.359 83.5289L497.757 83.4865ZM501.998 87.3091C499.815 87.3081 497.985 85.6585 497.757 83.4869L497.359 83.5285C497.608 85.9037 499.61 87.708 501.998 87.7091L501.998 87.3091ZM506.242 83.4914C506.013 85.6624 504.181 87.3101 501.998 87.3091L501.998 87.7091C504.386 87.7102 506.389 85.908 506.64 83.5333L506.242 83.4914ZM506.266 83.0451C506.266 83.1941 506.258 83.3426 506.242 83.4907L506.64 83.534C506.657 83.3711 506.666 83.2077 506.666 83.0438L506.266 83.0451ZM472.779 108C472.782 105.645 474.69 103.737 477.045 103.734L477.044 103.334C474.469 103.337 472.382 105.424 472.379 108L472.779 108ZM477.045 112.266C474.69 112.263 472.782 110.355 472.779 108L472.379 108C472.382 110.576 474.469 112.663 477.044 112.666L477.045 112.266ZM477.487 112.243C477.34 112.258 477.193 112.266 477.045 112.266L477.044 112.666C477.206 112.666 477.368 112.657 477.529 112.64L477.487 112.243ZM481.309 108.002C481.308 110.185 479.658 112.015 477.487 112.243L477.529 112.64C479.904 112.392 481.708 110.39 481.709 108.002L481.309 108.002ZM477.491 103.758C479.662 103.987 481.31 105.819 481.309 108.002L481.709 108.002C481.71 105.614 479.908 103.611 477.533 103.36L477.491 103.758ZM477.044 103.734C477.194 103.734 477.343 103.742 477.491 103.758L477.533 103.36C477.371 103.343 477.208 103.334 477.044 103.334V103.734ZM502 137.221C499.645 137.219 497.737 135.31 497.734 132.955L497.334 132.956C497.337 135.531 499.424 137.618 502 137.621L502 137.221ZM506.266 132.955C506.263 135.31 504.355 137.219 502 137.221L502 137.621C504.576 137.618 506.663 135.531 506.666 132.955L506.266 132.955ZM506.243 132.513C506.258 132.66 506.266 132.808 506.266 132.955L506.666 132.956C506.666 132.794 506.657 132.632 506.64 132.471L506.243 132.513ZM502.002 128.691C504.186 128.692 506.016 130.341 506.243 132.513L506.64 132.471C506.392 130.096 504.391 128.292 502.003 128.291L502.002 128.691ZM497.758 132.509C497.987 130.337 499.819 128.69 502.002 128.691L502.002 128.291C499.614 128.29 497.611 130.092 497.36 132.467L497.758 132.509ZM497.734 132.955C497.734 132.806 497.742 132.657 497.758 132.509L497.36 132.467C497.343 132.629 497.334 132.792 497.334 132.955H497.734ZM508.047 131.403C507.337 128.643 504.849 126.713 502 126.713V127.113C504.667 127.113 506.995 128.919 507.66 131.502L508.047 131.403ZM525.258 113.806C523.115 122.402 516.402 129.115 507.805 131.258L507.902 131.647C516.642 129.468 523.467 122.643 525.646 113.902L525.258 113.806ZM520.713 108C520.713 110.85 522.643 113.338 525.402 114.048L525.502 113.66C522.919 112.996 521.113 110.667 521.113 108H520.713ZM525.402 101.953C522.643 102.663 520.713 105.151 520.713 108H521.113C521.113 105.333 522.919 103.005 525.502 102.341L525.402 101.953ZM507.806 84.7417C516.402 86.8849 523.115 93.5977 525.258 102.195L525.646 102.098C523.468 93.3574 516.643 86.5325 507.902 84.3536L507.806 84.7417ZM502 89.2862C504.85 89.2862 507.338 87.3574 508.048 84.5975L507.66 84.4979C506.996 87.081 504.667 88.8862 502 88.8862V89.2862ZM495.953 84.5975C496.663 87.3574 499.151 89.2862 502 89.2862V88.8862C499.333 88.8862 497.005 87.081 496.341 84.4979L495.953 84.5975ZM478.742 102.195C480.885 93.5977 487.598 86.8849 496.195 84.7417L496.098 84.3536C487.357 86.5325 480.533 93.3574 478.354 102.098L478.742 102.195ZM483.286 108C483.286 105.15 481.357 102.662 478.597 101.953L478.498 102.34C481.081 103.004 482.886 105.333 482.886 108H483.286ZM478.597 114.047C481.357 113.337 483.286 110.849 483.286 108H482.886C482.886 110.667 481.081 112.995 478.498 113.66L478.597 114.047ZM496.195 131.258C487.598 129.115 480.885 122.402 478.742 113.805L478.354 113.902C480.533 122.642 487.357 129.467 496.098 131.647L496.195 131.258ZM502 126.713C499.15 126.713 496.662 128.643 495.953 131.403L496.34 131.502C497.004 128.919 499.333 127.113 502 127.113V126.713ZM526.955 112.266C526.806 112.266 526.657 112.258 526.51 112.242L526.466 112.64C526.629 112.657 526.793 112.666 526.956 112.666L526.955 112.266ZM531.221 108C531.221 110.356 529.311 112.266 526.955 112.266V112.666C529.532 112.666 531.621 110.577 531.621 108H531.221ZM526.955 103.734C529.311 103.734 531.221 105.644 531.221 108H531.621C531.621 105.423 529.532 103.334 526.955 103.334V103.734ZM526.513 103.758C526.66 103.742 526.807 103.734 526.955 103.734V103.334C526.793 103.334 526.632 103.343 526.471 103.36L526.513 103.758ZM522.691 107.998C522.692 105.815 524.341 103.985 526.513 103.758L526.471 103.36C524.096 103.609 522.292 105.61 522.291 107.998L522.691 107.998ZM526.509 112.242C524.338 112.013 522.69 110.181 522.691 107.998L522.291 107.998C522.29 110.386 524.092 112.389 526.467 112.64L526.509 112.242ZM483.937 108C483.937 117.96 492.04 126.063 502 126.063V125.663C492.261 125.663 484.337 117.739 484.337 108H483.937ZM502 89.937C492.04 89.937 483.937 98.0401 483.937 108H484.337C484.337 98.261 492.261 90.337 502 90.337V89.937ZM520.062 108C520.062 98.0401 511.96 89.937 502 89.937V90.337C511.739 90.337 519.662 98.261 519.662 108H520.062ZM502 126.063C511.96 126.063 520.062 117.96 520.062 108H519.662C519.662 117.739 511.739 125.663 502 125.663V126.063ZM492.36 100.608C491.696 102.747 491.331 104.968 491.279 107.207L491.679 107.216C491.731 105.014 492.089 102.83 492.742 100.726L492.36 100.608ZM489.044 98.0944C490.063 99.1429 491.205 100.064 492.446 100.837L492.657 100.497C491.444 99.7414 490.327 98.841 489.331 97.8157L489.044 98.0944ZM485.932 107.221C486.09 103.893 487.284 100.697 489.345 98.0788L489.031 97.8313C486.918 100.514 485.695 103.791 485.533 107.202L485.932 107.221ZM491.479 107.012H485.732V107.412H491.479V107.012ZM514.657 98.0823C516.717 100.7 517.909 103.895 518.067 107.221L518.467 107.202C518.305 103.792 517.083 100.518 514.972 97.8349L514.657 98.0823ZM511.559 100.854C512.8 100.078 513.942 99.1523 514.958 98.0974L514.67 97.8199C513.677 98.8511 512.561 99.7561 511.347 100.514L511.559 100.854ZM512.72 107.207C512.668 104.974 512.305 102.759 511.644 100.625L511.262 100.743C511.912 102.842 512.269 105.02 512.321 107.216L512.72 107.207ZM518.267 107.012H512.52V107.412H518.267V107.012ZM511.644 115.375C512.306 113.241 512.668 111.026 512.72 108.793L512.321 108.783C512.269 110.98 511.913 113.158 511.262 115.257L511.644 115.375ZM514.958 117.903C513.942 116.848 512.801 115.922 511.559 115.146L511.347 115.486C512.561 116.244 513.677 117.149 514.67 118.18L514.958 117.903ZM518.066 108.778C517.909 112.106 516.717 115.301 514.657 117.918L514.971 118.165C517.082 115.483 518.305 112.208 518.466 108.797L518.066 108.778ZM512.52 108.988H518.266V108.588H512.52V108.988ZM489.345 117.921C487.284 115.303 486.09 112.107 485.932 108.778L485.533 108.797C485.695 112.209 486.918 115.485 489.031 118.168L489.345 117.921ZM492.446 115.163C491.205 115.936 490.063 116.857 489.044 117.905L489.331 118.184C490.327 117.159 491.444 116.258 492.658 115.503L492.446 115.163ZM491.279 108.793C491.332 111.032 491.696 113.253 492.361 115.392L492.743 115.274C492.089 113.17 491.731 110.986 491.679 108.783L491.279 108.793ZM485.732 108.988H491.479V108.588H485.732V108.988ZM493.056 108.988H501.211V108.588H493.056V108.988ZM494.15 114.488C493.606 112.633 493.306 110.715 493.256 108.783L492.856 108.793C492.907 110.76 493.213 112.712 493.766 114.6L494.15 114.488ZM501.203 112.456C498.65 112.566 496.15 113.216 493.868 114.365L494.048 114.723C496.279 113.599 498.724 112.963 501.22 112.856L501.203 112.456ZM501.011 108.788V112.656H501.411V108.788H501.011ZM501.011 114.233V124.003H501.411V114.233H501.011ZM494.57 116.225C496.631 115.154 498.9 114.542 501.221 114.433L501.202 114.033C498.824 114.145 496.498 114.772 494.385 115.87L494.57 116.225ZM501.308 123.828C498.302 122.173 496.02 119.439 494.664 115.975L494.291 116.121C495.678 119.661 498.018 122.473 501.115 124.178L501.308 123.828ZM502.988 124.003V114.23H502.588V124.003H502.988ZM509.343 115.958C507.987 119.429 505.702 122.17 502.691 123.828L502.884 124.178C505.987 122.47 508.33 119.651 509.716 116.103L509.343 115.958ZM502.779 114.43C505.102 114.527 507.375 115.134 509.437 116.208L509.622 115.853C507.507 114.752 505.177 114.13 502.796 114.03L502.779 114.43ZM502.988 112.652V108.788H502.588V112.652H502.988ZM510.136 114.346C507.853 113.196 505.35 112.55 502.795 112.452L502.78 112.852C505.277 112.947 507.725 113.579 509.956 114.704L510.136 114.346ZM510.743 108.783C510.694 110.709 510.395 112.62 509.854 114.469L510.238 114.581C510.789 112.699 511.093 110.754 511.143 108.793L510.743 108.783ZM502.788 108.988H510.943V108.588H502.788V108.988ZM510.943 107.012H502.788V107.412H510.943V107.012ZM509.854 101.53C510.395 103.38 510.694 105.291 510.743 107.217L511.143 107.207C511.093 105.246 510.789 103.301 510.238 101.418L509.854 101.53ZM502.795 103.547C505.35 103.449 507.853 102.803 510.136 101.653L509.956 101.296C507.725 102.42 505.277 103.052 502.78 103.147L502.795 103.547ZM502.988 107.212V103.347H502.588V107.212H502.988ZM502.988 101.77V91.9978H502.588V101.77H502.988ZM509.436 99.7919C507.374 100.865 505.102 101.472 502.779 101.57L502.796 101.969C505.177 101.869 507.507 101.247 509.621 100.147L509.436 99.7919ZM502.691 92.1731C505.702 93.8291 507.986 96.5704 509.342 100.042L509.715 99.8966C508.329 96.3485 505.987 93.5292 502.884 91.8226L502.691 92.1731ZM501.011 91.9984V101.767H501.411V91.9984H501.011ZM494.664 100.025C496.021 96.5618 498.302 93.8271 501.308 92.1736L501.115 91.8231C498.018 93.5271 495.678 96.3397 494.291 99.8789L494.664 100.025ZM501.221 101.567C498.9 101.458 496.631 100.846 494.57 99.7744L494.385 100.129C496.498 101.228 498.824 101.855 501.202 101.966L501.221 101.567ZM501.011 103.344V107.212H501.411V103.344H501.011ZM493.868 101.635C496.15 102.784 498.65 103.435 501.203 103.544L501.22 103.144C498.724 103.038 496.279 102.401 494.048 101.278L493.868 101.635ZM493.256 107.217C493.306 105.285 493.606 103.367 494.15 101.512L493.766 101.4C493.213 103.288 492.907 105.24 492.856 107.207L493.256 107.217ZM501.211 107.012H493.056V107.412H501.211V107.012ZM490.37 119.379C491.222 118.487 492.175 117.695 493.209 117.021L492.99 116.686C491.931 117.377 490.954 118.188 490.081 119.103L490.37 119.379ZM498.181 123.627C495.199 122.896 492.489 121.326 490.37 119.103L490.08 119.379C492.252 121.657 495.03 123.266 498.086 124.016L498.181 123.627ZM492.914 116.928C494.065 119.766 495.792 122.172 498.007 123.977L498.26 123.667C496.101 121.908 494.413 119.559 493.285 116.778L492.914 116.928ZM505.992 123.977C508.212 122.169 509.941 119.757 511.091 116.913L510.72 116.763C509.593 119.55 507.902 121.905 505.739 123.667L505.992 123.977ZM513.632 119.101C511.513 121.325 508.801 122.895 505.818 123.627L505.913 124.016C508.971 123.265 511.75 121.656 513.922 119.376L513.632 119.101ZM510.796 117.005C511.83 117.683 512.782 118.478 513.632 119.376L513.922 119.101C513.051 118.181 512.076 117.365 511.015 116.671L510.796 117.005ZM513.632 96.6237C512.782 97.522 511.83 98.3175 510.796 98.9944L511.015 99.3291C512.076 98.6351 513.051 97.8196 513.922 96.8986L513.632 96.6237ZM505.817 92.3722C508.801 93.1039 511.512 94.6749 513.632 96.8991L513.922 96.6231C511.749 94.3437 508.97 92.7337 505.912 91.9837L505.817 92.3722ZM511.091 99.0867C509.94 96.2423 508.211 93.831 505.991 92.0229L505.738 92.333C507.901 94.0947 509.592 96.4488 510.72 99.2368L511.091 99.0867ZM498.008 92.0231C495.792 93.8275 494.065 96.2339 492.915 99.0707L493.285 99.221C494.413 96.4406 496.101 94.0913 498.261 92.3332L498.008 92.0231ZM493.209 98.9783C492.175 98.3043 491.222 97.5128 490.37 96.6204L490.081 96.8967C490.954 97.8113 491.931 98.6226 492.991 99.3134L493.209 98.9783ZM490.37 96.8966C492.489 94.6736 495.199 93.1037 498.182 92.3724L498.087 91.9839C495.03 92.7335 492.252 94.3424 490.08 96.6206L490.37 96.8966Z" fill="white" mask="url(#path-15-inside-2)"/>
</g>
<g clip-path="url(#clip1)">
<path d="M191.588 509.268H191.588C193.861 509.268 195.703 511.109 195.703 513.382C195.703 515.655 193.861 517.496 191.588 517.496C189.316 517.496 187.474 515.655 187.474 513.382V513.381C187.477 511.111 189.317 509.27 191.588 509.268ZM191.589 518.993C194.688 518.993 197.2 516.481 197.2 513.382C197.2 510.283 194.688 507.771 191.588 507.771C188.49 507.771 185.978 510.283 185.978 513.381C185.981 516.479 188.491 518.99 191.589 518.993Z" fill="#071D5B" stroke="white" stroke-width="0.6"/>
<path d="M169.699 509.268H169.699C171.972 509.268 173.814 511.109 173.814 513.382C173.814 515.655 171.972 517.496 169.699 517.496C167.427 517.496 165.585 515.655 165.585 513.382V513.381C165.588 511.11 167.428 509.271 169.699 509.268ZM169.7 518.993C172.799 518.993 175.311 516.481 175.311 513.382C175.311 510.283 172.798 507.771 169.7 507.771C166.601 507.771 164.089 510.283 164.088 513.381C164.092 516.479 166.602 518.99 169.7 518.993Z" fill="#071D5B" stroke="white" stroke-width="0.6"/>
<path d="M198.98 498.278L198.98 498.276L204.042 466.303C204.042 466.302 204.042 466.302 204.042 466.302C204.385 464.075 206.306 462.436 208.558 462.444H214.952C215.365 462.444 215.7 462.109 215.7 461.696C215.7 461.283 215.365 460.948 214.952 460.948L208.557 460.948L208.556 460.948C205.567 460.936 203.019 463.112 202.564 466.066L202.564 466.067L201.977 469.772L201.937 470.025H201.681H155.049C154.807 470.025 154.579 470.142 154.438 470.339C154.298 470.537 154.262 470.79 154.342 471.018L154.342 471.019L160.287 488.178C160.287 488.178 160.287 488.178 160.287 488.178C161.134 490.62 163.435 492.258 166.021 492.259C166.021 492.259 166.021 492.259 166.021 492.259H198.066H198.417L198.362 492.606L197.502 498.041C197.502 498.041 197.502 498.041 197.502 498.041C197.158 500.267 195.238 501.908 192.985 501.899H161.698C161.285 501.899 160.949 502.234 160.949 502.648C160.949 503.06 161.285 503.396 161.698 503.396L192.986 503.396L192.988 503.396C195.976 503.408 198.524 501.231 198.98 498.278ZM156.238 471.92L156.1 471.522L156.522 471.522L201.349 471.521L201.701 471.521L201.646 471.868L198.695 490.509L198.654 490.762H198.398H166.021H166.021C164.073 490.762 162.339 489.528 161.701 487.688L161.701 487.687L156.238 471.92Z" fill="#071D5B" stroke="white" stroke-width="0.6"/>
<path d="M161.527 485.969H193.905L196.145 471.821H201.349L198.398 490.462H166.02C164.2 490.461 162.58 489.308 161.984 487.589L161.421 485.965C161.457 485.966 161.492 485.969 161.527 485.969Z" fill="#E7E7E8"/>
</g>
<mask id="path-23-inside-3" fill="white">
<path fill-rule="evenodd" clip-rule="evenodd" d="M472.818 316.157C473.126 316.318 473.381 316.564 473.554 316.865L480.038 328.157H518.877V321.494C518.877 321.009 519.069 320.544 519.412 320.201C519.755 319.858 520.22 319.666 520.705 319.666H536.952C537.437 319.666 537.902 319.858 538.245 320.201C538.588 320.544 538.78 321.009 538.78 321.494V328.157H571.874V321.494C571.874 321.009 572.067 320.544 572.409 320.201C572.752 319.858 573.217 319.666 573.702 319.666H589.95C590.435 319.666 590.9 319.858 591.242 320.201C591.585 320.544 591.778 321.009 591.778 321.494V338.477C591.778 338.962 591.585 339.427 591.242 339.77C590.9 340.113 590.435 340.305 589.95 340.305H583.654V363.539H589.95C590.435 363.539 590.9 363.732 591.242 364.075C591.585 364.418 591.778 364.883 591.778 365.367V382.351C591.778 382.836 591.585 383.301 591.242 383.644C590.9 383.987 590.435 384.179 589.95 384.179H583.654V407.414H589.95C590.435 407.414 590.9 407.606 591.242 407.949C591.585 408.292 591.778 408.757 591.778 409.242V426.225C591.778 426.71 591.585 427.175 591.242 427.518C590.9 427.861 590.435 428.053 589.95 428.053H573.702C573.217 428.053 572.752 427.861 572.409 427.518C572.067 427.175 571.874 426.71 571.874 426.225V419.562H538.78V426.225C538.78 426.71 538.588 427.175 538.245 427.518C537.902 427.861 537.437 428.053 536.952 428.053H520.705C520.22 428.053 519.755 427.861 519.412 427.518C519.069 427.175 518.877 426.71 518.877 426.225V419.562H485.783V426.225C485.783 426.71 485.59 427.175 485.247 427.517C484.905 427.86 484.44 428.053 483.955 428.053H467.707C467.222 428.053 466.757 427.86 466.414 427.517C466.072 427.175 465.879 426.71 465.879 426.225V409.242C465.879 408.757 466.072 408.292 466.414 407.949C466.757 407.606 467.222 407.413 467.707 407.413H474.004V370.642L447.08 388.957C446.759 389.175 446.377 389.285 445.99 389.272C445.602 389.259 445.229 389.124 444.923 388.884C444.618 388.645 444.397 388.315 444.291 387.942C444.186 387.568 444.202 387.171 444.337 386.808L470.255 317.138C470.376 316.812 470.587 316.528 470.864 316.318C471.141 316.108 471.471 315.982 471.818 315.953C472.164 315.925 472.511 315.995 472.818 316.157ZM477.66 369.801V407.414H483.955C484.44 407.414 484.905 407.606 485.247 407.949C485.59 408.292 485.783 408.757 485.783 409.242V415.905H518.877V409.242C518.877 408.757 519.069 408.292 519.412 407.949C519.755 407.606 520.22 407.414 520.705 407.414H536.952C537.437 407.414 537.902 407.606 538.245 407.949C538.588 408.292 538.78 408.757 538.78 409.242V415.905H571.874V409.242C571.874 408.757 572.067 408.292 572.409 407.949C572.752 407.606 573.217 407.413 573.702 407.413H579.998V384.179H573.702C573.217 384.179 572.752 383.987 572.409 383.644C572.067 383.301 571.874 382.836 571.874 382.351V365.367C571.874 364.883 572.067 364.418 572.409 364.075C572.752 363.732 573.217 363.539 573.702 363.539H579.998V340.305H573.702C573.217 340.305 572.752 340.113 572.409 339.77C572.067 339.427 571.874 338.962 571.874 338.477V331.813H538.78V338.477C538.78 338.962 538.588 339.427 538.245 339.77C537.902 340.113 537.437 340.305 536.952 340.305H520.705C520.22 340.305 519.755 340.113 519.412 339.77C519.069 339.427 518.877 338.962 518.877 338.477V331.813H482.137L510.57 381.328C510.763 381.665 510.845 382.054 510.802 382.439C510.76 382.824 510.596 383.186 510.334 383.472C510.072 383.759 509.726 383.954 509.346 384.031C508.966 384.107 508.572 384.061 508.219 383.899L477.66 369.801ZM475.894 365.22C476.208 365.194 476.524 365.25 476.81 365.382L504.543 378.177L472.323 322.065L449.763 382.709L475.016 365.531C475.277 365.353 475.579 365.246 475.894 365.22ZM522.533 336.649H535.124V323.322H522.533V336.649ZM469.535 424.397H482.127V411.07H469.535V424.397ZM522.533 424.397H535.124V411.07H522.533V424.397ZM575.53 424.397H588.122V411.07H575.53V424.397ZM575.53 380.522H588.122V367.196H575.53V380.522ZM575.53 336.647H588.122V323.322H575.53V336.647Z"/>
</mask>
<path fill-rule="evenodd" clip-rule="evenodd" d="M472.818 316.157C473.126 316.318 473.381 316.564 473.554 316.865L480.038 328.157H518.877V321.494C518.877 321.009 519.069 320.544 519.412 320.201C519.755 319.858 520.22 319.666 520.705 319.666H536.952C537.437 319.666 537.902 319.858 538.245 320.201C538.588 320.544 538.78 321.009 538.78 321.494V328.157H571.874V321.494C571.874 321.009 572.067 320.544 572.409 320.201C572.752 319.858 573.217 319.666 573.702 319.666H589.95C590.435 319.666 590.9 319.858 591.242 320.201C591.585 320.544 591.778 321.009 591.778 321.494V338.477C591.778 338.962 591.585 339.427 591.242 339.77C590.9 340.113 590.435 340.305 589.95 340.305H583.654V363.539H589.95C590.435 363.539 590.9 363.732 591.242 364.075C591.585 364.418 591.778 364.883 591.778 365.367V382.351C591.778 382.836 591.585 383.301 591.242 383.644C590.9 383.987 590.435 384.179 589.95 384.179H583.654V407.414H589.95C590.435 407.414 590.9 407.606 591.242 407.949C591.585 408.292 591.778 408.757 591.778 409.242V426.225C591.778 426.71 591.585 427.175 591.242 427.518C590.9 427.861 590.435 428.053 589.95 428.053H573.702C573.217 428.053 572.752 427.861 572.409 427.518C572.067 427.175 571.874 426.71 571.874 426.225V419.562H538.78V426.225C538.78 426.71 538.588 427.175 538.245 427.518C537.902 427.861 537.437 428.053 536.952 428.053H520.705C520.22 428.053 519.755 427.861 519.412 427.518C519.069 427.175 518.877 426.71 518.877 426.225V419.562H485.783V426.225C485.783 426.71 485.59 427.175 485.247 427.517C484.905 427.86 484.44 428.053 483.955 428.053H467.707C467.222 428.053 466.757 427.86 466.414 427.517C466.072 427.175 465.879 426.71 465.879 426.225V409.242C465.879 408.757 466.072 408.292 466.414 407.949C466.757 407.606 467.222 407.413 467.707 407.413H474.004V370.642L447.08 388.957C446.759 389.175 446.377 389.285 445.99 389.272C445.602 389.259 445.229 389.124 444.923 388.884C444.618 388.645 444.397 388.315 444.291 387.942C444.186 387.568 444.202 387.171 444.337 386.808L470.255 317.138C470.376 316.812 470.587 316.528 470.864 316.318C471.141 316.108 471.471 315.982 471.818 315.953C472.164 315.925 472.511 315.995 472.818 316.157ZM477.66 369.801V407.414H483.955C484.44 407.414 484.905 407.606 485.247 407.949C485.59 408.292 485.783 408.757 485.783 409.242V415.905H518.877V409.242C518.877 408.757 519.069 408.292 519.412 407.949C519.755 407.606 520.22 407.414 520.705 407.414H536.952C537.437 407.414 537.902 407.606 538.245 407.949C538.588 408.292 538.78 408.757 538.78 409.242V415.905H571.874V409.242C571.874 408.757 572.067 408.292 572.409 407.949C572.752 407.606 573.217 407.413 573.702 407.413H579.998V384.179H573.702C573.217 384.179 572.752 383.987 572.409 383.644C572.067 383.301 571.874 382.836 571.874 382.351V365.367C571.874 364.883 572.067 364.418 572.409 364.075C572.752 363.732 573.217 363.539 573.702 363.539H579.998V340.305H573.702C573.217 340.305 572.752 340.113 572.409 339.77C572.067 339.427 571.874 338.962 571.874 338.477V331.813H538.78V338.477C538.78 338.962 538.588 339.427 538.245 339.77C537.902 340.113 537.437 340.305 536.952 340.305H520.705C520.22 340.305 519.755 340.113 519.412 339.77C519.069 339.427 518.877 338.962 518.877 338.477V331.813H482.137L510.57 381.328C510.763 381.665 510.845 382.054 510.802 382.439C510.76 382.824 510.596 383.186 510.334 383.472C510.072 383.759 509.726 383.954 509.346 384.031C508.966 384.107 508.572 384.061 508.219 383.899L477.66 369.801ZM475.894 365.22C476.208 365.194 476.524 365.25 476.81 365.382L504.543 378.177L472.323 322.065L449.763 382.709L475.016 365.531C475.277 365.353 475.579 365.246 475.894 365.22ZM522.533 336.649H535.124V323.322H522.533V336.649ZM469.535 424.397H482.127V411.07H469.535V424.397ZM522.533 424.397H535.124V411.07H522.533V424.397ZM575.53 424.397H588.122V411.07H575.53V424.397ZM575.53 380.522H588.122V367.196H575.53V380.522ZM575.53 336.647H588.122V323.322H575.53V336.647Z" fill="#162B65"/>
<path d="M473.554 316.865L472.513 317.462L472.513 317.463L473.554 316.865ZM472.818 316.157L472.26 317.219L472.26 317.219L472.818 316.157ZM480.038 328.157L478.997 328.755L479.343 329.357H480.038V328.157ZM518.877 328.157V329.357H520.077V328.157H518.877ZM519.412 320.201L518.563 319.352V319.352L519.412 320.201ZM538.245 320.201L539.093 319.352V319.352L538.245 320.201ZM538.78 328.157H537.58V329.357H538.78V328.157ZM571.874 328.157V329.357H573.074V328.157H571.874ZM572.409 320.201L573.258 321.05L573.258 321.049L572.409 320.201ZM591.242 320.201L592.091 319.352L592.091 319.352L591.242 320.201ZM591.242 339.77L592.091 340.618L592.091 340.618L591.242 339.77ZM583.654 340.305V339.105H582.454V340.305H583.654ZM583.654 363.539H582.454V364.739H583.654V363.539ZM591.242 364.075L592.091 363.226L592.091 363.226L591.242 364.075ZM591.242 383.644L592.091 384.492L592.091 384.492L591.242 383.644ZM583.654 384.179V382.979H582.454V384.179H583.654ZM583.654 407.414H582.454V408.614H583.654V407.414ZM591.242 407.949L592.091 407.101L592.091 407.101L591.242 407.949ZM591.242 427.518L592.091 428.366L592.091 428.366L591.242 427.518ZM572.409 427.518L573.258 426.669L573.258 426.669L572.409 427.518ZM571.874 419.562H573.074V418.362H571.874V419.562ZM538.78 419.562V418.362H537.58V419.562H538.78ZM518.877 419.562H520.077V418.362H518.877V419.562ZM485.783 419.562V418.362H484.583V419.562H485.783ZM485.247 427.517L486.096 428.366L486.096 428.366L485.247 427.517ZM466.414 427.517L465.566 428.366L465.566 428.366L466.414 427.517ZM466.414 407.949L467.263 408.797L467.263 408.797L466.414 407.949ZM474.004 407.413V408.613H475.204V407.413H474.004ZM474.004 370.642H475.204V368.374L473.329 369.65L474.004 370.642ZM447.08 388.957L446.405 387.964L446.404 387.965L447.08 388.957ZM445.99 389.272L445.95 390.472L445.99 389.272ZM444.923 388.884L444.183 389.829L444.183 389.829L444.923 388.884ZM444.337 386.808L445.462 387.226L445.462 387.226L444.337 386.808ZM470.255 317.138L469.13 316.719L469.13 316.719L470.255 317.138ZM470.864 316.318L470.139 315.362L470.139 315.362L470.864 316.318ZM471.818 315.953L471.916 317.149V317.149L471.818 315.953ZM477.66 407.414H476.46V408.614H477.66V407.414ZM477.66 369.801L478.163 368.712L476.46 367.926V369.801H477.66ZM485.247 407.949L486.096 407.101H486.096L485.247 407.949ZM485.783 415.905H484.583V417.105H485.783V415.905ZM518.877 415.905V417.105H520.077V415.905H518.877ZM538.78 415.905H537.58V417.105H538.78V415.905ZM571.874 415.905V417.105H573.074V415.905H571.874ZM572.409 407.949L573.258 408.797L573.258 408.797L572.409 407.949ZM579.998 407.413V408.613H581.198V407.413H579.998ZM579.998 384.179H581.198V382.979H579.998V384.179ZM572.409 383.644L573.258 382.795L573.258 382.795L572.409 383.644ZM572.409 364.075L573.258 364.923V364.923L572.409 364.075ZM579.998 363.539V364.739H581.198V363.539H579.998ZM579.998 340.305H581.198V339.105H579.998V340.305ZM572.409 339.77L573.258 338.921L573.258 338.921L572.409 339.77ZM571.874 331.813H573.074V330.613H571.874V331.813ZM538.78 331.813V330.613H537.58V331.813H538.78ZM538.245 339.77L537.396 338.921V338.921L538.245 339.77ZM519.412 339.77L520.261 338.921V338.921L519.412 339.77ZM518.877 331.813H520.077V330.613H518.877V331.813ZM482.137 331.813V330.613H480.065L481.097 332.411L482.137 331.813ZM510.57 381.328L511.611 380.731L511.611 380.731L510.57 381.328ZM510.802 382.439L509.609 382.307L510.802 382.439ZM509.346 384.031L509.583 385.207L509.583 385.207L509.346 384.031ZM508.219 383.899L507.717 384.988L507.717 384.988L508.219 383.899ZM476.81 365.382L477.313 364.292L477.313 364.292L476.81 365.382ZM504.543 378.177L504.041 379.266L507.458 380.843L505.584 377.579L504.543 378.177ZM472.323 322.065L473.364 321.467L472.09 319.249L471.198 321.646L472.323 322.065ZM449.763 382.709L448.639 382.291L447.326 385.818L450.438 383.701L449.763 382.709ZM475.016 365.531L475.691 366.523L475.691 366.523L475.016 365.531ZM535.124 336.649V337.849H536.324V336.649H535.124ZM522.533 336.649H521.333V337.849H522.533V336.649ZM535.124 323.322H536.324V322.122H535.124V323.322ZM522.533 323.322V322.122H521.333V323.322H522.533ZM482.127 424.397V425.597H483.327V424.397H482.127ZM469.535 424.397H468.335V425.597H469.535V424.397ZM482.127 411.07H483.327V409.87H482.127V411.07ZM469.535 411.07V409.87H468.335V411.07H469.535ZM535.124 424.397V425.597H536.324V424.397H535.124ZM522.533 424.397H521.333V425.597H522.533V424.397ZM535.124 411.07H536.324V409.87H535.124V411.07ZM522.533 411.07V409.87H521.333V411.07H522.533ZM588.122 424.397V425.597H589.322V424.397H588.122ZM575.53 424.397H574.33V425.597H575.53V424.397ZM588.122 411.07H589.322V409.87H588.122V411.07ZM575.53 411.07V409.87H574.33V411.07H575.53ZM588.122 380.522V381.722H589.322V380.522H588.122ZM575.53 380.522H574.33V381.722H575.53V380.522ZM588.122 367.196H589.322V365.996H588.122V367.196ZM575.53 367.196V365.996H574.33V367.196H575.53ZM588.122 336.647V337.847H589.322V336.647H588.122ZM575.53 336.647H574.33V337.847H575.53V336.647ZM588.122 323.322H589.322V322.122H588.122V323.322ZM575.53 323.322V322.122H574.33V323.322H575.53ZM474.594 316.268C474.308 315.769 473.885 315.362 473.376 315.094L472.26 317.219C472.366 317.275 472.453 317.359 472.513 317.462L474.594 316.268ZM481.079 327.56L474.594 316.267L472.513 317.463L478.997 328.755L481.079 327.56ZM518.877 326.957H480.038V329.357H518.877V326.957ZM517.677 321.494V328.157H520.077V321.494H517.677ZM518.563 319.352C517.996 319.92 517.677 320.691 517.677 321.494H520.077C520.077 321.327 520.143 321.167 520.261 321.05L518.563 319.352ZM520.705 318.466C519.902 318.466 519.131 318.785 518.563 319.352L520.261 321.05C520.378 320.932 520.538 320.866 520.705 320.866V318.466ZM536.952 318.466H520.705V320.866H536.952V318.466ZM539.093 319.352C538.525 318.785 537.755 318.466 536.952 318.466V320.866C537.119 320.866 537.278 320.932 537.396 321.05L539.093 319.352ZM539.98 321.494C539.98 320.691 539.661 319.92 539.093 319.352L537.396 321.05C537.514 321.167 537.58 321.327 537.58 321.494H539.98ZM539.98 328.157V321.494H537.58V328.157H539.98ZM571.874 326.957H538.78V329.357H571.874V326.957ZM570.674 321.494V328.157H573.074V321.494H570.674ZM571.561 319.352C570.993 319.92 570.674 320.691 570.674 321.494H573.074C573.074 321.327 573.14 321.167 573.258 321.05L571.561 319.352ZM573.702 318.466C572.899 318.466 572.129 318.785 571.561 319.352L573.258 321.049C573.376 320.932 573.535 320.866 573.702 320.866V318.466ZM589.95 318.466H573.702V320.866H589.95V318.466ZM592.091 319.352C591.523 318.785 590.753 318.466 589.95 318.466V320.866C590.116 320.866 590.276 320.932 590.394 321.05L592.091 319.352ZM592.978 321.494C592.978 320.691 592.659 319.92 592.091 319.352L590.394 321.049C590.512 321.167 590.578 321.327 590.578 321.494H592.978ZM592.978 338.477V321.494H590.578V338.477H592.978ZM592.091 340.618C592.659 340.051 592.978 339.28 592.978 338.477H590.578C590.578 338.644 590.512 338.804 590.394 338.921L592.091 340.618ZM589.95 341.505C590.753 341.505 591.523 341.186 592.091 340.618L590.394 338.921C590.276 339.039 590.116 339.105 589.95 339.105V341.505ZM583.654 341.505H589.95V339.105H583.654V341.505ZM584.854 363.539V340.305H582.454V363.539H584.854ZM589.95 362.339H583.654V364.739H589.95V362.339ZM592.091 363.226C591.523 362.658 590.753 362.339 589.95 362.339V364.739C590.116 364.739 590.276 364.805 590.394 364.923L592.091 363.226ZM592.978 365.367C592.978 364.564 592.659 363.794 592.091 363.226L590.394 364.923C590.512 365.041 590.578 365.201 590.578 365.367H592.978ZM592.978 382.351V365.367H590.578V382.351H592.978ZM592.091 384.492C592.659 383.924 592.978 383.154 592.978 382.351H590.578C590.578 382.518 590.512 382.677 590.394 382.795L592.091 384.492ZM589.95 385.379C590.753 385.379 591.523 385.06 592.091 384.492L590.394 382.795C590.276 382.913 590.116 382.979 589.95 382.979V385.379ZM583.654 385.379H589.95V382.979H583.654V385.379ZM584.854 407.414V384.179H582.454V407.414H584.854ZM589.95 406.214H583.654V408.614H589.95V406.214ZM592.091 407.101C591.523 406.533 590.753 406.214 589.95 406.214V408.614C590.116 408.614 590.276 408.68 590.394 408.798L592.091 407.101ZM592.978 409.242C592.978 408.439 592.659 407.669 592.091 407.101L590.394 408.798C590.512 408.915 590.578 409.075 590.578 409.242H592.978ZM592.978 426.225V409.242H590.578V426.225H592.978ZM592.091 428.366C592.659 427.798 592.978 427.028 592.978 426.225H590.578C590.578 426.392 590.512 426.551 590.394 426.669L592.091 428.366ZM589.95 429.253C590.753 429.253 591.523 428.934 592.091 428.366L590.394 426.669C590.276 426.787 590.116 426.853 589.95 426.853V429.253ZM573.702 429.253H589.95V426.853H573.702V429.253ZM571.561 428.366C572.129 428.934 572.899 429.253 573.702 429.253V426.853C573.535 426.853 573.376 426.787 573.258 426.669L571.561 428.366ZM570.674 426.225C570.674 427.028 570.993 427.798 571.561 428.366L573.258 426.669C573.14 426.551 573.074 426.392 573.074 426.225H570.674ZM570.674 419.562V426.225H573.074V419.562H570.674ZM538.78 420.762H571.874V418.362H538.78V420.762ZM539.98 426.225V419.562H537.58V426.225H539.98ZM539.093 428.366C539.661 427.798 539.98 427.028 539.98 426.225H537.58C537.58 426.392 537.514 426.551 537.396 426.669L539.093 428.366ZM536.952 429.253C537.755 429.253 538.525 428.934 539.093 428.366L537.396 426.669C537.278 426.787 537.119 426.853 536.952 426.853V429.253ZM520.705 429.253H536.952V426.853H520.705V429.253ZM518.563 428.366C519.131 428.934 519.902 429.253 520.705 429.253V426.853C520.538 426.853 520.378 426.787 520.261 426.669L518.563 428.366ZM517.677 426.225C517.677 427.028 517.996 427.798 518.563 428.366L520.261 426.669C520.143 426.551 520.077 426.392 520.077 426.225H517.677ZM517.677 419.562V426.225H520.077V419.562H517.677ZM485.783 420.762H518.877V418.362H485.783V420.762ZM486.983 426.225V419.562H484.583V426.225H486.983ZM486.096 428.366C486.664 427.798 486.983 427.028 486.983 426.225H484.583C484.583 426.391 484.517 426.551 484.399 426.669L486.096 428.366ZM483.955 429.253C484.758 429.253 485.528 428.934 486.096 428.366L484.399 426.669C484.281 426.787 484.121 426.853 483.955 426.853V429.253ZM467.707 429.253H483.955V426.853H467.707V429.253ZM465.566 428.366C466.134 428.934 466.904 429.253 467.707 429.253V426.853C467.54 426.853 467.381 426.787 467.263 426.669L465.566 428.366ZM464.679 426.225C464.679 427.028 464.998 427.798 465.566 428.366L467.263 426.669C467.145 426.551 467.079 426.391 467.079 426.225H464.679ZM464.679 409.242V426.225H467.079V409.242H464.679ZM465.566 407.1C464.998 407.668 464.679 408.438 464.679 409.242H467.079C467.079 409.075 467.145 408.915 467.263 408.797L465.566 407.1ZM467.707 406.213C466.904 406.213 466.134 406.532 465.566 407.1L467.263 408.797C467.381 408.68 467.54 408.613 467.707 408.613V406.213ZM474.004 406.213H467.707V408.613H474.004V406.213ZM472.804 370.642V407.413H475.204V370.642H472.804ZM447.755 389.949L474.679 371.634L473.329 369.65L446.405 387.964L447.755 389.949ZM445.95 390.472C446.592 390.493 447.224 390.31 447.755 389.948L446.404 387.965C446.294 388.04 446.163 388.078 446.03 388.073L445.95 390.472ZM444.183 389.829C444.689 390.225 445.307 390.45 445.95 390.472L446.03 388.073C445.897 388.069 445.768 388.022 445.663 387.94L444.183 389.829ZM443.136 388.268C443.311 388.886 443.677 389.433 444.183 389.829L445.663 387.94C445.558 387.858 445.482 387.744 445.446 387.616L443.136 388.268ZM443.213 386.389C442.989 386.992 442.962 387.649 443.136 388.268L445.446 387.616C445.41 387.488 445.416 387.351 445.462 387.226L443.213 386.389ZM469.13 316.719L443.213 386.389L445.462 387.226L471.379 317.556L469.13 316.719ZM470.139 315.362C469.681 315.709 469.331 316.18 469.13 316.719L471.379 317.556C471.421 317.444 471.494 317.347 471.589 317.275L470.139 315.362ZM471.719 314.757C471.145 314.805 470.597 315.014 470.139 315.362L471.589 317.275C471.684 317.202 471.797 317.159 471.916 317.149L471.719 314.757ZM473.376 315.094C472.867 314.827 472.292 314.71 471.719 314.757L471.916 317.149C472.035 317.139 472.155 317.164 472.26 317.219L473.376 315.094ZM478.86 407.414V369.801H476.46V407.414H478.86ZM483.955 406.214H477.66V408.614H483.955V406.214ZM486.096 407.101C485.528 406.533 484.758 406.214 483.955 406.214V408.614C484.121 408.614 484.281 408.68 484.399 408.798L486.096 407.101ZM486.983 409.242C486.983 408.439 486.664 407.669 486.096 407.101L484.399 408.798C484.517 408.915 484.583 409.075 484.583 409.242H486.983ZM486.983 415.905V409.242H484.583V415.905H486.983ZM518.877 414.705H485.783V417.105H518.877V414.705ZM517.677 409.242V415.905H520.077V409.242H517.677ZM518.563 407.101C517.996 407.669 517.677 408.439 517.677 409.242H520.077C520.077 409.075 520.143 408.915 520.261 408.798L518.563 407.101ZM520.705 406.214C519.902 406.214 519.131 406.533 518.563 407.101L520.261 408.798C520.378 408.68 520.538 408.614 520.705 408.614V406.214ZM536.952 406.214H520.705V408.614H536.952V406.214ZM539.093 407.101C538.525 406.533 537.755 406.214 536.952 406.214V408.614C537.119 408.614 537.278 408.68 537.396 408.798L539.093 407.101ZM539.98 409.242C539.98 408.439 539.661 407.669 539.093 407.101L537.396 408.798C537.514 408.915 537.58 409.075 537.58 409.242H539.98ZM539.98 415.905V409.242H537.58V415.905H539.98ZM571.874 414.705H538.78V417.105H571.874V414.705ZM570.674 409.242V415.905H573.074V409.242H570.674ZM571.561 407.1C570.993 407.668 570.674 408.438 570.674 409.242H573.074C573.074 409.075 573.14 408.915 573.258 408.797L571.561 407.1ZM573.702 406.213C572.899 406.213 572.129 406.532 571.561 407.1L573.258 408.797C573.376 408.68 573.535 408.613 573.702 408.613V406.213ZM579.998 406.213H573.702V408.613H579.998V406.213ZM578.798 384.179V407.413H581.198V384.179H578.798ZM573.702 385.379H579.998V382.979H573.702V385.379ZM571.561 384.492C572.129 385.06 572.899 385.379 573.702 385.379V382.979C573.535 382.979 573.376 382.913 573.258 382.795L571.561 384.492ZM570.674 382.351C570.674 383.154 570.993 383.924 571.561 384.492L573.258 382.795C573.14 382.677 573.074 382.518 573.074 382.351H570.674ZM570.674 365.367V382.351H573.074V365.367H570.674ZM571.561 363.226C570.993 363.794 570.674 364.564 570.674 365.367H573.074C573.074 365.201 573.14 365.041 573.258 364.923L571.561 363.226ZM573.702 362.339C572.899 362.339 572.129 362.658 571.561 363.226L573.258 364.923C573.376 364.805 573.535 364.739 573.702 364.739V362.339ZM579.998 362.339H573.702V364.739H579.998V362.339ZM578.798 340.305V363.539H581.198V340.305H578.798ZM573.702 341.505H579.998V339.105H573.702V341.505ZM571.561 340.618C572.129 341.186 572.899 341.505 573.702 341.505V339.105C573.535 339.105 573.376 339.039 573.258 338.921L571.561 340.618ZM570.674 338.477C570.674 339.28 570.993 340.051 571.561 340.618L573.258 338.921C573.14 338.804 573.074 338.644 573.074 338.477H570.674ZM570.674 331.813V338.477H573.074V331.813H570.674ZM538.78 333.013H571.874V330.613H538.78V333.013ZM539.98 338.477V331.813H537.58V338.477H539.98ZM539.093 340.618C539.661 340.051 539.98 339.28 539.98 338.477H537.58C537.58 338.644 537.514 338.804 537.396 338.921L539.093 340.618ZM536.952 341.505C537.755 341.505 538.525 341.186 539.093 340.618L537.396 338.921C537.278 339.039 537.119 339.105 536.952 339.105V341.505ZM520.705 341.505H536.952V339.105H520.705V341.505ZM518.563 340.618C519.131 341.186 519.902 341.505 520.705 341.505V339.105C520.538 339.105 520.378 339.039 520.261 338.921L518.563 340.618ZM517.677 338.477C517.677 339.28 517.996 340.051 518.563 340.618L520.261 338.921C520.143 338.804 520.077 338.644 520.077 338.477H517.677ZM517.677 331.813V338.477H520.077V331.813H517.677ZM482.137 333.013H518.877V330.613H482.137V333.013ZM511.611 380.731L483.178 331.216L481.097 332.411L509.53 381.926L511.611 380.731ZM511.995 382.571C512.065 381.932 511.931 381.288 511.611 380.731L509.53 381.926C509.596 382.041 509.624 382.175 509.609 382.307L511.995 382.571ZM511.219 384.282C511.653 383.808 511.924 383.209 511.995 382.571L509.609 382.307C509.595 382.44 509.538 382.564 509.448 382.663L511.219 384.282ZM509.583 385.207C510.213 385.08 510.786 384.756 511.219 384.282L509.448 382.663C509.359 382.761 509.24 382.828 509.109 382.854L509.583 385.207ZM507.717 384.988C508.3 385.257 508.954 385.334 509.583 385.207L509.109 382.854C508.978 382.881 508.843 382.865 508.722 382.809L507.717 384.988ZM477.157 370.891L507.717 384.988L508.722 382.809L478.163 368.712L477.157 370.891ZM477.313 364.292C476.838 364.073 476.315 363.981 475.795 364.024L475.993 366.416C476.101 366.407 476.209 366.426 476.308 366.472L477.313 364.292ZM505.046 377.087L477.313 364.292L476.308 366.472L504.041 379.266L505.046 377.087ZM471.282 322.662L503.503 378.774L505.584 377.579L473.364 321.467L471.282 322.662ZM450.888 383.127L473.448 322.483L471.198 321.646L448.639 382.291L450.888 383.127ZM474.341 364.538L449.088 381.717L450.438 383.701L475.691 366.523L474.341 364.538ZM475.795 364.024C475.274 364.067 474.773 364.245 474.341 364.539L475.691 366.523C475.781 366.462 475.885 366.425 475.993 366.416L475.795 364.024ZM535.124 335.449H522.533V337.849H535.124V335.449ZM533.924 323.322V336.649H536.324V323.322H533.924ZM522.533 324.522H535.124V322.122H522.533V324.522ZM523.733 336.649V323.322H521.333V336.649H523.733ZM482.127 423.197H469.535V425.597H482.127V423.197ZM480.927 411.07V424.397H483.327V411.07H480.927ZM469.535 412.27H482.127V409.87H469.535V412.27ZM470.735 424.397V411.07H468.335V424.397H470.735ZM535.124 423.197H522.533V425.597H535.124V423.197ZM533.924 411.07V424.397H536.324V411.07H533.924ZM522.533 412.27H535.124V409.87H522.533V412.27ZM523.733 424.397V411.07H521.333V424.397H523.733ZM588.122 423.197H575.53V425.597H588.122V423.197ZM586.922 411.07V424.397H589.322V411.07H586.922ZM575.53 412.27H588.122V409.87H575.53V412.27ZM576.73 424.397V411.07H574.33V424.397H576.73ZM588.122 379.322H575.53V381.722H588.122V379.322ZM586.922 367.196V380.522H589.322V367.196H586.922ZM575.53 368.396H588.122V365.996H575.53V368.396ZM576.73 380.522V367.196H574.33V380.522H576.73ZM588.122 335.447H575.53V337.847H588.122V335.447ZM586.922 323.322V336.647H589.322V323.322H586.922ZM575.53 324.522H588.122V322.122H575.53V324.522ZM576.73 336.647V323.322H574.33V336.647H576.73Z" fill="white" mask="url(#path-23-inside-3)"/>
<path fill-rule="evenodd" clip-rule="evenodd" d="M472.323 322.064L476.022 328.505L457.922 377.159L449.764 382.709L472.323 322.064ZM481.987 365.22C482.302 365.194 482.617 365.25 482.904 365.382L502.347 374.352L504.543 378.177L479.502 366.624L481.11 365.531C481.371 365.353 481.673 365.246 481.987 365.22Z" fill="#E7E7E8"/>
<defs>
<clipPath id="clip0">
<rect x="471" y="77" width="62" height="62" fill="white"/>
</clipPath>
<clipPath id="clip1">
<rect width="62" height="62" transform="matrix(-1 0 0 1 216 459)" fill="white"/>
</clipPath>
</defs>
</svg>
