<svg width="323" height="293" viewBox="0 0 323 293" fill="none" xmlns="http://www.w3.org/2000/svg">
<circle cx="171.5" cy="146.5" r="146" stroke="#E7E7E8" stroke-dasharray="10 30"/>
<path opacity="0.1" d="M167.281 59.3901C165.353 59.4001 163.426 59.5182 161.511 59.744C192.116 62.9835 215.345 88.7847 215.355 119.551C215.345 125.553 214.426 131.519 212.629 137.245L188.628 221.86H200.699L224.736 137.387C230.35 119.15 226.977 99.3321 215.646 83.9774C204.314 68.6227 186.368 59.552 167.281 59.5317V59.3901Z" fill="#131415"/>
<path d="M109.507 102.67C115.46 81.793 132.203 65.741 153.318 60.6675C174.433 55.594 196.645 62.2859 211.439 78.1782C226.233 94.0704 231.315 116.698 224.736 137.387" stroke="black" stroke-linecap="round" stroke-linejoin="round"/>
<path d="M109.541 102.67L90 166.37H105.329V185.339C105.329 193.039 111.573 199.282 119.276 199.282H156.66" stroke="black" stroke-linecap="round" stroke-linejoin="round"/>
<path d="M224.734 137.387L200.697 221.86" stroke="#071D5B" stroke-linecap="round" stroke-linejoin="round"/>
<path d="M134.745 199.211L128.302 221.86" stroke="black" stroke-linecap="round" stroke-linejoin="round"/>
<path d="M194.574 149.136L197.548 146.128L201.088 142.589L195.318 133.6C195.977 132.345 196.545 131.044 197.017 129.707L207.566 127.336V112.792L197.583 110.633C197.114 109.096 196.51 107.604 195.778 106.174L201.265 97.6098L197.725 94.0709L194.751 91.0983L191.211 87.5594L182.786 92.6554C181.244 91.8684 179.646 91.1943 178.007 90.6382L175.706 81.0833H161.191L159.103 90.6382C157.463 91.1943 155.866 91.8684 154.324 92.6554L146.04 87.3471L142.5 90.8859L139.526 93.8586L135.986 97.3975L141.473 105.962C140.756 107.399 140.153 108.89 139.668 110.421L129.72 112.579V127.124L140.093 129.389C140.553 130.725 141.109 132.026 141.756 133.282L135.738 142.483L139.278 146.022L142.252 149.03L145.792 152.569L155.244 146.729C156.387 147.309 157.57 147.806 158.784 148.216L161.121 158.832H175.706L178.042 148.216" stroke="black" stroke-linecap="round" stroke-linejoin="round"/>
<g clip-path="url(#clip0)">
<path d="M298.588 66.2676H298.589C300.861 66.2676 302.703 68.1095 302.703 70.3823C302.703 72.6546 300.861 74.4965 298.589 74.4965C296.316 74.4965 294.474 72.6545 294.474 70.3817V70.3814C294.477 68.1106 296.317 66.2701 298.588 66.2676ZM298.589 75.9931C301.688 75.9929 304.2 73.4808 304.2 70.3817C304.2 67.2832 301.688 64.7709 298.589 64.7709C295.49 64.7709 292.978 67.283 292.978 70.3814C292.981 73.4791 295.491 75.9898 298.589 75.9931Z" fill="#071D5B" stroke="white" stroke-width="0.6"/>
<path d="M276.699 66.2676H276.699C278.972 66.2676 280.814 68.1095 280.814 70.3823C280.814 72.6546 278.972 74.4965 276.699 74.4965C274.427 74.4965 272.585 72.6545 272.585 70.3817V70.3814C272.587 68.1105 274.428 66.2707 276.699 66.2676ZM276.699 75.9931C279.798 75.9929 282.31 73.4808 282.31 70.3823C282.31 67.2831 279.798 64.7709 276.7 64.7709C273.6 64.7709 271.088 67.283 271.088 70.3814C271.092 73.4791 273.602 75.9898 276.699 75.9931Z" fill="#071D5B" stroke="white" stroke-width="0.6"/>
<path d="M305.98 55.2775L305.98 55.2763L311.042 23.3026C311.042 23.3023 311.042 23.3021 311.042 23.3019C311.385 21.0754 313.306 19.4356 315.558 19.4441H321.952C322.365 19.4441 322.7 19.1093 322.7 18.6958C322.7 18.2828 322.365 17.9475 321.952 17.9475L315.557 17.9475L315.556 17.9475C312.567 17.9358 310.019 20.1121 309.564 23.0658L309.564 23.0669L308.977 26.7717L308.937 27.0248H308.681H262.049C261.807 27.0248 261.579 27.142 261.438 27.3393C261.298 27.5371 261.262 27.79 261.342 28.0184L261.342 28.0189L267.287 45.1777C267.287 45.1777 267.287 45.1778 267.287 45.1778C268.134 47.6198 270.435 49.2576 273.021 49.2588C273.021 49.2588 273.021 49.2588 273.021 49.2588H305.066H305.417L305.362 49.6057L304.502 55.0408C304.502 55.041 304.502 55.0412 304.502 55.0414C304.158 57.2675 302.238 58.908 299.985 58.8992H268.698C268.285 58.8992 267.949 59.2342 267.949 59.6475C267.949 60.0604 268.285 60.3958 268.698 60.3958L299.986 60.3958L299.988 60.3958C302.976 60.4075 305.524 58.2312 305.98 55.2775ZM263.238 28.9202L263.1 28.522L263.522 28.522L308.349 28.5214L308.701 28.5214L308.646 28.8683L305.695 47.5091L305.654 47.7621H305.398H273.021H273.021C271.073 47.7615 269.339 46.5276 268.701 44.6876L268.701 44.6875L263.238 28.9202Z" fill="#071D5B" stroke="white" stroke-width="0.6"/>
<path d="M268.528 42.9693H300.905L303.145 28.8213H308.349L305.398 47.462H273.02C271.2 47.4614 269.581 46.3084 268.984 44.5891L268.421 42.9652C268.457 42.9658 268.492 42.9693 268.528 42.9693Z" fill="#E7E7E8"/>
</g>
<path d="M319.982 263.802H274.014C270.4 263.799 267.471 260.87 267.467 257.255V218.241C267.467 217.936 267.489 217.632 267.532 217.33C264.301 217.787 261.899 220.551 261.895 223.812V262.827C261.899 266.442 264.828 269.371 268.442 269.374H314.411C317.673 269.37 320.436 266.968 320.893 263.738C320.591 263.78 320.287 263.802 319.982 263.802Z" fill="#E7E7E8"/>
<path d="M319.257 262.827V262.827V232.879V232.629H319.007H263.845H263.595V232.879L263.595 262.827L263.595 262.827C263.598 265.503 265.766 267.671 268.442 267.674H268.442H314.41H314.411C317.086 267.671 319.255 265.503 319.257 262.827ZM319.007 231.179H319.257V230.929V223.812V223.812C319.255 221.136 317.086 218.969 314.411 218.966H314.41L268.442 218.966L268.442 218.966C265.766 218.969 263.598 221.136 263.595 223.812V223.812V230.929V231.179H263.845H319.007ZM320.708 223.813V262.827C320.704 266.304 317.886 269.121 314.41 269.124H268.442C264.966 269.121 262.149 266.304 262.145 262.827V223.813C262.149 220.337 264.966 217.519 268.442 217.515H314.41C317.886 217.519 320.704 220.337 320.708 223.813Z" fill="#071D5B" stroke="white" stroke-width="0.5"/>
<mask id="path-16-inside-1" fill="white">
<path fill-rule="evenodd" clip-rule="evenodd" d="M265.991 225.088C265.996 223.383 267.382 222.006 269.086 222.011C270.791 222.014 272.17 223.398 272.168 225.103C272.165 226.807 270.781 228.186 269.076 228.184H269.067C267.362 228.178 265.985 226.792 265.991 225.088ZM269.073 226.234H269.076C269.704 226.234 270.214 225.727 270.215 225.1C270.216 224.472 269.708 223.963 269.081 223.962H269.076C268.449 223.96 267.94 224.468 267.939 225.096C267.937 225.723 268.445 226.232 269.073 226.234ZM275.472 225.118C275.47 226.821 276.845 228.205 278.548 228.213H278.558C280.257 228.211 281.636 226.837 281.643 225.137V225.128C281.643 223.427 280.268 222.048 278.568 222.042H278.558C276.857 222.042 275.478 223.418 275.472 225.118ZM277.758 224.323C277.97 224.11 278.257 223.991 278.558 223.992H278.562C279.189 223.993 279.696 224.502 279.695 225.129C279.694 225.757 279.184 226.264 278.558 226.263H278.555C278.095 226.262 277.682 225.984 277.508 225.559C277.333 225.134 277.432 224.646 277.758 224.323ZM288.03 228.243H288.04C289.74 228.242 291.119 226.867 291.125 225.166V225.157C291.123 223.457 289.748 222.079 288.048 222.071H288.04C286.336 222.069 284.952 223.448 284.949 225.152C284.946 226.856 286.326 228.24 288.03 228.243ZM288.04 224.021H288.042C288.669 224.022 289.177 224.532 289.176 225.158C289.175 225.785 288.667 226.293 288.04 226.292H288.035C287.409 226.291 286.901 225.782 286.902 225.155C286.903 224.528 287.412 224.021 288.04 224.021ZM292.17 239.355C292.281 238.828 292.798 238.491 293.325 238.602C293.852 238.713 294.188 239.23 294.078 239.757L290.146 258.428C290.051 258.88 289.653 259.202 289.192 259.203C289.124 259.203 289.057 259.196 288.99 259.182C288.464 259.07 288.127 258.554 288.238 258.027L292.17 239.355ZM298.287 242.71L304.597 248.083C304.815 248.268 304.941 248.539 304.941 248.825C304.941 249.111 304.815 249.382 304.597 249.567L298.287 254.94C298.023 255.176 297.653 255.249 297.318 255.133C296.984 255.017 296.739 254.729 296.678 254.381C296.617 254.032 296.749 253.679 297.024 253.456L302.461 248.825L297.024 244.195C296.628 243.842 296.586 243.238 296.93 242.835C297.273 242.431 297.876 242.376 298.287 242.71ZM278.258 249.567C278.04 249.382 277.915 249.11 277.915 248.825C277.915 248.539 278.04 248.268 278.258 248.083L284.568 242.71C284.979 242.376 285.582 242.431 285.925 242.835C286.269 243.238 286.227 243.842 285.831 244.195L280.394 248.825L285.831 253.456C286.227 253.808 286.269 254.412 285.925 254.815C285.582 255.219 284.979 255.274 284.568 254.94L278.258 249.567Z"/>
</mask>
<path fill-rule="evenodd" clip-rule="evenodd" d="M265.991 225.088C265.996 223.383 267.382 222.006 269.086 222.011C270.791 222.014 272.17 223.398 272.168 225.103C272.165 226.807 270.781 228.186 269.076 228.184H269.067C267.362 228.178 265.985 226.792 265.991 225.088ZM269.073 226.234H269.076C269.704 226.234 270.214 225.727 270.215 225.1C270.216 224.472 269.708 223.963 269.081 223.962H269.076C268.449 223.96 267.94 224.468 267.939 225.096C267.937 225.723 268.445 226.232 269.073 226.234ZM275.472 225.118C275.47 226.821 276.845 228.205 278.548 228.213H278.558C280.257 228.211 281.636 226.837 281.643 225.137V225.128C281.643 223.427 280.268 222.048 278.568 222.042H278.558C276.857 222.042 275.478 223.418 275.472 225.118ZM277.758 224.323C277.97 224.11 278.257 223.991 278.558 223.992H278.562C279.189 223.993 279.696 224.502 279.695 225.129C279.694 225.757 279.184 226.264 278.558 226.263H278.555C278.095 226.262 277.682 225.984 277.508 225.559C277.333 225.134 277.432 224.646 277.758 224.323ZM288.03 228.243H288.04C289.74 228.242 291.119 226.867 291.125 225.166V225.157C291.123 223.457 289.748 222.079 288.048 222.071H288.04C286.336 222.069 284.952 223.448 284.949 225.152C284.946 226.856 286.326 228.24 288.03 228.243ZM288.04 224.021H288.042C288.669 224.022 289.177 224.532 289.176 225.158C289.175 225.785 288.667 226.293 288.04 226.292H288.035C287.409 226.291 286.901 225.782 286.902 225.155C286.903 224.528 287.412 224.021 288.04 224.021ZM292.17 239.355C292.281 238.828 292.798 238.491 293.325 238.602C293.852 238.713 294.188 239.23 294.078 239.757L290.146 258.428C290.051 258.88 289.653 259.202 289.192 259.203C289.124 259.203 289.057 259.196 288.99 259.182C288.464 259.07 288.127 258.554 288.238 258.027L292.17 239.355ZM298.287 242.71L304.597 248.083C304.815 248.268 304.941 248.539 304.941 248.825C304.941 249.111 304.815 249.382 304.597 249.567L298.287 254.94C298.023 255.176 297.653 255.249 297.318 255.133C296.984 255.017 296.739 254.729 296.678 254.381C296.617 254.032 296.749 253.679 297.024 253.456L302.461 248.825L297.024 244.195C296.628 243.842 296.586 243.238 296.93 242.835C297.273 242.431 297.876 242.376 298.287 242.71ZM278.258 249.567C278.04 249.382 277.915 249.11 277.915 248.825C277.915 248.539 278.04 248.268 278.258 248.083L284.568 242.71C284.979 242.376 285.582 242.431 285.925 242.835C286.269 243.238 286.227 243.842 285.831 244.195L280.394 248.825L285.831 253.456C286.227 253.808 286.269 254.412 285.925 254.815C285.582 255.219 284.979 255.274 284.568 254.94L278.258 249.567Z" fill="#071D5B"/>
<path d="M269.086 222.011L269.085 222.511L269.085 222.511L269.086 222.011ZM265.991 225.088L266.491 225.089L266.491 225.089L265.991 225.088ZM272.168 225.103L272.668 225.103L272.168 225.103ZM269.076 228.184L269.077 227.684H269.076V228.184ZM269.067 228.184L269.065 228.684H269.067V228.184ZM269.076 226.234L269.077 225.734H269.076V226.234ZM269.073 226.234L269.072 226.734H269.073V226.234ZM270.215 225.1L270.715 225.101L270.715 225.1L270.215 225.1ZM269.081 223.962L269.081 223.462H269.081V223.962ZM269.076 223.962L269.075 224.462H269.076V223.962ZM267.939 225.096L268.439 225.097L268.439 225.096L267.939 225.096ZM278.548 228.213L278.546 228.713H278.548V228.213ZM275.472 225.118L274.972 225.116L274.972 225.117L275.472 225.118ZM278.558 228.213V228.713L278.558 228.713L278.558 228.213ZM281.643 225.137L282.143 225.139V225.137H281.643ZM281.643 225.128H282.143V225.128L281.643 225.128ZM278.568 222.042L278.569 221.542H278.568V222.042ZM278.558 222.042V221.542L278.558 221.542L278.558 222.042ZM278.558 223.992L278.555 224.492H278.558V223.992ZM277.758 224.323L278.11 224.678L278.112 224.675L277.758 224.323ZM278.562 223.992L278.562 223.492H278.562V223.992ZM279.695 225.129L279.195 225.128V225.128L279.695 225.129ZM278.558 226.263L278.559 225.763H278.558V226.263ZM278.555 226.263L278.554 226.763H278.555V226.263ZM277.508 225.559L277.97 225.37L277.97 225.369L277.508 225.559ZM288.04 228.243V228.743H288.04L288.04 228.243ZM288.03 228.243L288.029 228.743H288.03V228.243ZM291.125 225.166L291.625 225.168V225.166H291.125ZM291.125 225.157H291.625V225.156L291.125 225.157ZM288.048 222.071L288.05 221.571H288.048V222.071ZM288.04 222.071L288.039 222.571H288.04V222.071ZM284.949 225.152L284.449 225.151V225.151L284.949 225.152ZM288.042 224.021L288.043 223.521H288.042V224.021ZM288.04 224.021L288.039 224.521H288.04V224.021ZM289.176 225.158L288.676 225.157V225.158L289.176 225.158ZM288.04 226.292L288.04 225.792H288.04V226.292ZM288.035 226.292L288.034 226.792H288.035V226.292ZM286.902 225.155L286.402 225.154L286.402 225.154L286.902 225.155ZM293.325 238.602L293.222 239.091H293.222L293.325 238.602ZM292.17 239.355L291.681 239.252L291.681 239.252L292.17 239.355ZM294.078 239.757L294.568 239.86L294.568 239.859L294.078 239.757ZM290.146 258.428L290.635 258.531L290.635 258.531L290.146 258.428ZM289.192 259.203V259.703H289.193L289.192 259.203ZM288.99 259.182L288.887 259.671L288.891 259.672L288.99 259.182ZM288.238 258.027L288.727 258.13L288.727 258.13L288.238 258.027ZM304.597 248.083L304.273 248.463L304.273 248.464L304.597 248.083ZM298.287 242.71L298.611 242.329L298.602 242.322L298.287 242.71ZM304.597 249.567L304.921 249.948L304.921 249.948L304.597 249.567ZM298.287 254.94L297.963 254.56L297.954 254.567L298.287 254.94ZM297.318 255.133L297.482 254.661L297.482 254.66L297.318 255.133ZM296.678 254.381L297.171 254.295L297.171 254.294L296.678 254.381ZM297.024 253.456L297.339 253.844L297.348 253.836L297.024 253.456ZM302.461 248.825L302.785 249.205L303.232 248.825L302.785 248.444L302.461 248.825ZM297.024 244.195L296.691 244.568L296.7 244.576L297.024 244.195ZM296.93 242.835L296.549 242.51L296.549 242.51L296.93 242.835ZM278.258 249.567L277.934 249.948L277.934 249.948L278.258 249.567ZM278.258 248.083L277.934 247.702L277.934 247.702L278.258 248.083ZM284.568 242.71L284.252 242.322L284.244 242.329L284.568 242.71ZM285.925 242.835L286.306 242.51L286.306 242.51L285.925 242.835ZM285.831 244.195L286.155 244.576L286.163 244.568L285.831 244.195ZM280.394 248.825L280.07 248.444L279.623 248.825L280.07 249.205L280.394 248.825ZM285.831 253.456L286.163 253.082L286.155 253.075L285.831 253.456ZM285.925 254.815L285.545 254.491L285.545 254.491L285.925 254.815ZM284.568 254.94L284.244 255.321L284.253 255.329L284.568 254.94ZM269.088 221.511C267.107 221.505 265.496 223.105 265.491 225.086L266.491 225.089C266.495 223.661 267.656 222.507 269.085 222.511L269.088 221.511ZM272.668 225.103C272.671 223.123 271.068 221.515 269.087 221.511L269.085 222.511C270.514 222.514 271.67 223.673 271.668 225.102L272.668 225.103ZM269.075 228.684C271.057 228.687 272.665 227.084 272.668 225.103L271.668 225.102C271.666 226.53 270.506 227.686 269.077 227.684L269.075 228.684ZM269.067 228.684H269.076V227.684H269.067V228.684ZM265.491 225.086C265.484 227.067 267.085 228.677 269.065 228.684L269.068 227.684C267.64 227.679 266.486 226.517 266.491 225.089L265.491 225.086ZM269.076 225.734H269.073V226.734H269.076V225.734ZM269.715 225.099C269.714 225.449 269.429 225.734 269.077 225.734L269.076 226.734C269.979 226.735 270.713 226.004 270.715 225.101L269.715 225.099ZM269.08 224.462C269.431 224.462 269.715 224.747 269.715 225.099L270.715 225.1C270.716 224.197 269.985 223.463 269.081 223.462L269.08 224.462ZM269.076 224.462H269.081V223.462H269.076V224.462ZM268.439 225.096C268.439 224.745 268.724 224.461 269.075 224.462L269.077 223.462C268.173 223.46 267.44 224.192 267.439 225.095L268.439 225.096ZM269.074 225.734C268.722 225.733 268.438 225.447 268.439 225.097L267.439 225.095C267.437 225.998 268.168 226.732 269.072 226.734L269.074 225.734ZM278.55 227.713C277.123 227.707 275.97 226.547 275.972 225.119L274.972 225.117C274.969 227.096 276.567 228.704 278.546 228.713L278.55 227.713ZM278.558 227.713H278.548V228.713H278.558V227.713ZM281.143 225.135C281.137 226.56 279.982 227.711 278.557 227.713L278.558 228.713C280.533 228.711 282.135 227.114 282.143 225.139L281.143 225.135ZM281.143 225.128V225.137H282.143V225.128H281.143ZM278.566 222.542C279.99 222.547 281.143 223.703 281.143 225.128L282.143 225.128C282.143 223.152 280.545 221.549 278.569 221.542L278.566 222.542ZM278.558 222.542H278.568V221.542H278.558V222.542ZM275.972 225.12C275.977 223.695 277.133 222.542 278.558 222.542L278.558 221.542C276.582 221.542 274.979 223.141 274.972 225.116L275.972 225.12ZM278.56 223.492C278.125 223.49 277.709 223.663 277.404 223.97L278.112 224.675C278.23 224.557 278.389 224.491 278.555 224.492L278.56 223.492ZM278.562 223.492H278.558V224.492H278.562V223.492ZM280.195 225.13C280.197 224.227 279.466 223.493 278.562 223.492L278.561 224.492C278.912 224.493 279.196 224.778 279.195 225.128L280.195 225.13ZM278.557 226.763C279.46 226.765 280.193 226.034 280.195 225.13L279.195 225.128C279.194 225.48 278.909 225.763 278.559 225.763L278.557 226.763ZM278.555 226.763H278.558V225.763H278.555V226.763ZM277.045 225.749C277.296 226.361 277.892 226.761 278.554 226.763L278.556 225.763C278.299 225.762 278.068 225.607 277.97 225.37L277.045 225.749ZM277.406 223.967C276.936 224.433 276.794 225.137 277.045 225.749L277.97 225.369C277.872 225.131 277.928 224.858 278.11 224.678L277.406 223.967ZM288.04 227.743H288.03V228.743H288.04V227.743ZM290.625 225.165C290.62 226.59 289.464 227.742 288.039 227.743L288.04 228.743C290.015 228.742 291.618 227.144 291.625 225.168L290.625 225.165ZM290.625 225.157V225.166H291.625V225.157H290.625ZM288.046 222.571C289.471 222.577 290.623 223.733 290.625 225.157L291.625 225.156C291.623 223.181 290.025 221.58 288.05 221.571L288.046 222.571ZM288.04 222.571H288.048V221.571H288.04V222.571ZM285.449 225.153C285.451 223.725 286.611 222.569 288.039 222.571L288.041 221.571C286.06 221.568 284.452 223.171 284.449 225.151L285.449 225.153ZM288.031 227.743C286.603 227.74 285.447 226.581 285.449 225.153L284.449 225.151C284.446 227.132 286.049 228.739 288.029 228.743L288.031 227.743ZM288.042 223.521H288.04V224.521H288.042V223.521ZM289.676 225.16C289.678 224.256 288.946 223.523 288.043 223.521L288.042 224.521C288.392 224.522 288.677 224.807 288.676 225.157L289.676 225.16ZM288.039 226.792C288.942 226.793 289.675 226.062 289.676 225.159L288.676 225.158C288.676 225.508 288.391 225.793 288.04 225.792L288.039 226.792ZM288.035 226.792H288.04V225.792H288.035V226.792ZM286.402 225.154C286.401 226.057 287.132 226.791 288.034 226.792L288.036 225.792C287.686 225.792 287.401 225.507 287.402 225.156L286.402 225.154ZM288.04 223.521C287.137 223.52 286.404 224.25 286.402 225.154L287.402 225.156C287.403 224.805 287.688 224.521 288.039 224.521L288.04 223.521ZM293.428 238.113C292.631 237.945 291.849 238.456 291.681 239.252L292.66 239.458C292.714 239.201 292.966 239.037 293.222 239.091L293.428 238.113ZM294.568 239.859C294.734 239.063 294.225 238.281 293.428 238.113L293.222 239.091C293.478 239.145 293.643 239.397 293.589 239.655L294.568 239.859ZM290.635 258.531L294.568 239.86L293.589 239.654L289.657 258.325L290.635 258.531ZM289.193 259.703C289.89 259.702 290.491 259.214 290.635 258.531L289.657 258.325C289.61 258.545 289.416 258.702 289.192 258.703L289.193 259.703ZM288.891 259.672C288.989 259.692 289.09 259.703 289.192 259.703V258.703C289.158 258.703 289.124 258.699 289.09 258.692L288.891 259.672ZM287.749 257.924C287.58 258.721 288.091 259.502 288.887 259.671L289.094 258.693C288.837 258.638 288.673 258.386 288.727 258.13L287.749 257.924ZM291.681 239.252L287.749 257.924L288.727 258.13L292.66 239.458L291.681 239.252ZM304.921 247.702L298.611 242.329L297.963 243.091L304.273 248.463L304.921 247.702ZM305.441 248.825C305.441 248.392 305.25 247.981 304.921 247.702L304.273 248.464C304.379 248.554 304.441 248.686 304.441 248.825H305.441ZM304.921 249.948C305.25 249.668 305.441 249.259 305.441 248.825H304.441C304.441 248.964 304.38 249.096 304.273 249.187L304.921 249.948ZM298.611 255.321L304.921 249.948L304.273 249.187L297.963 254.56L298.611 255.321ZM297.154 255.605C297.659 255.781 298.22 255.67 298.619 255.314L297.954 254.567C297.826 254.681 297.646 254.717 297.482 254.661L297.154 255.605ZM296.186 254.467C296.278 254.994 296.649 255.43 297.154 255.605L297.482 254.66C297.32 254.604 297.201 254.464 297.171 254.295L296.186 254.467ZM296.709 253.067C296.293 253.404 296.093 253.94 296.186 254.467L297.171 254.294C297.141 254.125 297.205 253.953 297.339 253.844L296.709 253.067ZM302.136 248.444L296.7 253.075L297.348 253.836L302.785 249.205L302.136 248.444ZM296.7 244.576L302.136 249.205L302.785 248.444L297.348 243.814L296.7 244.576ZM296.549 242.51C296.029 243.121 296.092 244.035 296.692 244.568L297.356 243.821C297.163 243.649 297.143 243.355 297.31 243.159L296.549 242.51ZM298.602 242.322C297.98 241.816 297.069 241.901 296.549 242.51L297.31 243.159C297.478 242.962 297.772 242.936 297.971 243.098L298.602 242.322ZM277.415 248.825C277.415 249.257 277.605 249.668 277.934 249.948L278.582 249.187C278.476 249.096 278.415 248.964 278.415 248.825H277.415ZM277.934 247.702C277.605 247.982 277.415 248.393 277.415 248.825H278.415C278.415 248.686 278.476 248.554 278.582 248.463L277.934 247.702ZM284.244 242.329L277.934 247.702L278.582 248.463L284.892 243.091L284.244 242.329ZM286.306 242.51C285.786 241.901 284.875 241.816 284.253 242.322L284.884 243.098C285.083 242.936 285.377 242.962 285.545 243.159L286.306 242.51ZM286.163 244.568C286.762 244.035 286.826 243.121 286.306 242.51L285.545 243.159C285.712 243.355 285.692 243.649 285.499 243.821L286.163 244.568ZM280.719 249.205L286.155 244.576L285.507 243.814L280.07 248.444L280.719 249.205ZM286.155 253.075L280.719 248.444L280.07 249.205L285.507 253.836L286.155 253.075ZM286.306 255.139C286.826 254.529 286.762 253.615 286.163 253.082L285.499 253.829C285.692 254.001 285.712 254.295 285.545 254.491L286.306 255.139ZM284.253 255.329C284.875 255.834 285.786 255.75 286.306 255.139L285.545 254.491C285.377 254.688 285.083 254.715 284.883 254.552L284.253 255.329ZM277.934 249.948L284.244 255.321L284.892 254.56L278.582 249.187L277.934 249.948Z" fill="white" mask="url(#path-16-inside-1)"/>
<mask id="path-19-inside-2" fill="white">
<path fill-rule="evenodd" clip-rule="evenodd" d="M16.4091 210.078C16.5628 210.159 16.6904 210.282 16.7768 210.432L20.0189 216.078H39.4383V212.747C39.4383 212.504 39.5346 212.272 39.706 212.1C39.8774 211.929 40.1099 211.833 40.3523 211.833H48.4761C48.7185 211.833 48.951 211.929 49.1224 212.1C49.2938 212.272 49.3901 212.504 49.3901 212.747V216.078H65.937V212.747C65.937 212.504 66.0333 212.272 66.2047 212.1C66.3761 211.929 66.6086 211.833 66.851 211.833H74.9749C75.2173 211.833 75.4498 211.929 75.6212 212.1C75.7927 212.272 75.889 212.504 75.889 212.747V221.238C75.889 221.481 75.7927 221.713 75.6212 221.885C75.4498 222.056 75.2173 222.153 74.9749 222.153H71.827V233.77H74.9749C75.2173 233.77 75.4498 233.866 75.6212 234.037C75.7927 234.209 75.889 234.441 75.889 234.684V243.175C75.889 243.418 75.7927 243.65 75.6212 243.822C75.4498 243.993 75.2173 244.089 74.9749 244.089H71.827V255.707H74.9749C75.2173 255.707 75.4498 255.803 75.6212 255.974C75.7927 256.146 75.889 256.378 75.889 256.621V265.112C75.889 265.355 75.7927 265.587 75.6212 265.759C75.4498 265.93 75.2173 266.026 74.9749 266.026H66.851C66.6086 266.026 66.3761 265.93 66.2047 265.759C66.0333 265.587 65.937 265.355 65.937 265.112V261.781H49.3901V265.112C49.3901 265.355 49.2938 265.587 49.1224 265.759C48.951 265.93 48.7185 266.026 48.4761 266.026H40.3523C40.1099 266.026 39.8774 265.93 39.706 265.759C39.5346 265.587 39.4383 265.355 39.4383 265.112V261.781H22.8915V265.112C22.8915 265.355 22.7952 265.587 22.6237 265.759C22.4523 265.93 22.2198 266.026 21.9774 266.026H13.8535C13.6111 266.026 13.3786 265.93 13.2072 265.759C13.0358 265.587 12.9395 265.355 12.9395 265.112V256.621C12.9395 256.378 13.0358 256.146 13.2072 255.974C13.3786 255.803 13.6111 255.707 13.8535 255.707H17.0019V237.321L3.5398 246.478C3.3795 246.587 3.18864 246.643 2.99482 246.636C2.80101 246.63 2.61427 246.562 2.46162 246.442C2.30898 246.322 2.19832 246.157 2.14567 245.971C2.09301 245.784 2.10108 245.586 2.16871 245.404L15.1274 210.569C15.1879 210.406 15.2936 210.264 15.4319 210.159C15.5703 210.054 15.7357 209.991 15.9088 209.976C16.0818 209.962 16.2554 209.997 16.4091 210.078ZM18.83 236.901V255.707H21.9774C22.2198 255.707 22.4523 255.803 22.6237 255.974C22.7952 256.146 22.8915 256.378 22.8915 256.621V259.953H39.4383V256.621C39.4383 256.378 39.5346 256.146 39.706 255.974C39.8774 255.803 40.1099 255.707 40.3523 255.707H48.4761C48.7185 255.707 48.951 255.803 49.1224 255.974C49.2938 256.146 49.3901 256.378 49.3901 256.621V259.953H65.937V256.621C65.937 256.378 66.0333 256.146 66.2047 255.974C66.3761 255.803 66.6086 255.707 66.851 255.707H69.9989V244.089H66.851C66.6086 244.089 66.3761 243.993 66.2047 243.822C66.0333 243.65 65.937 243.418 65.937 243.175V234.684C65.937 234.441 66.0333 234.209 66.2047 234.037C66.3761 233.866 66.6086 233.77 66.851 233.77H69.9989V222.153H66.851C66.6086 222.153 66.3761 222.056 66.2047 221.885C66.0333 221.713 65.937 221.481 65.937 221.238V217.907H49.3901V221.238C49.3901 221.481 49.2938 221.713 49.1224 221.885C48.951 222.056 48.7185 222.153 48.4761 222.153H40.3523C40.1099 222.153 39.8774 222.056 39.706 221.885C39.5346 221.713 39.4383 221.481 39.4383 221.238V217.907H21.0687L35.2852 242.664C35.3817 242.832 35.4223 243.027 35.401 243.219C35.3798 243.412 35.2978 243.593 35.167 243.736C35.0361 243.879 34.8632 243.977 34.6731 244.015C34.4831 244.054 34.2858 244.03 34.1097 243.949L18.83 236.901ZM17.9469 234.61C18.1041 234.597 18.262 234.625 18.4052 234.691L32.2717 241.088L16.1615 213.032L4.88164 243.354L17.5082 234.765C17.6386 234.676 17.7897 234.623 17.9469 234.61ZM41.2664 220.324H47.562V213.661H41.2664V220.324ZM14.7676 264.198H21.0633V257.535H14.7676V264.198ZM41.2664 264.198H47.562V257.535H41.2664V264.198ZM67.7651 264.198H74.0608V257.535H67.7651V264.198ZM67.7651 242.261H74.0608V235.598H67.7651V242.261ZM67.7651 220.323H74.0608V213.661H67.7651V220.323Z"/>
</mask>
<path fill-rule="evenodd" clip-rule="evenodd" d="M16.4091 210.078C16.5628 210.159 16.6904 210.282 16.7768 210.432L20.0189 216.078H39.4383V212.747C39.4383 212.504 39.5346 212.272 39.706 212.1C39.8774 211.929 40.1099 211.833 40.3523 211.833H48.4761C48.7185 211.833 48.951 211.929 49.1224 212.1C49.2938 212.272 49.3901 212.504 49.3901 212.747V216.078H65.937V212.747C65.937 212.504 66.0333 212.272 66.2047 212.1C66.3761 211.929 66.6086 211.833 66.851 211.833H74.9749C75.2173 211.833 75.4498 211.929 75.6212 212.1C75.7927 212.272 75.889 212.504 75.889 212.747V221.238C75.889 221.481 75.7927 221.713 75.6212 221.885C75.4498 222.056 75.2173 222.153 74.9749 222.153H71.827V233.77H74.9749C75.2173 233.77 75.4498 233.866 75.6212 234.037C75.7927 234.209 75.889 234.441 75.889 234.684V243.175C75.889 243.418 75.7927 243.65 75.6212 243.822C75.4498 243.993 75.2173 244.089 74.9749 244.089H71.827V255.707H74.9749C75.2173 255.707 75.4498 255.803 75.6212 255.974C75.7927 256.146 75.889 256.378 75.889 256.621V265.112C75.889 265.355 75.7927 265.587 75.6212 265.759C75.4498 265.93 75.2173 266.026 74.9749 266.026H66.851C66.6086 266.026 66.3761 265.93 66.2047 265.759C66.0333 265.587 65.937 265.355 65.937 265.112V261.781H49.3901V265.112C49.3901 265.355 49.2938 265.587 49.1224 265.759C48.951 265.93 48.7185 266.026 48.4761 266.026H40.3523C40.1099 266.026 39.8774 265.93 39.706 265.759C39.5346 265.587 39.4383 265.355 39.4383 265.112V261.781H22.8915V265.112C22.8915 265.355 22.7952 265.587 22.6237 265.759C22.4523 265.93 22.2198 266.026 21.9774 266.026H13.8535C13.6111 266.026 13.3786 265.93 13.2072 265.759C13.0358 265.587 12.9395 265.355 12.9395 265.112V256.621C12.9395 256.378 13.0358 256.146 13.2072 255.974C13.3786 255.803 13.6111 255.707 13.8535 255.707H17.0019V237.321L3.5398 246.478C3.3795 246.587 3.18864 246.643 2.99482 246.636C2.80101 246.63 2.61427 246.562 2.46162 246.442C2.30898 246.322 2.19832 246.157 2.14567 245.971C2.09301 245.784 2.10108 245.586 2.16871 245.404L15.1274 210.569C15.1879 210.406 15.2936 210.264 15.4319 210.159C15.5703 210.054 15.7357 209.991 15.9088 209.976C16.0818 209.962 16.2554 209.997 16.4091 210.078ZM18.83 236.901V255.707H21.9774C22.2198 255.707 22.4523 255.803 22.6237 255.974C22.7952 256.146 22.8915 256.378 22.8915 256.621V259.953H39.4383V256.621C39.4383 256.378 39.5346 256.146 39.706 255.974C39.8774 255.803 40.1099 255.707 40.3523 255.707H48.4761C48.7185 255.707 48.951 255.803 49.1224 255.974C49.2938 256.146 49.3901 256.378 49.3901 256.621V259.953H65.937V256.621C65.937 256.378 66.0333 256.146 66.2047 255.974C66.3761 255.803 66.6086 255.707 66.851 255.707H69.9989V244.089H66.851C66.6086 244.089 66.3761 243.993 66.2047 243.822C66.0333 243.65 65.937 243.418 65.937 243.175V234.684C65.937 234.441 66.0333 234.209 66.2047 234.037C66.3761 233.866 66.6086 233.77 66.851 233.77H69.9989V222.153H66.851C66.6086 222.153 66.3761 222.056 66.2047 221.885C66.0333 221.713 65.937 221.481 65.937 221.238V217.907H49.3901V221.238C49.3901 221.481 49.2938 221.713 49.1224 221.885C48.951 222.056 48.7185 222.153 48.4761 222.153H40.3523C40.1099 222.153 39.8774 222.056 39.706 221.885C39.5346 221.713 39.4383 221.481 39.4383 221.238V217.907H21.0687L35.2852 242.664C35.3817 242.832 35.4223 243.027 35.401 243.219C35.3798 243.412 35.2978 243.593 35.167 243.736C35.0361 243.879 34.8632 243.977 34.6731 244.015C34.4831 244.054 34.2858 244.03 34.1097 243.949L18.83 236.901ZM17.9469 234.61C18.1041 234.597 18.262 234.625 18.4052 234.691L32.2717 241.088L16.1615 213.032L4.88164 243.354L17.5082 234.765C17.6386 234.676 17.7897 234.623 17.9469 234.61ZM41.2664 220.324H47.562V213.661H41.2664V220.324ZM14.7676 264.198H21.0633V257.535H14.7676V264.198ZM41.2664 264.198H47.562V257.535H41.2664V264.198ZM67.7651 264.198H74.0608V257.535H67.7651V264.198ZM67.7651 242.261H74.0608V235.598H67.7651V242.261ZM67.7651 220.323H74.0608V213.661H67.7651V220.323Z" fill="#071D5B"/>
<path d="M16.7768 210.432L16.3432 210.681L16.3432 210.681L16.7768 210.432ZM16.4091 210.078L16.1766 210.521L16.1766 210.521L16.4091 210.078ZM20.0189 216.078L19.5853 216.327L19.7295 216.578H20.0189V216.078ZM39.4383 216.078V216.578H39.9383V216.078H39.4383ZM39.706 212.1L40.0596 212.454V212.454L39.706 212.1ZM49.1224 212.1L48.7689 212.454V212.454L49.1224 212.1ZM49.3901 216.078H48.8901V216.578H49.3901V216.078ZM65.937 216.078V216.578H66.437V216.078H65.937ZM66.2047 212.1L66.5582 212.454V212.454L66.2047 212.1ZM75.6212 212.1L75.9748 211.747L75.9748 211.747L75.6212 212.1ZM75.6212 221.885L75.9748 222.238L75.9748 222.238L75.6212 221.885ZM71.827 222.153V221.653H71.327V222.153H71.827ZM71.827 233.77H71.327V234.27H71.827V233.77ZM75.6212 234.037L75.9748 233.684L75.9748 233.684L75.6212 234.037ZM75.6212 243.822L75.9748 244.175L75.9748 244.175L75.6212 243.822ZM71.827 244.089V243.589H71.327V244.089H71.827ZM71.827 255.707H71.327V256.207H71.827V255.707ZM75.6212 255.974L75.9748 255.621L75.9748 255.621L75.6212 255.974ZM75.6212 265.759L75.9748 266.112L75.9748 266.112L75.6212 265.759ZM66.2047 265.759L66.5582 265.405L66.5582 265.405L66.2047 265.759ZM65.937 261.781H66.437V261.281H65.937V261.781ZM49.3901 261.781V261.281H48.8901V261.781H49.3901ZM49.1224 265.759L48.7689 265.405L48.7689 265.405L49.1224 265.759ZM39.706 265.759L40.0596 265.405L40.0596 265.405L39.706 265.759ZM39.4383 261.781H39.9383V261.281H39.4383V261.781ZM22.8915 261.781V261.281H22.3915V261.781H22.8915ZM22.6237 265.759L22.9773 266.112L22.9773 266.112L22.6237 265.759ZM13.2072 255.974L12.8536 255.621L12.8536 255.621L13.2072 255.974ZM17.0019 255.707V256.207H17.5019V255.707H17.0019ZM17.0019 237.321H17.5019V236.376L16.7206 236.907L17.0019 237.321ZM3.5398 246.478L3.25858 246.065L3.25841 246.065L3.5398 246.478ZM2.99482 246.636L2.9781 247.136L2.99482 246.636ZM2.46162 246.442L2.15324 246.836L2.15324 246.836L2.46162 246.442ZM2.16871 245.404L2.63732 245.578L2.63733 245.578L2.16871 245.404ZM15.1274 210.569L14.6588 210.394L14.6587 210.394L15.1274 210.569ZM15.4319 210.159L15.1299 209.761L15.1299 209.761L15.4319 210.159ZM15.9088 209.976L15.95 210.475V210.475L15.9088 209.976ZM18.83 255.707H18.33V256.207H18.83V255.707ZM18.83 236.901L19.0394 236.446L18.33 236.119V236.901H18.83ZM22.6237 255.974L22.9773 255.621L22.9773 255.621L22.6237 255.974ZM22.8915 259.953H22.3915V260.453H22.8915V259.953ZM39.4383 259.953V260.453H39.9383V259.953H39.4383ZM39.706 255.974L39.3525 255.621L39.3524 255.621L39.706 255.974ZM49.1224 255.974L49.476 255.621L49.476 255.621L49.1224 255.974ZM49.3901 259.953H48.8901V260.453H49.3901V259.953ZM65.937 259.953V260.453H66.437V259.953H65.937ZM69.9989 255.707V256.207H70.4989V255.707H69.9989ZM69.9989 244.089H70.4989V243.589H69.9989V244.089ZM66.2047 234.037L66.5582 234.391V234.391L66.2047 234.037ZM69.9989 233.77V234.27H70.4989V233.77H69.9989ZM69.9989 222.153H70.4989V221.653H69.9989V222.153ZM66.2047 221.885L66.5582 221.531V221.531L66.2047 221.885ZM65.937 217.907H66.437V217.407H65.937V217.907ZM49.3901 217.907V217.407H48.8901V217.907H49.3901ZM49.1224 221.885L48.7689 221.531L48.7689 221.531L49.1224 221.885ZM39.706 221.885L40.0596 221.531L40.0596 221.531L39.706 221.885ZM39.4383 217.907H39.9383V217.407H39.4383V217.907ZM21.0687 217.907V217.407H20.205L20.6351 218.156L21.0687 217.907ZM35.2852 242.664L35.7188 242.415L35.7188 242.415L35.2852 242.664ZM34.6731 244.015L34.7719 244.505H34.7719L34.6731 244.015ZM34.1097 243.949L33.9003 244.403L33.9003 244.403L34.1097 243.949ZM18.4052 234.691L18.6147 234.237L18.6146 234.237L18.4052 234.691ZM32.2717 241.088L32.0622 241.542L33.4862 242.199L32.7053 240.839L32.2717 241.088ZM16.1615 213.032L16.5951 212.783L16.0644 211.859L15.6929 212.858L16.1615 213.032ZM4.88164 243.354L4.41302 243.18L3.86628 244.65L5.16287 243.768L4.88164 243.354ZM17.5082 234.765L17.7894 235.179L17.7895 235.179L17.5082 234.765ZM47.562 220.324V220.824H48.062V220.324H47.562ZM41.2664 220.324H40.7664V220.824H41.2664V220.324ZM47.562 213.661H48.062V213.161H47.562V213.661ZM41.2664 213.661V213.161H40.7664V213.661H41.2664ZM21.0633 264.198V264.698H21.5633V264.198H21.0633ZM14.7676 264.198H14.2676V264.698H14.7676V264.198ZM21.0633 257.535H21.5633V257.035H21.0633V257.535ZM14.7676 257.535V257.035H14.2676V257.535H14.7676ZM47.562 264.198V264.698H48.062V264.198H47.562ZM41.2664 264.198H40.7664V264.698H41.2664V264.198ZM47.562 257.535H48.062V257.035H47.562V257.535ZM41.2664 257.535V257.035H40.7664V257.535H41.2664ZM74.0608 264.198V264.698H74.5608V264.198H74.0608ZM67.7651 264.198H67.2651V264.698H67.7651V264.198ZM74.0608 257.535H74.5608V257.035H74.0608V257.535ZM67.7651 257.535V257.035H67.2651V257.535H67.7651ZM74.0608 242.261V242.761H74.5608V242.261H74.0608ZM67.7651 242.261H67.2651V242.761H67.7651V242.261ZM74.0608 235.598H74.5608V235.098H74.0608V235.598ZM67.7651 235.598V235.098H67.2651V235.598H67.7651ZM74.0608 220.323V220.823H74.5608V220.323H74.0608ZM67.7651 220.323H67.2651V220.823H67.7651V220.323ZM74.0608 213.661H74.5608V213.161H74.0608V213.661ZM67.7651 213.661V213.161H67.2651V213.661H67.7651ZM17.2104 210.183C17.0767 209.95 16.8794 209.76 16.6416 209.636L16.1766 210.521C16.2462 210.557 16.304 210.613 16.3432 210.681L17.2104 210.183ZM20.4525 215.829L17.2104 210.183L16.3432 210.681L19.5853 216.327L20.4525 215.829ZM39.4383 215.578H20.0189V216.578H39.4383V215.578ZM38.9383 212.747V216.078H39.9383V212.747H38.9383ZM39.3524 211.747C39.0873 212.012 38.9383 212.372 38.9383 212.747H39.9383C39.9383 212.637 39.9819 212.532 40.0596 212.454L39.3524 211.747ZM40.3523 211.333C39.9773 211.333 39.6176 211.482 39.3524 211.747L40.0596 212.454C40.1372 212.376 40.2425 212.333 40.3523 212.333V211.333ZM48.4761 211.333H40.3523V212.333H48.4761V211.333ZM49.476 211.747C49.2108 211.482 48.8511 211.333 48.4761 211.333V212.333C48.5859 212.333 48.6912 212.376 48.7689 212.454L49.476 211.747ZM49.8901 212.747C49.8901 212.372 49.7411 212.012 49.476 211.747L48.7689 212.454C48.8465 212.532 48.8901 212.637 48.8901 212.747H49.8901ZM49.8901 216.078V212.747H48.8901V216.078H49.8901ZM65.937 215.578H49.3901V216.578H65.937V215.578ZM65.437 212.747V216.078H66.437V212.747H65.437ZM65.8511 211.747C65.5859 212.012 65.437 212.372 65.437 212.747H66.437C66.437 212.637 66.4806 212.532 66.5582 212.454L65.8511 211.747ZM66.851 211.333C66.476 211.333 66.1163 211.482 65.8511 211.747L66.5582 212.454C66.6359 212.376 66.7412 212.333 66.851 212.333V211.333ZM74.9749 211.333H66.851V212.333H74.9749V211.333ZM75.9748 211.747C75.7096 211.482 75.3499 211.333 74.9749 211.333V212.333C75.0847 212.333 75.19 212.376 75.2677 212.454L75.9748 211.747ZM76.389 212.747C76.389 212.372 76.24 212.012 75.9748 211.747L75.2677 212.454C75.3453 212.532 75.389 212.637 75.389 212.747H76.389ZM76.389 221.238V212.747H75.389V221.238H76.389ZM75.9748 222.238C76.24 221.973 76.389 221.614 76.389 221.238H75.389C75.389 221.348 75.3453 221.454 75.2677 221.531L75.9748 222.238ZM74.9749 222.653C75.3499 222.653 75.7096 222.504 75.9748 222.238L75.2677 221.531C75.19 221.609 75.0847 221.653 74.9749 221.653V222.653ZM71.827 222.653H74.9749V221.653H71.827V222.653ZM72.327 233.77V222.153H71.327V233.77H72.327ZM74.9749 233.27H71.827V234.27H74.9749V233.27ZM75.9748 233.684C75.7096 233.419 75.3499 233.27 74.9749 233.27V234.27C75.0847 234.27 75.19 234.313 75.2677 234.391L75.9748 233.684ZM76.389 234.684C76.389 234.309 76.24 233.949 75.9748 233.684L75.2677 234.391C75.3453 234.468 75.389 234.574 75.389 234.684H76.389ZM76.389 243.175V234.684H75.389V243.175H76.389ZM75.9748 244.175C76.24 243.91 76.389 243.55 76.389 243.175H75.389C75.389 243.285 75.3453 243.391 75.2677 243.468L75.9748 244.175ZM74.9749 244.589C75.3499 244.589 75.7096 244.44 75.9748 244.175L75.2677 243.468C75.19 243.546 75.0847 243.589 74.9749 243.589V244.589ZM71.827 244.589H74.9749V243.589H71.827V244.589ZM72.327 255.707V244.089H71.327V255.707H72.327ZM74.9749 255.207H71.827V256.207H74.9749V255.207ZM75.9748 255.621C75.7096 255.356 75.3499 255.207 74.9749 255.207V256.207C75.0847 256.207 75.19 256.25 75.2677 256.328L75.9748 255.621ZM76.389 256.621C76.389 256.246 76.24 255.886 75.9748 255.621L75.2677 256.328C75.3453 256.406 75.389 256.511 75.389 256.621H76.389ZM76.389 265.112V256.621H75.389V265.112H76.389ZM75.9748 266.112C76.24 265.847 76.389 265.487 76.389 265.112H75.389C75.389 265.222 75.3453 265.328 75.2677 265.405L75.9748 266.112ZM74.9749 266.526C75.3499 266.526 75.7096 266.378 75.9748 266.112L75.2677 265.405C75.19 265.483 75.0847 265.526 74.9749 265.526V266.526ZM66.851 266.526H74.9749V265.526H66.851V266.526ZM65.8511 266.112C66.1163 266.378 66.476 266.526 66.851 266.526V265.526C66.7412 265.526 66.6359 265.483 66.5582 265.405L65.8511 266.112ZM65.437 265.112C65.437 265.487 65.5859 265.847 65.8511 266.112L66.5582 265.405C66.4806 265.328 66.437 265.222 66.437 265.112H65.437ZM65.437 261.781V265.112H66.437V261.781H65.437ZM49.3901 262.281H65.937V261.281H49.3901V262.281ZM49.8901 265.112V261.781H48.8901V265.112H49.8901ZM49.476 266.112C49.7411 265.847 49.8901 265.487 49.8901 265.112H48.8901C48.8901 265.222 48.8465 265.328 48.7689 265.405L49.476 266.112ZM48.4761 266.526C48.8511 266.526 49.2108 266.378 49.476 266.112L48.7689 265.405C48.6912 265.483 48.5859 265.526 48.4761 265.526V266.526ZM40.3523 266.526H48.4761V265.526H40.3523V266.526ZM39.3524 266.112C39.6176 266.378 39.9773 266.526 40.3523 266.526V265.526C40.2425 265.526 40.1372 265.483 40.0596 265.405L39.3524 266.112ZM38.9383 265.112C38.9383 265.487 39.0873 265.847 39.3525 266.112L40.0596 265.405C39.9819 265.328 39.9383 265.222 39.9383 265.112H38.9383ZM38.9383 261.781V265.112H39.9383V261.781H38.9383ZM22.8915 262.281H39.4383V261.281H22.8915V262.281ZM23.3915 265.112V261.781H22.3915V265.112H23.3915ZM22.9773 266.112C23.2425 265.847 23.3915 265.487 23.3915 265.112H22.3915C22.3915 265.222 22.3478 265.327 22.2702 265.405L22.9773 266.112ZM21.9774 266.526C22.3524 266.526 22.7121 266.377 22.9773 266.112L22.2702 265.405C22.1925 265.483 22.0872 265.526 21.9774 265.526V266.526ZM13.8535 266.526H21.9774V265.526H13.8535V266.526ZM12.8536 266.112C13.1188 266.377 13.4785 266.526 13.8535 266.526V265.526C13.7437 265.526 13.6384 265.483 13.5607 265.405L12.8536 266.112ZM12.4395 265.112C12.4395 265.487 12.5884 265.847 12.8536 266.112L13.5607 265.405C13.4831 265.327 13.4395 265.222 13.4395 265.112H12.4395ZM12.4395 256.621V265.112H13.4395V256.621H12.4395ZM12.8536 255.621C12.5884 255.886 12.4395 256.246 12.4395 256.621H13.4395C13.4395 256.511 13.4831 256.406 13.5607 256.328L12.8536 255.621ZM13.8535 255.207C13.4785 255.207 13.1188 255.356 12.8536 255.621L13.5607 256.328C13.6384 256.25 13.7437 256.207 13.8535 256.207V255.207ZM17.0019 255.207H13.8535V256.207H17.0019V255.207ZM16.5019 237.321V255.707H17.5019V237.321H16.5019ZM3.82102 246.892L17.2831 237.734L16.7206 236.907L3.25858 246.065L3.82102 246.892ZM2.9781 247.136C3.27793 247.146 3.57319 247.06 3.82119 246.891L3.25841 246.065C3.1858 246.114 3.09935 246.139 3.01154 246.136L2.9781 247.136ZM2.15324 246.836C2.38939 247.021 2.67827 247.126 2.9781 247.136L3.01154 246.136C2.92374 246.133 2.83915 246.103 2.77001 246.048L2.15324 246.836ZM1.66445 246.107C1.74591 246.395 1.91709 246.651 2.15324 246.836L2.77001 246.048C2.70086 245.994 2.65074 245.92 2.62688 245.835L1.66445 246.107ZM1.70009 245.229C1.59548 245.511 1.58299 245.818 1.66445 246.107L2.62688 245.835C2.60303 245.75 2.60669 245.661 2.63732 245.578L1.70009 245.229ZM14.6587 210.394L1.70008 245.229L2.63733 245.578L15.596 210.743L14.6587 210.394ZM15.1299 209.761C14.9159 209.923 14.7524 210.143 14.6588 210.394L15.596 210.743C15.6234 210.669 15.6713 210.605 15.734 210.557L15.1299 209.761ZM15.8676 209.478C15.5999 209.5 15.344 209.598 15.1299 209.761L15.734 210.557C15.7966 210.51 15.8716 210.481 15.95 210.475L15.8676 209.478ZM16.6416 209.636C16.4037 209.511 16.1353 209.456 15.8676 209.478L15.95 210.475C16.0283 210.468 16.107 210.484 16.1766 210.521L16.6416 209.636ZM19.33 255.707V236.901H18.33V255.707H19.33ZM21.9774 255.207H18.83V256.207H21.9774V255.207ZM22.9773 255.621C22.7121 255.356 22.3524 255.207 21.9774 255.207V256.207C22.0872 256.207 22.1925 256.25 22.2702 256.328L22.9773 255.621ZM23.3915 256.621C23.3915 256.246 23.2425 255.886 22.9773 255.621L22.2702 256.328C22.3478 256.406 22.3915 256.511 22.3915 256.621H23.3915ZM23.3915 259.953V256.621H22.3915V259.953H23.3915ZM39.4383 259.453H22.8915V260.453H39.4383V259.453ZM38.9383 256.621V259.953H39.9383V256.621H38.9383ZM39.3524 255.621C39.0873 255.886 38.9383 256.246 38.9383 256.621H39.9383C39.9383 256.511 39.9819 256.406 40.0596 256.328L39.3524 255.621ZM40.3523 255.207C39.9773 255.207 39.6176 255.356 39.3525 255.621L40.0596 256.328C40.1372 256.25 40.2425 256.207 40.3523 256.207V255.207ZM48.4761 255.207H40.3523V256.207H48.4761V255.207ZM49.476 255.621C49.2108 255.356 48.8511 255.207 48.4761 255.207V256.207C48.5859 256.207 48.6912 256.25 48.7689 256.328L49.476 255.621ZM49.8901 256.621C49.8901 256.246 49.7411 255.886 49.476 255.621L48.7689 256.328C48.8465 256.406 48.8901 256.511 48.8901 256.621H49.8901ZM49.8901 259.953V256.621H48.8901V259.953H49.8901ZM65.937 259.453H49.3901V260.453H65.937V259.453ZM65.437 256.621V259.953H66.437V256.621H65.437ZM65.8511 255.621C65.5859 255.886 65.437 256.246 65.437 256.621H66.437C66.437 256.511 66.4806 256.406 66.5582 256.328L65.8511 255.621ZM66.851 255.207C66.476 255.207 66.1163 255.356 65.8511 255.621L66.5582 256.328C66.6359 256.25 66.7412 256.207 66.851 256.207V255.207ZM69.9989 255.207H66.851V256.207H69.9989V255.207ZM69.4989 244.089V255.707H70.4989V244.089H69.4989ZM66.851 244.589H69.9989V243.589H66.851V244.589ZM65.8511 244.175C66.1163 244.44 66.476 244.589 66.851 244.589V243.589C66.7412 243.589 66.6359 243.546 66.5582 243.468L65.8511 244.175ZM65.437 243.175C65.437 243.55 65.5859 243.91 65.8511 244.175L66.5582 243.468C66.4806 243.391 66.437 243.285 66.437 243.175H65.437ZM65.437 234.684V243.175H66.437V234.684H65.437ZM65.8511 233.684C65.5859 233.949 65.437 234.309 65.437 234.684H66.437C66.437 234.574 66.4806 234.468 66.5582 234.391L65.8511 233.684ZM66.851 233.27C66.476 233.27 66.1163 233.419 65.8511 233.684L66.5582 234.391C66.6359 234.313 66.7412 234.27 66.851 234.27V233.27ZM69.9989 233.27H66.851V234.27H69.9989V233.27ZM69.4989 222.153V233.77H70.4989V222.153H69.4989ZM66.851 222.653H69.9989V221.653H66.851V222.653ZM65.8511 222.238C66.1163 222.504 66.476 222.653 66.851 222.653V221.653C66.7412 221.653 66.6359 221.609 66.5582 221.531L65.8511 222.238ZM65.437 221.238C65.437 221.614 65.5859 221.973 65.8511 222.238L66.5582 221.531C66.4806 221.454 66.437 221.348 66.437 221.238H65.437ZM65.437 217.907V221.238H66.437V217.907H65.437ZM49.3901 218.407H65.937V217.407H49.3901V218.407ZM49.8901 221.238V217.907H48.8901V221.238H49.8901ZM49.476 222.238C49.7411 221.973 49.8901 221.614 49.8901 221.238H48.8901C48.8901 221.348 48.8465 221.454 48.7689 221.531L49.476 222.238ZM48.4761 222.653C48.8511 222.653 49.2108 222.504 49.476 222.238L48.7689 221.531C48.6912 221.609 48.5859 221.653 48.4761 221.653V222.653ZM40.3523 222.653H48.4761V221.653H40.3523V222.653ZM39.3524 222.238C39.6176 222.504 39.9773 222.653 40.3523 222.653V221.653C40.2425 221.653 40.1372 221.609 40.0596 221.531L39.3524 222.238ZM38.9383 221.238C38.9383 221.614 39.0873 221.973 39.3525 222.238L40.0596 221.531C39.9819 221.454 39.9383 221.348 39.9383 221.238H38.9383ZM38.9383 217.907V221.238H39.9383V217.907H38.9383ZM21.0687 218.407H39.4383V217.407H21.0687V218.407ZM35.7188 242.415L21.5023 217.658L20.6351 218.156L34.8516 242.913L35.7188 242.415ZM35.898 243.274C35.9309 242.976 35.8681 242.675 35.7188 242.415L34.8516 242.913C34.8953 242.989 34.9137 243.077 34.9041 243.165L35.898 243.274ZM35.5359 244.074C35.7383 243.852 35.8652 243.572 35.898 243.274L34.9041 243.165C34.8944 243.252 34.8573 243.334 34.798 243.399L35.5359 244.074ZM34.7719 244.505C35.0659 244.446 35.3335 244.295 35.5359 244.074L34.798 243.399C34.7388 243.463 34.6604 243.508 34.5743 243.525L34.7719 244.505ZM33.9003 244.403C34.1727 244.529 34.4779 244.565 34.7719 244.505L34.5743 243.525C34.4882 243.542 34.3988 243.532 34.3191 243.495L33.9003 244.403ZM18.6205 237.355L33.9003 244.403L34.3192 243.495L19.0394 236.446L18.6205 237.355ZM18.6146 234.237C18.393 234.135 18.1488 234.092 17.9056 234.112L17.9882 235.108C18.0594 235.102 18.1309 235.115 18.1958 235.145L18.6146 234.237ZM32.4811 240.634L18.6147 234.237L18.1957 235.145L32.0622 241.542L32.4811 240.634ZM15.7279 213.281L31.8381 241.337L32.7053 240.839L16.5951 212.783L15.7279 213.281ZM5.35027 243.529L16.6301 213.206L15.6929 212.858L4.41302 243.18L5.35027 243.529ZM17.227 234.352L4.60042 242.941L5.16287 243.768L17.7894 235.179L17.227 234.352ZM17.9056 234.112C17.6625 234.132 17.4286 234.215 17.2269 234.352L17.7895 235.179C17.8485 235.138 17.917 235.114 17.9882 235.108L17.9056 234.112ZM47.562 219.824H41.2664V220.824H47.562V219.824ZM47.062 213.661V220.324H48.062V213.661H47.062ZM41.2664 214.161H47.562V213.161H41.2664V214.161ZM41.7664 220.324V213.661H40.7664V220.324H41.7664ZM21.0633 263.698H14.7676V264.698H21.0633V263.698ZM20.5633 257.535V264.198H21.5633V257.535H20.5633ZM14.7676 258.035H21.0633V257.035H14.7676V258.035ZM15.2676 264.198V257.535H14.2676V264.198H15.2676ZM47.562 263.698H41.2664V264.698H47.562V263.698ZM47.062 257.535V264.198H48.062V257.535H47.062ZM41.2664 258.035H47.562V257.035H41.2664V258.035ZM41.7664 264.198V257.535H40.7664V264.198H41.7664ZM74.0608 263.698H67.7651V264.698H74.0608V263.698ZM73.5608 257.535V264.198H74.5608V257.535H73.5608ZM67.7651 258.035H74.0608V257.035H67.7651V258.035ZM68.2651 264.198V257.535H67.2651V264.198H68.2651ZM74.0608 241.761H67.7651V242.761H74.0608V241.761ZM73.5608 235.598V242.261H74.5608V235.598H73.5608ZM67.7651 236.098H74.0608V235.098H67.7651V236.098ZM68.2651 242.261V235.598H67.2651V242.261H68.2651ZM74.0608 219.823H67.7651V220.823H74.0608V219.823ZM73.5608 213.661V220.323H74.5608V213.661H73.5608ZM67.7651 214.161H74.0608V213.161H67.7651V214.161ZM68.2651 220.323V213.661H67.2651V220.323H68.2651Z" fill="white" mask="url(#path-19-inside-2)"/>
<path fill-rule="evenodd" clip-rule="evenodd" d="M16.1617 213.032L18.0108 216.252L8.96099 240.58L4.88184 243.354L16.1617 213.032ZM20.9936 234.61C21.1508 234.597 21.3087 234.625 21.4519 234.691L31.1736 239.176L32.2715 241.088L19.751 235.312L20.5549 234.765C20.6853 234.677 20.8364 234.623 20.9936 234.61Z" fill="#E7E7E8"/>
<g clip-path="url(#clip1)">
<path fill-rule="evenodd" clip-rule="evenodd" d="M35.135 33.178C34.6317 33.5884 34.1546 34.0297 33.7061 34.4986C31.5051 35.3662 29.5195 36.7012 27.8854 38.4117C27.6597 38.2009 27.4391 37.9833 27.2246 37.7586C29.3702 35.5083 32.1151 33.9188 35.135 33.178ZM22.7324 48.2118C22.8925 44.842 24.1008 41.6056 26.1879 38.9551C26.5394 39.3152 26.9036 39.659 27.2802 39.9868C25.6471 42.4316 24.7103 45.275 24.5712 48.2118H22.7324ZM22.7324 49.7878H24.5712C24.7103 52.7246 25.6471 55.5685 27.2802 58.0133C26.9021 58.3401 26.5383 58.6839 26.1879 59.0446C24.1008 56.3941 22.8925 53.1582 22.7324 49.7878ZM32.6954 62.3447C31.088 61.5274 29.6263 60.45 28.3703 59.1555C27.9732 59.4977 27.5899 59.8594 27.2246 60.2417C29.3697 62.492 32.1141 64.0814 35.133 64.8223C34.2336 64.0871 33.4163 63.2564 32.6954 62.3447Z" fill="#E7E7E8"/>
<mask id="path-24-inside-3" fill="white">
<path fill-rule="evenodd" clip-rule="evenodd" d="M45.0401 23.9716C54.4318 26.2352 61.7645 33.5684 64.0286 42.9601C67.3374 42.998 70.0002 45.6911 70.0002 48.9998C70.0002 52.3091 67.3374 55.0022 64.0286 55.0401C61.7645 64.4318 54.4318 71.7645 45.0401 74.0286C45.0022 77.3374 42.3091 80.0002 38.9998 80.0002C35.6911 80.0002 32.998 77.3374 32.9601 74.0286C23.5684 71.7645 16.2352 64.4318 13.9716 55.0401C10.6623 55.0022 8 52.3091 8 48.9998C8 45.6911 10.6623 42.998 13.9716 42.9601C16.2352 33.5684 23.5684 26.2352 32.9601 23.9716C32.998 20.6623 35.6911 18 38.9998 18C42.3091 18 45.0022 20.6623 45.0401 23.9716ZM43.4656 24.0444C43.463 21.5791 41.4651 19.5818 38.9998 19.5787C36.5346 19.5818 34.5372 21.5791 34.5341 24.0444C34.5341 24.1994 34.5418 24.3538 34.5582 24.5077C34.7963 26.7811 36.7121 28.5081 38.9978 28.5091C41.2835 28.5101 43.2013 26.7852 43.4409 24.5123C43.4579 24.3569 43.4661 24.2009 43.4656 24.0444ZM14.0444 44.5341C11.5791 44.5372 9.58178 46.5346 9.5787 48.9998C9.58178 51.4651 11.5791 53.463 14.0444 53.4656C14.1994 53.4661 14.3543 53.4579 14.5082 53.4414C16.7811 53.2034 18.5081 51.2876 18.5091 49.0019C18.5101 46.7167 16.7852 44.7989 14.5123 44.5588C14.3569 44.5423 14.2009 44.5341 14.0444 44.5341ZM34.5341 73.9553C34.5372 76.4205 36.5346 78.4184 38.9998 78.421C41.4651 78.4184 43.463 76.4205 43.4656 73.9553C43.4661 73.8008 43.4579 73.6459 43.4414 73.492C43.2039 71.2186 41.2881 69.4921 39.0024 69.4906C36.7167 69.4896 34.7989 71.2145 34.5588 73.4879C34.5423 73.6433 34.5341 73.7993 34.5341 73.9553ZM38.9998 67.9134C41.7581 67.9134 44.1664 69.781 44.8534 72.4525C53.5221 70.2915 60.291 63.5226 62.452 54.8539C59.781 54.1669 57.9134 51.7586 57.9134 49.0004C57.9134 46.2421 59.781 43.8338 62.452 43.1468C60.2915 34.4776 53.5226 27.7087 44.8539 25.5477C44.1669 28.2192 41.7586 30.0862 39.0004 30.0862C36.2421 30.0862 33.8338 28.2192 33.1468 25.5477C24.4776 27.7087 17.7092 34.4776 15.5477 43.1463C18.2192 43.8333 20.0862 46.2416 20.0862 48.9998C20.0862 51.7581 18.2192 54.1664 15.5477 54.8534C17.7087 63.5221 24.4776 70.291 33.1463 72.4525C33.8333 69.781 36.2416 67.9134 38.9998 67.9134ZM63.4879 53.4409C63.6428 53.4579 63.7993 53.4661 63.9553 53.4656C66.4216 53.4656 68.421 51.4661 68.421 48.9998C68.421 46.5335 66.4216 44.5341 63.9553 44.5341C63.8003 44.5341 63.6459 44.5423 63.492 44.5588C61.2186 44.7968 59.4921 46.7126 59.4911 48.9978C59.4901 51.2835 61.215 53.2008 63.4879 53.4409ZM38.9996 66.8626C29.1503 66.8626 21.1367 58.8496 21.1367 48.9998C21.1367 39.1505 29.1503 31.137 38.9996 31.137C48.8494 31.137 56.8624 39.1505 56.8624 48.9998C56.8624 58.8496 48.8494 66.8626 38.9996 66.8626ZM28.4792 48.2117C28.531 45.9912 28.8922 43.7886 29.5515 41.6671C28.3247 40.9026 27.195 39.9919 26.1878 38.955C24.1007 41.6055 22.8924 44.8419 22.7323 48.2117H28.4792ZM55.2668 48.2117C55.1072 44.8435 53.9 41.6086 51.8144 38.9586C50.8098 40.0017 49.6805 40.917 48.4528 41.684C49.109 43.8004 49.4681 45.9968 49.5205 48.2117H55.2668ZM49.5205 49.7879C49.4681 52.0028 49.1095 54.1997 48.4533 56.3161C49.681 57.0831 50.8098 57.9984 51.8138 59.0415C53.8995 56.3915 55.1067 53.1566 55.2663 49.7879H49.5205ZM22.7323 49.7879C22.8924 53.1582 24.1007 56.3941 26.1878 59.0446C27.195 58.0077 28.3247 57.097 29.552 56.333C28.8922 54.2115 28.5315 52.0089 28.4792 49.7879H22.7323ZM38.2115 49.7879H30.0558C30.1061 51.7375 30.4093 53.6728 30.9583 55.5439C33.2148 54.4075 35.6872 53.7641 38.2115 53.6559V49.7879ZM38.2115 65.0028V55.233C35.8622 55.3438 33.5647 55.9631 31.4775 57.0477C32.8489 60.5499 35.1598 63.323 38.2115 65.0028ZM39.7876 55.2299V65.0028C42.8445 63.3204 45.1584 60.5402 46.5293 57.0303C44.4411 55.9431 42.1395 55.3284 39.7876 55.2299ZM39.7876 49.7879V53.6523C42.3134 53.7487 44.789 54.3875 47.0465 55.525C47.5918 53.6595 47.8935 51.7314 47.9433 49.7879H39.7876ZM39.7876 48.2117H47.9433C47.8935 46.2688 47.5918 44.3402 47.0459 42.4741C44.789 43.6116 42.3134 44.2504 39.7876 44.3473V48.2117ZM39.7876 32.9978V42.7697C42.1395 42.6706 44.4406 42.056 46.5288 40.9693C45.1579 37.4595 42.8445 34.6792 39.7876 32.9978ZM38.2115 42.7666V32.9984C35.1598 34.6771 32.8495 37.4507 31.4775 40.9519C33.5647 42.037 35.8622 42.6563 38.2115 42.7666ZM38.2115 48.2117V44.3443C35.6872 44.2365 33.2148 43.5926 30.9583 42.4562C30.4093 44.3273 30.1061 46.2621 30.0558 48.2117H38.2115ZM30.0994 57.8532C29.0528 58.5361 28.0882 59.3375 27.2253 60.241C29.3704 62.4913 32.1148 64.0808 35.1336 64.8217C32.9464 63.0398 31.239 60.6628 30.0994 57.8532ZM47.9058 57.8378C46.7668 60.6535 45.0573 63.0367 42.8655 64.8217C45.8859 64.0803 48.6313 62.4903 50.7769 60.2385C49.9165 59.3293 48.953 58.5238 47.9058 57.8378ZM47.9058 40.1618C48.953 39.4763 49.9165 38.6708 50.7769 37.7611C48.6308 35.5093 45.8854 33.9188 42.8645 33.1779C45.0563 34.9629 46.7663 37.3456 47.9058 40.1618ZM35.1343 33.1782C32.9465 34.9594 31.2393 37.3372 30.0999 40.1459C29.0528 39.4635 28.0882 38.6621 27.2253 37.7586C29.3707 35.508 32.1147 33.9186 35.1343 33.1782Z"/>
</mask>
<path fill-rule="evenodd" clip-rule="evenodd" d="M45.0401 23.9716C54.4318 26.2352 61.7645 33.5684 64.0286 42.9601C67.3374 42.998 70.0002 45.6911 70.0002 48.9998C70.0002 52.3091 67.3374 55.0022 64.0286 55.0401C61.7645 64.4318 54.4318 71.7645 45.0401 74.0286C45.0022 77.3374 42.3091 80.0002 38.9998 80.0002C35.6911 80.0002 32.998 77.3374 32.9601 74.0286C23.5684 71.7645 16.2352 64.4318 13.9716 55.0401C10.6623 55.0022 8 52.3091 8 48.9998C8 45.6911 10.6623 42.998 13.9716 42.9601C16.2352 33.5684 23.5684 26.2352 32.9601 23.9716C32.998 20.6623 35.6911 18 38.9998 18C42.3091 18 45.0022 20.6623 45.0401 23.9716ZM43.4656 24.0444C43.463 21.5791 41.4651 19.5818 38.9998 19.5787C36.5346 19.5818 34.5372 21.5791 34.5341 24.0444C34.5341 24.1994 34.5418 24.3538 34.5582 24.5077C34.7963 26.7811 36.7121 28.5081 38.9978 28.5091C41.2835 28.5101 43.2013 26.7852 43.4409 24.5123C43.4579 24.3569 43.4661 24.2009 43.4656 24.0444ZM14.0444 44.5341C11.5791 44.5372 9.58178 46.5346 9.5787 48.9998C9.58178 51.4651 11.5791 53.463 14.0444 53.4656C14.1994 53.4661 14.3543 53.4579 14.5082 53.4414C16.7811 53.2034 18.5081 51.2876 18.5091 49.0019C18.5101 46.7167 16.7852 44.7989 14.5123 44.5588C14.3569 44.5423 14.2009 44.5341 14.0444 44.5341ZM34.5341 73.9553C34.5372 76.4205 36.5346 78.4184 38.9998 78.421C41.4651 78.4184 43.463 76.4205 43.4656 73.9553C43.4661 73.8008 43.4579 73.6459 43.4414 73.492C43.2039 71.2186 41.2881 69.4921 39.0024 69.4906C36.7167 69.4896 34.7989 71.2145 34.5588 73.4879C34.5423 73.6433 34.5341 73.7993 34.5341 73.9553ZM38.9998 67.9134C41.7581 67.9134 44.1664 69.781 44.8534 72.4525C53.5221 70.2915 60.291 63.5226 62.452 54.8539C59.781 54.1669 57.9134 51.7586 57.9134 49.0004C57.9134 46.2421 59.781 43.8338 62.452 43.1468C60.2915 34.4776 53.5226 27.7087 44.8539 25.5477C44.1669 28.2192 41.7586 30.0862 39.0004 30.0862C36.2421 30.0862 33.8338 28.2192 33.1468 25.5477C24.4776 27.7087 17.7092 34.4776 15.5477 43.1463C18.2192 43.8333 20.0862 46.2416 20.0862 48.9998C20.0862 51.7581 18.2192 54.1664 15.5477 54.8534C17.7087 63.5221 24.4776 70.291 33.1463 72.4525C33.8333 69.781 36.2416 67.9134 38.9998 67.9134ZM63.4879 53.4409C63.6428 53.4579 63.7993 53.4661 63.9553 53.4656C66.4216 53.4656 68.421 51.4661 68.421 48.9998C68.421 46.5335 66.4216 44.5341 63.9553 44.5341C63.8003 44.5341 63.6459 44.5423 63.492 44.5588C61.2186 44.7968 59.4921 46.7126 59.4911 48.9978C59.4901 51.2835 61.215 53.2008 63.4879 53.4409ZM38.9996 66.8626C29.1503 66.8626 21.1367 58.8496 21.1367 48.9998C21.1367 39.1505 29.1503 31.137 38.9996 31.137C48.8494 31.137 56.8624 39.1505 56.8624 48.9998C56.8624 58.8496 48.8494 66.8626 38.9996 66.8626ZM28.4792 48.2117C28.531 45.9912 28.8922 43.7886 29.5515 41.6671C28.3247 40.9026 27.195 39.9919 26.1878 38.955C24.1007 41.6055 22.8924 44.8419 22.7323 48.2117H28.4792ZM55.2668 48.2117C55.1072 44.8435 53.9 41.6086 51.8144 38.9586C50.8098 40.0017 49.6805 40.917 48.4528 41.684C49.109 43.8004 49.4681 45.9968 49.5205 48.2117H55.2668ZM49.5205 49.7879C49.4681 52.0028 49.1095 54.1997 48.4533 56.3161C49.681 57.0831 50.8098 57.9984 51.8138 59.0415C53.8995 56.3915 55.1067 53.1566 55.2663 49.7879H49.5205ZM22.7323 49.7879C22.8924 53.1582 24.1007 56.3941 26.1878 59.0446C27.195 58.0077 28.3247 57.097 29.552 56.333C28.8922 54.2115 28.5315 52.0089 28.4792 49.7879H22.7323ZM38.2115 49.7879H30.0558C30.1061 51.7375 30.4093 53.6728 30.9583 55.5439C33.2148 54.4075 35.6872 53.7641 38.2115 53.6559V49.7879ZM38.2115 65.0028V55.233C35.8622 55.3438 33.5647 55.9631 31.4775 57.0477C32.8489 60.5499 35.1598 63.323 38.2115 65.0028ZM39.7876 55.2299V65.0028C42.8445 63.3204 45.1584 60.5402 46.5293 57.0303C44.4411 55.9431 42.1395 55.3284 39.7876 55.2299ZM39.7876 49.7879V53.6523C42.3134 53.7487 44.789 54.3875 47.0465 55.525C47.5918 53.6595 47.8935 51.7314 47.9433 49.7879H39.7876ZM39.7876 48.2117H47.9433C47.8935 46.2688 47.5918 44.3402 47.0459 42.4741C44.789 43.6116 42.3134 44.2504 39.7876 44.3473V48.2117ZM39.7876 32.9978V42.7697C42.1395 42.6706 44.4406 42.056 46.5288 40.9693C45.1579 37.4595 42.8445 34.6792 39.7876 32.9978ZM38.2115 42.7666V32.9984C35.1598 34.6771 32.8495 37.4507 31.4775 40.9519C33.5647 42.037 35.8622 42.6563 38.2115 42.7666ZM38.2115 48.2117V44.3443C35.6872 44.2365 33.2148 43.5926 30.9583 42.4562C30.4093 44.3273 30.1061 46.2621 30.0558 48.2117H38.2115ZM30.0994 57.8532C29.0528 58.5361 28.0882 59.3375 27.2253 60.241C29.3704 62.4913 32.1148 64.0808 35.1336 64.8217C32.9464 63.0398 31.239 60.6628 30.0994 57.8532ZM47.9058 57.8378C46.7668 60.6535 45.0573 63.0367 42.8655 64.8217C45.8859 64.0803 48.6313 62.4903 50.7769 60.2385C49.9165 59.3293 48.953 58.5238 47.9058 57.8378ZM47.9058 40.1618C48.953 39.4763 49.9165 38.6708 50.7769 37.7611C48.6308 35.5093 45.8854 33.9188 42.8645 33.1779C45.0563 34.9629 46.7663 37.3456 47.9058 40.1618ZM35.1343 33.1782C32.9465 34.9594 31.2393 37.3372 30.0999 40.1459C29.0528 39.4635 28.0882 38.6621 27.2253 37.7586C29.3707 35.508 32.1147 33.9186 35.1343 33.1782Z" fill="#071D5B"/>
<path d="M64.0286 42.9601L63.737 43.0304L63.7917 43.2574L64.0252 43.26L64.0286 42.9601ZM45.0401 23.9716L44.7402 23.975L44.7428 24.2085L44.9699 24.2632L45.0401 23.9716ZM64.0286 55.0401L64.0252 54.7402L63.7917 54.7428L63.737 54.9698L64.0286 55.0401ZM45.0401 74.0286L44.9698 73.737L44.7428 73.7917L44.7402 74.0252L45.0401 74.0286ZM32.9601 74.0286L33.26 74.0252L33.2574 73.7917L33.0304 73.737L32.9601 74.0286ZM13.9716 55.0401L14.2632 54.9699L14.2085 54.7428L13.975 54.7402L13.9716 55.0401ZM13.9716 42.9601L13.975 43.26L14.2085 43.2574L14.2632 43.0303L13.9716 42.9601ZM32.9601 23.9716L33.0303 24.2632L33.2574 24.2085L33.26 23.975L32.9601 23.9716ZM38.9998 19.5787L39.0002 19.2787L38.9995 19.2787L38.9998 19.5787ZM43.4656 24.0444L43.1656 24.0447V24.0454L43.4656 24.0444ZM34.5341 24.0444L34.2341 24.044V24.0444H34.5341ZM34.5582 24.5077L34.8566 24.4765L34.8566 24.4759L34.5582 24.5077ZM43.4409 24.5123L43.1427 24.4798L43.1426 24.4809L43.4409 24.5123ZM9.5787 48.9998L9.2787 48.9995L9.2787 49.0002L9.5787 48.9998ZM14.0444 44.5341V44.2341L14.044 44.2341L14.0444 44.5341ZM14.0444 53.4656L14.0454 53.1656H14.0447L14.0444 53.4656ZM14.5082 53.4414L14.477 53.1431L14.4764 53.1431L14.5082 53.4414ZM18.5091 49.0019L18.2091 49.0018L18.5091 49.0019ZM14.5123 44.5588L14.5438 44.2604H14.5438L14.5123 44.5588ZM38.9998 78.421L38.9995 78.721H39.0002L38.9998 78.421ZM34.5341 73.9553H34.2341L34.2341 73.9557L34.5341 73.9553ZM43.4656 73.9553L43.1656 73.9543V73.955L43.4656 73.9553ZM43.4414 73.492L43.1431 73.5232L43.1431 73.5238L43.4414 73.492ZM39.0024 69.4906L39.0026 69.1906H39.0025L39.0024 69.4906ZM34.5588 73.4879L34.2604 73.4564L34.5588 73.4879ZM44.8534 72.4525L44.5628 72.5272L44.637 72.8156L44.926 72.7436L44.8534 72.4525ZM62.452 54.8539L62.7431 54.9265L62.8151 54.6375L62.5267 54.5634L62.452 54.8539ZM62.452 43.1468L62.5267 43.4374L62.8151 43.3632L62.7431 43.0743L62.452 43.1468ZM44.8539 25.5477L44.9265 25.2566L44.6375 25.1846L44.5634 25.473L44.8539 25.5477ZM33.1468 25.5477L33.4374 25.473L33.3632 25.1846L33.0742 25.2566L33.1468 25.5477ZM15.5477 43.1463L15.2566 43.0737L15.1845 43.3627L15.473 43.4368L15.5477 43.1463ZM15.5477 54.8534L15.473 54.5628L15.1846 54.637L15.2566 54.926L15.5477 54.8534ZM33.1463 72.4525L33.0737 72.7436L33.3627 72.8157L33.4368 72.5272L33.1463 72.4525ZM63.9553 53.4656V53.1656L63.9543 53.1656L63.9553 53.4656ZM63.4879 53.4409L63.5205 53.1427L63.5194 53.1426L63.4879 53.4409ZM63.492 44.5588L63.5232 44.8571L63.5238 44.8571L63.492 44.5588ZM59.4911 48.9978L59.1911 48.9977L59.4911 48.9978ZM29.5515 41.6671L29.838 41.7561L29.9067 41.535L29.7101 41.4125L29.5515 41.6671ZM28.4792 48.2117V48.5117H28.7723L28.7791 48.2187L28.4792 48.2117ZM26.1878 38.955L26.403 38.746L26.1642 38.5001L25.9521 38.7694L26.1878 38.955ZM22.7323 48.2117L22.4327 48.1975L22.4178 48.5117H22.7323V48.2117ZM51.8144 38.9586L52.0501 38.7731L51.8371 38.5025L51.5983 38.7505L51.8144 38.9586ZM55.2668 48.2117V48.5117H55.5813L55.5664 48.1975L55.2668 48.2117ZM48.4528 41.684L48.2938 41.4296L48.0978 41.5521L48.1662 41.7729L48.4528 41.684ZM49.5205 48.2117L49.2205 48.2188L49.2275 48.5117H49.5205V48.2117ZM48.4533 56.3161L48.1667 56.2273L48.0983 56.448L48.2943 56.5705L48.4533 56.3161ZM49.5205 49.7879V49.4879H49.2275L49.2205 49.7808L49.5205 49.7879ZM51.8138 59.0415L51.5977 59.2495L51.8366 59.4977L52.0496 59.227L51.8138 59.0415ZM55.2663 49.7879L55.5659 49.8021L55.5808 49.4879H55.2663V49.7879ZM26.1878 59.0446L25.9521 59.2302L26.1642 59.4995L26.403 59.2536L26.1878 59.0446ZM22.7323 49.7879V49.4879H22.4178L22.4327 49.8021L22.7323 49.7879ZM29.552 56.333L29.7105 56.5877L29.9073 56.4652L29.8385 56.2439L29.552 56.333ZM28.4792 49.7879L28.7791 49.7808L28.7722 49.4879H28.4792V49.7879ZM30.0558 49.7879V49.4879H29.748L29.7559 49.7956L30.0558 49.7879ZM38.2115 49.7879H38.5115V49.4879H38.2115V49.7879ZM30.9583 55.5439L30.6704 55.6284L30.7718 55.9738L31.0932 55.8119L30.9583 55.5439ZM38.2115 53.6559L38.2243 53.9556L38.5115 53.9433V53.6559H38.2115ZM38.2115 55.233H38.5115V54.9185L38.1974 54.9333L38.2115 55.233ZM38.2115 65.0028L38.0668 65.2656L38.5115 65.5104V65.0028H38.2115ZM31.4775 57.0477L31.3392 56.7815L31.0998 56.9059L31.1982 57.1571L31.4775 57.0477ZM39.7876 65.0028H39.4876V65.5103L39.9323 65.2656L39.7876 65.0028ZM39.7876 55.2299L39.8002 54.9302L39.4876 54.9171V55.2299H39.7876ZM46.5293 57.0303L46.8087 57.1394L46.9067 56.8886L46.6678 56.7642L46.5293 57.0303ZM39.7876 53.6523H39.4876V53.941L39.7762 53.952L39.7876 53.6523ZM39.7876 49.7879V49.4879H39.4876V49.7879H39.7876ZM47.0465 55.525L46.9115 55.7929L47.2333 55.955L47.3344 55.6091L47.0465 55.525ZM47.9433 49.7879L48.2432 49.7955L48.2511 49.4879H47.9433V49.7879ZM47.9433 48.2117V48.5117H48.2511L48.2432 48.2041L47.9433 48.2117ZM39.7876 48.2117H39.4876V48.5117H39.7876V48.2117ZM47.0459 42.4741L47.3339 42.3899L47.2327 42.0441L46.9109 42.2062L47.0459 42.4741ZM39.7876 44.3473L39.7761 44.0476L39.4876 44.0586V44.3473H39.7876ZM39.7876 42.7697H39.4876V43.0826L39.8002 43.0694L39.7876 42.7697ZM39.7876 32.9978L39.9322 32.735L39.4876 32.4905V32.9978H39.7876ZM46.5288 40.9693L46.6673 41.2354L46.9062 41.1111L46.8082 40.8602L46.5288 40.9693ZM38.2115 32.9984H38.5115V32.4909L38.0669 32.7355L38.2115 32.9984ZM38.2115 42.7666L38.1974 43.0663L38.5115 43.081V42.7666H38.2115ZM31.4775 40.9519L31.1982 40.8424L31.0998 41.0936L31.3391 41.2181L31.4775 40.9519ZM38.2115 44.3443H38.5115V44.0568L38.2243 44.0445L38.2115 44.3443ZM38.2115 48.2117V48.5117H38.5115V48.2117H38.2115ZM30.9583 42.4562L31.0932 42.1882L30.7718 42.0263L30.6704 42.3717L30.9583 42.4562ZM30.0558 48.2117L29.7559 48.204L29.748 48.5117H30.0558V48.2117ZM27.2253 60.241L27.0083 60.0338L26.8106 60.2408L27.0081 60.448L27.2253 60.241ZM30.0994 57.8532L30.3774 57.7405L30.2405 57.403L29.9355 57.602L30.0994 57.8532ZM35.1336 64.8217L35.0621 65.113L35.3231 64.5891L35.1336 64.8217ZM42.8655 64.8217L42.6761 64.5891L42.937 65.113L42.8655 64.8217ZM47.9058 57.8378L48.0702 57.5869L47.7647 57.3868L47.6277 57.7253L47.9058 57.8378ZM50.7769 60.2385L50.9941 60.4454L51.1907 60.2392L50.9948 60.0323L50.7769 60.2385ZM50.7769 37.7611L50.9949 37.9673L51.1906 37.7603L50.9941 37.5542L50.7769 37.7611ZM47.9058 40.1618L47.6277 40.2743L47.7647 40.6127L48.0701 40.4128L47.9058 40.1618ZM42.8645 33.1779L42.9359 32.8866L42.675 33.4106L42.8645 33.1779ZM35.1343 33.1782L35.3237 33.4108L35.0628 32.8868L35.1343 33.1782ZM30.0999 40.1459L29.9362 40.3972L30.2411 40.5959L30.3779 40.2586L30.0999 40.1459ZM27.2253 37.7586L27.0081 37.5516L26.8106 37.7588L27.0083 37.9658L27.2253 37.7586ZM64.3203 42.8897C62.0297 33.3886 54.6116 25.9699 45.1104 23.6799L44.9699 24.2632C54.252 26.5004 61.4992 33.7482 63.737 43.0304L64.3203 42.8897ZM70.3002 48.9998C70.3002 45.5267 67.5051 42.6999 64.0321 42.6601L64.0252 43.26C67.1697 43.2961 69.7002 45.8555 69.7002 48.9998H70.3002ZM64.0321 55.3401C67.5051 55.3003 70.3002 52.4735 70.3002 48.9998H69.7002C69.7002 52.1447 67.1696 54.7041 64.0252 54.7402L64.0321 55.3401ZM45.1105 74.3203C54.6116 72.0297 62.0297 64.6116 64.3203 55.1105L63.737 54.9698C61.4992 64.252 54.252 71.4992 44.9698 73.737L45.1105 74.3203ZM38.9998 80.3002C42.4735 80.3002 45.3003 77.5051 45.3401 74.0321L44.7402 74.0252C44.7041 77.1696 42.1447 79.7002 38.9998 79.7002V80.3002ZM32.6601 74.0321C32.6999 77.5051 35.5267 80.3002 38.9998 80.3002V79.7002C35.8555 79.7002 33.2961 77.1697 33.26 74.0252L32.6601 74.0321ZM13.6799 55.1104C15.9699 64.6116 23.3886 72.0297 32.8897 74.3203L33.0304 73.737C23.7482 71.4992 16.5004 64.252 14.2632 54.9699L13.6799 55.1104ZM7.7 48.9998C7.7 52.4734 10.4945 55.3003 13.9681 55.3401L13.975 54.7402C10.8301 54.7041 8.3 52.1448 8.3 48.9998H7.7ZM13.9681 42.6601C10.4945 42.6999 7.7 45.5267 7.7 48.9998H8.3C8.3 45.8555 10.83 43.2961 13.975 43.26L13.9681 42.6601ZM32.8898 23.6799C23.3886 25.9699 15.9699 33.3886 13.6799 42.8898L14.2632 43.0303C16.5005 33.7482 23.7482 26.5005 33.0303 24.2632L32.8898 23.6799ZM38.9998 17.7C35.5267 17.7 32.6999 20.4945 32.6601 23.9681L33.26 23.975C33.2961 20.83 35.8555 18.3 38.9998 18.3V17.7ZM45.3401 23.9681C45.3003 20.4945 42.4734 17.7 38.9998 17.7V18.3C42.1448 18.3 44.7041 20.8301 44.7402 23.975L45.3401 23.9681ZM38.9995 19.8787C41.2994 19.8816 43.1632 21.7449 43.1656 24.0447L43.7656 24.0441C43.7628 21.4133 41.6308 19.282 39.0002 19.2787L38.9995 19.8787ZM34.8341 24.0448C34.837 21.7449 36.7003 19.8816 39.0002 19.8787L38.9995 19.2787C36.3688 19.282 34.2374 21.4134 34.2341 24.044L34.8341 24.0448ZM34.8566 24.4759C34.8413 24.3332 34.8341 24.1894 34.8341 24.0444H34.2341C34.2341 24.2093 34.2423 24.3744 34.2599 24.5395L34.8566 24.4759ZM38.9979 28.2091C36.8658 28.2081 35.0787 26.5972 34.8566 24.4765L34.2599 24.5389C34.5139 26.965 36.5584 28.808 38.9977 28.8091L38.9979 28.2091ZM43.1426 24.4809C42.9191 26.601 41.1301 28.21 38.9979 28.2091L38.9977 28.8091C41.4369 28.8102 43.4836 26.9694 43.7393 24.5438L43.1426 24.4809ZM43.1656 24.0454C43.166 24.1907 43.1584 24.3355 43.1427 24.4798L43.7392 24.5448C43.7573 24.3782 43.7661 24.2111 43.7656 24.0434L43.1656 24.0454ZM9.8787 49.0002C9.88157 46.7003 11.7449 44.837 14.0448 44.8341L14.044 44.2341C11.4134 44.2374 9.28198 46.3688 9.2787 48.9995L9.8787 49.0002ZM14.0447 53.1656C11.7449 53.1632 9.88157 51.2994 9.8787 48.9995L9.2787 49.0002C9.28198 51.6308 11.4133 53.7628 14.0441 53.7656L14.0447 53.1656ZM14.4764 53.1431C14.3331 53.1584 14.1891 53.166 14.0454 53.1656L14.0434 53.7656C14.2096 53.7661 14.3755 53.7573 14.54 53.7397L14.4764 53.1431ZM18.2091 49.0018C18.2081 51.1339 16.5972 52.921 14.477 53.1431L14.5395 53.7398C16.965 53.4858 18.808 51.4413 18.8091 49.002L18.2091 49.0018ZM14.4808 44.8571C16.601 45.0811 18.21 46.8701 18.2091 49.0018L18.8091 49.002C18.8102 46.5633 16.9694 44.5167 14.5438 44.2604L14.4808 44.8571ZM14.0444 44.8341C14.1904 44.8341 14.3358 44.8418 14.4808 44.8571L14.5438 44.2604C14.3779 44.2429 14.2114 44.2341 14.0444 44.2341V44.8341ZM39.0002 78.121C36.7004 78.1186 34.837 76.2548 34.8341 73.9549L34.2341 73.9557C34.2374 76.5863 36.3688 78.7182 38.9995 78.721L39.0002 78.121ZM43.1656 73.955C43.1632 76.2548 41.2994 78.1186 38.9995 78.121L39.0002 78.721C41.6309 78.7182 43.7628 76.5863 43.7656 73.9556L43.1656 73.955ZM43.1431 73.5238C43.1584 73.6671 43.166 73.8111 43.1656 73.9543L43.7656 73.9563C43.7661 73.7906 43.7573 73.6247 43.7397 73.4602L43.1431 73.5238ZM39.0022 69.7906C41.1344 69.792 42.9215 71.4025 43.1431 73.5232L43.7398 73.4608C43.4863 71.0346 41.4418 69.1922 39.0026 69.1906L39.0022 69.7906ZM34.8571 73.5194C35.0811 71.3987 36.8701 69.7896 39.0023 69.7906L39.0025 69.1906C36.5633 69.1895 34.5167 71.0303 34.2604 73.4564L34.8571 73.5194ZM34.8341 73.9553C34.8341 73.8098 34.8418 73.6644 34.8571 73.5194L34.2604 73.4564C34.2429 73.6223 34.2341 73.7888 34.2341 73.9553H34.8341ZM45.1439 72.3778C44.4229 69.5737 41.895 67.6134 38.9998 67.6134V68.2134C41.6211 68.2134 43.9099 69.9883 44.5628 72.5272L45.1439 72.3778ZM62.1609 54.7813C60.0267 63.3424 53.3419 70.0272 44.7808 72.1614L44.926 72.7436C53.7023 70.5557 60.5552 63.7028 62.7431 54.9265L62.1609 54.7813ZM57.6134 49.0004C57.6134 51.8955 59.5737 54.4234 62.3773 55.1444L62.5267 54.5634C59.9883 53.9105 58.2134 51.6217 58.2134 49.0004H57.6134ZM62.3773 42.8563C59.5737 43.5774 57.6134 46.1052 57.6134 49.0004H58.2134C58.2134 46.379 59.9883 44.0902 62.5267 43.4374L62.3773 42.8563ZM44.7813 25.8388C53.3424 27.973 60.0272 34.6578 62.1609 43.2194L62.7431 43.0743C60.5558 34.2974 53.7028 27.4445 44.9265 25.2566L44.7813 25.8388ZM39.0004 30.3862C41.8955 30.3862 44.4234 28.4265 45.1444 25.6224L44.5634 25.473C43.9105 28.0119 41.6217 29.7862 39.0004 29.7862V30.3862ZM32.8563 25.6224C33.5774 28.4265 36.1052 30.3862 39.0004 30.3862V29.7862C36.379 29.7862 34.0902 28.0119 33.4374 25.473L32.8563 25.6224ZM15.8388 43.2189C17.9735 34.6578 24.6578 27.973 33.2194 25.8388L33.0742 25.2566C24.2973 27.4445 17.445 34.2974 15.2566 43.0737L15.8388 43.2189ZM20.3862 48.9998C20.3862 46.1047 18.4265 43.5768 15.6224 42.8557L15.473 43.4368C18.0119 44.0897 19.7862 46.3785 19.7862 48.9998H20.3862ZM15.6224 55.1439C18.4265 54.4228 20.3862 51.895 20.3862 48.9998H19.7862C19.7862 51.6212 18.0119 53.91 15.473 54.5628L15.6224 55.1439ZM33.2189 72.1614C24.6578 70.0267 17.973 63.3419 15.8388 54.7808L15.2566 54.926C17.4445 63.7023 24.2974 70.5552 33.0737 72.7436L33.2189 72.1614ZM38.9998 67.6134C36.1047 67.6134 33.5768 69.5737 32.8557 72.3778L33.4368 72.5272C34.0897 69.9883 36.3785 68.2134 38.9998 68.2134V67.6134ZM63.9543 53.1656C63.8095 53.166 63.6642 53.1584 63.5205 53.1427L63.4553 53.7392C63.6215 53.7573 63.7892 53.7661 63.9563 53.7656L63.9543 53.1656ZM68.121 48.9998C68.121 51.3005 66.2559 53.1656 63.9553 53.1656V53.7656C66.5873 53.7656 68.721 51.6318 68.721 48.9998H68.121ZM63.9553 44.8341C66.2559 44.8341 68.121 46.6992 68.121 48.9998H68.721C68.721 46.3679 66.5873 44.2341 63.9553 44.2341V44.8341ZM63.5238 44.8571C63.6671 44.8418 63.811 44.8341 63.9553 44.8341V44.2341C63.7897 44.2341 63.6247 44.2429 63.4602 44.2605L63.5238 44.8571ZM59.7911 48.9979C59.7921 46.8663 61.4025 45.0792 63.5232 44.8571L63.4607 44.2604C61.0347 44.5144 59.1922 46.5589 59.1911 48.9977L59.7911 48.9979ZM63.5194 53.1426C61.3992 52.9186 59.7901 51.1301 59.7911 48.9979L59.1911 48.9977C59.19 51.4369 61.0308 53.483 63.4564 53.7393L63.5194 53.1426ZM20.8367 48.9998C20.8367 59.0153 28.9846 67.1626 38.9996 67.1626V66.5626C29.3159 66.5626 21.4367 58.6839 21.4367 48.9998H20.8367ZM38.9996 30.837C28.9846 30.837 20.8367 38.9848 20.8367 48.9998H21.4367C21.4367 39.3162 29.316 31.437 38.9996 31.437V30.837ZM57.1624 48.9998C57.1624 38.9848 49.0151 30.837 38.9996 30.837V31.437C48.6837 31.437 56.5624 39.3162 56.5624 48.9998H57.1624ZM38.9996 67.1626C49.015 67.1626 57.1624 59.0153 57.1624 48.9998H56.5624C56.5624 58.6839 48.6837 66.5626 38.9996 66.5626V67.1626ZM29.265 41.5781C28.5975 43.7261 28.2317 45.9563 28.1793 48.2047L28.7791 48.2187C28.8303 46.0261 29.1869 43.8511 29.838 41.7561L29.265 41.5781ZM25.9726 39.1641C26.9967 40.2184 28.1455 41.1444 29.3928 41.9217L29.7101 41.4125C28.504 40.6608 27.3932 39.7655 26.403 38.746L25.9726 39.1641ZM23.032 48.226C23.1891 44.9186 24.375 41.7421 26.4235 39.1406L25.9521 38.7694C23.8264 41.469 22.5957 44.7653 22.4327 48.1975L23.032 48.226ZM28.4792 47.9117H22.7323V48.5117H28.4792V47.9117ZM51.5786 39.1442C53.6256 41.7451 54.8105 44.9201 54.9671 48.2259L55.5664 48.1975C55.4039 44.7669 54.1743 41.4721 52.0501 38.7731L51.5786 39.1442ZM48.6117 41.9384C49.8603 41.1584 51.0088 40.2275 52.0304 39.1667L51.5983 38.7505C50.6108 39.7758 49.5007 40.6756 48.2938 41.4296L48.6117 41.9384ZM49.8204 48.2047C49.7674 45.962 49.4037 43.7381 48.7393 41.5952L48.1662 41.7729C48.8142 43.8627 49.1689 46.0317 49.2205 48.2188L49.8204 48.2047ZM55.2668 47.9117H49.5205V48.5117H55.2668V47.9117ZM48.7398 56.4049C49.4043 54.262 49.7674 52.0375 49.8204 49.795L49.2205 49.7808C49.1689 51.968 48.8147 54.1374 48.1667 56.2273L48.7398 56.4049ZM52.03 58.8334C51.0088 57.7726 49.8609 56.8417 48.6122 56.0617L48.2943 56.5705C49.5012 57.3245 50.6107 58.2242 51.5977 59.2495L52.03 58.8334ZM54.9666 49.7737C54.81 53.0801 53.6251 56.255 51.5781 58.856L52.0496 59.227C54.1738 56.528 55.4034 53.2332 55.5659 49.8021L54.9666 49.7737ZM49.5205 50.0879H55.2663V49.4879H49.5205V50.0879ZM26.4235 58.859C24.375 56.2575 23.1891 53.0815 23.032 49.7736L22.4327 49.8021C22.5957 53.2348 23.8264 56.5306 25.9521 59.2302L26.4235 58.859ZM29.3935 56.0783C28.1455 56.8552 26.9967 57.7812 25.9726 58.8355L26.403 59.2536C27.3932 58.2341 28.504 57.3388 29.7105 56.5877L29.3935 56.0783ZM28.1793 49.7949C28.2323 52.0438 28.5974 54.274 29.2655 56.4221L29.8385 56.2439C29.1869 54.149 28.8308 51.9741 28.7791 49.7808L28.1793 49.7949ZM22.7323 50.0879H28.4792V49.4879H22.7323V50.0879ZM30.0558 50.0879H38.2115V49.4879H30.0558V50.0879ZM31.2462 55.4595C30.7045 53.6133 30.4053 51.7038 30.3557 49.7801L29.7559 49.7956C29.8069 51.7712 30.1141 53.7323 30.6704 55.6284L31.2462 55.4595ZM38.1986 53.3561C35.6319 53.4662 33.1178 54.1204 30.8234 55.276L31.0932 55.8119C33.3117 54.6946 35.7425 54.062 38.2243 53.9556L38.1986 53.3561ZM37.9115 49.7879V53.6559H38.5115V49.7879H37.9115ZM37.9115 55.233V65.0028H38.5115V55.233H37.9115ZM31.6159 57.3139C33.6645 56.2493 35.9197 55.6415 38.2256 55.5327L38.1974 54.9333C35.8047 55.0462 33.4648 55.6769 31.3392 56.7815L31.6159 57.3139ZM38.3562 64.74C35.3731 63.098 33.1059 60.3833 31.7569 56.9383L31.1982 57.1571C32.592 60.7165 34.9464 63.548 38.0668 65.2656L38.3562 64.74ZM40.0876 65.0028V55.2299H39.4876V65.0028H40.0876ZM46.2498 56.9211C44.9013 60.3738 42.631 63.0955 39.643 64.74L39.9323 65.2656C43.0579 63.5454 45.4155 60.7065 46.8087 57.1394L46.2498 56.9211ZM39.7751 55.5297C42.083 55.6263 44.3416 56.2295 46.3907 57.2964L46.6678 56.7642C44.5406 55.6567 42.196 55.0306 39.8002 54.9302L39.7751 55.5297ZM40.0876 53.6523V49.7879H39.4876V53.6523H40.0876ZM47.1814 55.257C44.8856 54.1002 42.3679 53.4506 39.7991 53.3525L39.7762 53.952C42.259 54.0469 44.6924 54.6748 46.9115 55.7929L47.1814 55.257ZM47.6434 49.7802C47.5943 51.6977 47.2966 53.6001 46.7585 55.4408L47.3344 55.6091C47.8871 53.7188 48.1928 51.765 48.2432 49.7955L47.6434 49.7802ZM39.7876 50.0879H47.9433V49.4879H39.7876V50.0879ZM47.9433 47.9117H39.7876V48.5117H47.9433V47.9117ZM46.758 42.5584C47.2966 44.3995 47.5943 46.3024 47.6434 48.2194L48.2432 48.2041C48.1928 46.2351 47.8871 44.2808 47.3339 42.3899L46.758 42.5584ZM39.7991 44.6471C42.3679 44.5485 44.8856 43.8989 47.181 42.742L46.9109 42.2062C44.6924 43.3243 42.259 43.9522 39.7761 44.0476L39.7991 44.6471ZM40.0876 48.2117V44.3473H39.4876V48.2117H40.0876ZM40.0876 42.7697V32.9978H39.4876V42.7697H40.0876ZM46.3903 40.7032C44.3411 41.7696 42.083 42.3728 39.775 42.4699L39.8002 43.0694C42.1961 42.9685 44.5401 42.3424 46.6673 41.2354L46.3903 40.7032ZM39.643 33.2607C42.631 34.9041 44.9008 37.6258 46.2493 41.0785L46.8082 40.8602C45.415 37.2931 43.0579 34.4542 39.9322 32.735L39.643 33.2607ZM37.9115 32.9984V42.7666H38.5115V32.9984H37.9115ZM31.7568 41.0613C33.1064 37.6173 35.3732 34.9021 38.3561 33.2612L38.0669 32.7355C34.9464 34.4521 32.5925 37.2842 31.1982 40.8424L31.7568 41.0613ZM38.2256 42.4669C35.9196 42.3586 33.6646 41.7508 31.6159 40.6857L31.3391 41.2181C33.4648 42.3232 35.8047 42.9539 38.1974 43.0663L38.2256 42.4669ZM37.9115 44.3443V48.2117H38.5115V44.3443H37.9115ZM30.8234 42.7241C33.1178 43.8797 35.6319 44.5344 38.1987 44.644L38.2243 44.0445C35.7426 43.9386 33.3117 43.3056 31.0932 42.1882L30.8234 42.7241ZM30.3557 48.2195C30.4053 46.2958 30.7045 44.3868 31.2462 42.5406L30.6704 42.3717C30.1141 44.2678 29.8069 46.2284 29.7559 48.204L30.3557 48.2195ZM38.2115 47.9117H30.0558V48.5117H38.2115V47.9117ZM27.4422 60.4482C28.2893 59.5614 29.236 58.7748 30.2634 58.1045L29.9355 57.602C28.8695 58.2975 27.8872 59.1137 27.0083 60.0338L27.4422 60.4482ZM35.2051 64.5303C32.2419 63.8031 29.548 62.2429 27.4424 60.034L27.0081 60.448C29.1927 62.7398 31.9876 64.3585 35.0621 65.113L35.2051 64.5303ZM29.8214 57.966C30.9781 60.8179 32.7143 63.2376 34.9441 65.0543L35.3231 64.5891C33.1786 62.842 31.4998 60.5077 30.3774 57.7405L29.8214 57.966ZM43.0549 65.0543C45.2895 63.2345 47.0278 60.8084 48.1839 57.9503L47.6277 57.7253C46.5059 60.4987 44.8251 62.839 42.6761 64.5891L43.0549 65.0543ZM50.5597 60.0315C48.4536 62.2419 45.7588 63.8026 42.794 64.5303L42.937 65.113C46.013 64.358 48.809 62.7387 50.9941 60.4454L50.5597 60.0315ZM47.7414 58.0888C48.7691 58.762 49.7147 59.5525 50.5591 60.4447L50.9948 60.0323C50.1184 59.1062 49.1369 58.2856 48.0702 57.5869L47.7414 58.0888ZM50.559 37.555C49.7147 38.4476 48.7691 39.2381 47.7415 39.9108L48.0701 40.4128C49.1369 39.7145 50.1184 38.8939 50.9949 37.9673L50.559 37.555ZM42.793 33.4693C45.7583 34.1965 48.4531 35.7577 50.5598 37.9681L50.9941 37.5542C48.8085 35.2609 46.0125 33.6411 42.9359 32.8866L42.793 33.4693ZM48.1839 40.0492C47.0273 37.1906 45.2885 34.7651 43.0539 32.9453L42.675 33.4106C44.8241 35.1607 46.5054 37.5005 47.6277 40.2743L48.1839 40.0492ZM34.9448 32.9455C32.7143 34.7616 30.9785 37.1822 29.822 40.0331L30.3779 40.2586C31.5002 37.4923 33.1786 35.1573 35.3237 33.4108L34.9448 32.9455ZM30.2637 39.8945C29.236 39.2248 28.2893 38.4382 27.4422 37.5514L27.0083 37.9658C27.8872 38.8859 28.8696 39.7022 29.9362 40.3972L30.2637 39.8945ZM27.4424 37.9656C29.5483 35.7564 32.2418 34.1963 35.2057 33.4695L35.0628 32.8868C31.9876 33.6409 29.193 35.2595 27.0081 37.5516L27.4424 37.9656Z" fill="white" mask="url(#path-24-inside-3)"/>
</g>
<defs>
<clipPath id="clip0">
<rect width="62" height="62" transform="matrix(-1 0 0 1 323 16)" fill="white"/>
</clipPath>
<clipPath id="clip1">
<rect x="8" y="18" width="62" height="62" fill="white"/>
</clipPath>
</defs>
</svg>
