<svg width="73" height="71" viewBox="0 0 73 71" fill="none" xmlns="http://www.w3.org/2000/svg">
<path fill-rule="evenodd" clip-rule="evenodd" d="M0.809814 8.19001C0.809814 12.3 10.7098 15.69 22.9348 15.69C26.9338 15.6855 30.9208 15.258 34.8298 14.415C26.9398 11.925 12.3298 7.02001 4.15481 4.26001C2.05481 5.40001 0.809814 6.75001 0.809814 8.19001Z" fill="#E1E1E1"/>
<path fill-rule="evenodd" clip-rule="evenodd" d="M49.71 25.605C61.929 25.605 71.835 35.511 71.835 47.73C71.835 59.949 61.929 69.855 49.71 69.855C37.491 69.855 27.585 59.949 27.585 47.73C27.585 35.511 37.491 25.605 49.71 25.605Z" stroke="black" stroke-linecap="round" stroke-linejoin="bevel"/>
<path fill-rule="evenodd" clip-rule="evenodd" d="M22.9348 0.750122C35.1538 0.750122 45.0598 4.08162 45.0598 8.19012C45.0598 12.2986 35.1538 15.6301 22.9348 15.6301C10.7158 15.6301 0.809814 12.2986 0.809814 8.19012C0.809814 4.08162 10.7158 0.750122 22.9348 0.750122Z" stroke="black" stroke-linecap="round" stroke-linejoin="bevel"/>
<path d="M45.0605 18.1649C45.0605 22.2749 35.1455 25.6649 22.9355 25.6649C10.724 25.6649 0.810547 22.3349 0.810547 18.1649V8.18994" stroke="black" stroke-linecap="round" stroke-linejoin="bevel"/>
<path d="M32.1743 33.4506C29.1158 33.9096 26.0273 34.1346 22.9343 34.1241C10.7093 34.1241 0.809326 30.7941 0.809326 26.6256C0.809326 25.1256 2.20583 23.6256 4.58933 22.4706" stroke="black" stroke-linecap="round" stroke-linejoin="bevel"/>
<path d="M27.525 43.9505C26.025 44.054 24.525 44.114 22.875 44.114C10.65 44.114 0.75 40.7855 0.75 36.614V26.6855" stroke="black" stroke-linecap="round" stroke-linejoin="bevel"/>
<path d="M49.71 39.975V55.485" stroke="black" stroke-linecap="round" stroke-linejoin="bevel"/>
<path d="M57.4796 47.73H41.9546" stroke="black" stroke-linecap="round" stroke-linejoin="bevel"/>
</svg>
