<svg xmlns="http://www.w3.org/2000/svg" viewBox="0 0 122 132" width="122" height="132">
<style type="text/css">
	.st0{fill:#E1E1E1;}
	.st1{fill:none;stroke:#0D0F0F;stroke-linecap:round;stroke-linejoin:bevel;}
	.st2{fill:none;stroke:#0D0F0F;stroke-linecap:round;stroke-linejoin:round;}
</style>
<g>
	<path class="st0" d="M107.4,39.7L71.9,83.3h-0.9c-0.2,0.2-0.7,0.4-0.9,0.6c-4,3.8-10.5,2.4-14.3-1.6c-0.7-0.7-0.2-2.6-0.6-3.5c0,0-0.5,2-0.5,2.1c2.6,4.5,5.5,8.8,8.5,12.9c1.8,1.9,4.3,3,7,3.1c2.6,0.1,5.2-0.9,7.1-2.8c0.2-0.2,0.4-0.4,0.6-0.6l35.6-43.8C111.9,46.1,109.9,42.7,107.4,39.7z"/>
	<path class="st1" d="M107.4,39.7c17.1,19.9,18.1,49,2.4,70c-15.8,21-44,28.2-67.9,17.2C18,116,5,89.9,10.6,64.3c5.6-25.7,28.3-44,54.5-44"/>
	<path class="st1" d="M46.6,0.7h36.9"/>
	<path class="st1" d="M65.1,0.7v28"/>
	<path class="st1" d="M65.1,124.5v7.5"/>
	<path class="st1" d="M121,76.1h-7.5"/>
	<path class="st1" d="M16.8,76.1H9.3"/>
	<path class="st1" d="M15.6,22.8L1,41.4"/>
	<path class="st2" d="M72.6,82.7l48.3-59.6l-62,45.2l0,0c-0.2,0.2-0.5,0.3-0.6,0.5c-2.8,2.4-4,6.1-3.2,9.7c0.8,3.6,3.5,6.4,7,7.4c3.5,1,7.3,0,9.8-2.7c0.2-0.2,0.4-0.4,0.6-0.6L72.6,82.7z"/>
</g>
</svg>
