<svg width="138" height="45" viewBox="0 0 138 45" fill="none" xmlns="http://www.w3.org/2000/svg">
<path fill-rule="evenodd" clip-rule="evenodd" d="M1.02016 7.89144L-0.000244141 10.8166L29.0042 44.175L32.043 43.5626L45.7514 2.44904L43.6306 0.000244141L1.02016 7.89144Z" fill="white"/>
<path fill-rule="evenodd" clip-rule="evenodd" d="M27.7929 29.6419L34.5609 9.86475H31.2145L25.9129 26.8219L20.5361 9.86475H17.0769L23.9577 29.6419H27.7929Z" fill="#003A5E"/>
<path fill-rule="evenodd" clip-rule="evenodd" d="M45.3926 12.1985C45.8182 12.0981 46.291 12.0453 46.8038 12.0453C48.6842 12.0453 50.1878 12.6093 51.9174 13.8881L53.3086 11.7825C51.429 10.3537 49.3986 9.52613 46.691 9.52613C46.5574 9.52613 46.425 9.52853 46.2946 9.53413C46.2946 9.53413 45.3998 12.2005 45.3926 12.1985ZM58.9862 29.7549H62.1446V9.97733H58.9862V29.7549ZM85.1178 10.7673L84.1774 7.87213C81.959 8.88733 80.2298 9.63933 75.229 9.52613C70.8674 9.52613 67.7086 12.3461 67.7086 16.3697C67.7086 18.9637 68.7618 20.6933 71.0178 21.8965C69.6262 22.7989 68.8742 24.0401 68.8742 25.3561C68.8742 27.3109 70.4534 29.0405 73.913 29.0405H77.0338C79.5902 29.0405 81.1322 30.0185 81.1322 31.9737C81.1322 34.0413 79.5902 35.2069 75.229 35.2069C70.7918 35.2069 69.6642 34.1545 69.6642 31.7857H66.8062C66.8062 35.7713 68.8742 37.6889 75.229 37.6889C81.2826 37.6889 84.3282 35.5453 84.3282 31.7477C84.3282 28.6645 81.6962 26.3713 77.6726 26.3713H74.5146C72.4086 26.3713 71.807 25.6193 71.807 24.6789C71.807 23.8897 72.2206 23.1749 72.8978 22.7237C73.687 22.9873 74.5146 23.1001 75.417 23.1001C80.0794 23.1001 82.8618 20.3177 82.8618 16.4445C82.8618 14.0385 81.6962 12.3841 79.4022 11.3689C81.6962 11.3309 83.5382 11.2561 85.1178 10.7673ZM75.229 11.8201C78.1618 11.8201 79.6282 13.4369 79.6282 16.3697C79.6282 19.3025 78.1238 20.9941 75.3038 20.9941C72.5214 20.9941 70.9422 19.1521 70.9422 16.3697C70.9422 13.7377 72.4086 11.8201 75.229 11.8201ZM98.0518 9.52613C95.3826 9.52613 93.3146 10.9177 91.8482 12.9477L91.5846 9.97733H88.8774V29.7553H92.0359V15.6553C93.3895 13.4741 94.9687 12.0077 97.3002 12.0077C99.3307 12.0077 100.571 12.9857 100.571 16.0309V29.7553H103.73V15.5797C103.73 11.8201 101.662 9.52613 98.0518 9.52613ZM123.958 25.2057V16.0309C123.958 11.9329 121.815 9.52613 117.115 9.52613C114.934 9.52613 112.791 9.97733 110.422 10.8797L111.212 13.2109C113.242 12.4965 115.047 12.1209 116.551 12.1209C119.408 12.1209 120.8 13.2485 120.8 16.1813V17.7233H117.566C112.151 17.7233 108.993 20.0169 108.993 24.2277C108.993 27.7621 111.324 30.2065 115.235 30.2065C117.679 30.2065 119.785 29.2665 121.175 27.1605C121.702 29.1537 122.943 29.9429 124.86 30.2065L125.613 27.9881C124.559 27.6117 123.958 27.0477 123.958 25.2057ZM115.949 27.8001C113.581 27.8001 112.339 26.4841 112.339 24.0773C112.339 21.2573 114.295 19.8665 117.98 19.8665H120.8V24.5665C119.671 26.7093 118.092 27.8001 115.949 27.8001ZM134.222 25.9201V1.63013L131.064 2.00653V25.9573C131.064 28.7773 132.455 30.2065 134.862 30.2065C135.839 30.2065 136.779 29.9805 137.644 29.5673L136.817 27.3485C136.441 27.4989 136.027 27.5741 135.538 27.5741C134.561 27.5741 134.222 27.0101 134.222 25.9201ZM42.8682 19.5845C42.893 19.5965 42.9182 19.6085 42.9434 19.6213C43.6942 19.9845 44.5882 20.3021 45.6382 20.5805C49.549 21.6337 50.5642 22.3857 50.5642 24.5665C50.5642 26.4085 48.797 27.6497 46.165 27.6497C44.1022 27.6497 40.9286 25.8805 40.9286 25.8805C40.9286 25.8805 39.9798 28.4825 39.9626 28.4705C41.5502 29.5133 43.5722 30.2065 46.2398 30.2065C50.2254 30.2065 53.8726 28.2889 53.8726 24.2653C53.8726 20.8065 51.5414 19.2269 47.3678 18.1369C45.7366 17.7057 44.6382 17.3025 43.947 16.7965C43.9262 16.7813 43.9058 16.7661 43.8854 16.7505C43.8854 16.7505 42.905 19.6385 42.8682 19.5845Z" fill="white"/>
</svg>
